<svg xmlns="http://www.w3.org/2000/svg" width="29" height="29" fill="none"><g fill="#000"><path d="M27.779 5.584h-8.914c-.433 0-.827.01-1.178.346-.455.43-.37 1.077-.37 1.64v1.67c0 .35-.013.7.006 1.048a5.89 5.89 0 0 0 .797 2.7 5.967 5.967 0 0 0 1.91 1.97c.8.518 1.718.796 2.663.887 1.791.173 3.682-.597 4.852-1.964.606-.708 1.067-1.538 1.286-2.45.132-.556.169-1.121.169-1.693V6.804a1.245 1.245 0 0 0-.264-.741c-.1-.13-.197-.237-.351-.315-.2-.11-.385-.14-.606-.164-.252-.03-.58.14-.75.313-.184.184-.32.484-.311.747.011.276.103.556.312.748.221.202.454.275.749.311l.036.003a9.325 9.325 0 0 1-.282-.039c.012.003.021.009.033.012a8.765 8.765 0 0 0-.254-.106c.009.006.018.012.03.018a12.167 12.167 0 0 1-.215-.166l.024.024a9.182 9.182 0 0 0-.167-.215.45.45 0 0 1 .018.03 11.132 11.132 0 0 1-.106-.253c.004.01.01.02.013.033-.013-.094-.024-.188-.04-.282.016.13.003.267.003.396v2.676c0 .275-.006.551-.042.823.012-.094.024-.188.04-.28-.058.42-.167.825-.33 1.219.035-.085.072-.17.105-.255-.164.382-.37.74-.622 1.065.055-.073.11-.141.167-.214a4.862 4.862 0 0 1-.866.865 7.95 7.95 0 0 0 .215-.166c-.33.252-.685.46-1.067.62.085-.036.17-.072.255-.106-.392.164-.8.273-1.222.33.094-.012.188-.024.282-.04a4.887 4.887 0 0 1-1.264 0c.095.013.188.025.282.04a4.92 4.92 0 0 1-1.222-.33c.085.038.17.073.255.106a4.886 4.886 0 0 1-1.067-.62c.074.055.143.108.216.166a4.862 4.862 0 0 1-.867-.865c.054.073.109.141.167.214a4.85 4.85 0 0 1-.621-1.065c.036.085.072.17.105.255a4.831 4.831 0 0 1-.33-1.22c.012.093.024.187.04.281-.064-.488-.043-.987-.043-1.477V7.253c0-.161-.015-.33.003-.491a7.993 7.993 0 0 1-.04.282c.004-.013.01-.022.013-.033a7.968 7.968 0 0 0-.106.253.17.17 0 0 0 .018-.03c-.055.073-.11.142-.167.215l.024-.024c-.072.055-.142.108-.215.166.01-.006.018-.012.03-.018-.084.037-.169.073-.254.106.012-.003.021-.009.033-.012a9.084 9.084 0 0 0-.281.04c.309-.037.636-.004.948-.004H27.78c.554 0 1.085-.487 1.06-1.06-.027-.574-.466-1.059-1.06-1.059Z" class="fills"/><path d="M19.542 2.425v4.216c0 .554.487 1.084 1.06 1.06.576-.025 1.06-.467 1.06-1.06V2.425c0-.554-.487-1.084-1.06-1.059-.573.027-1.06.465-1.06 1.059ZM26.77 6.644V2.428c0-.554-.489-1.084-1.061-1.06-.576.025-1.061.467-1.061 1.06v4.216c0 .553.488 1.084 1.061 1.06.572-.028 1.06-.466 1.06-1.06ZM11.598 16.116c.3-.177.579-.408.842-.634a7.53 7.53 0 0 0 1.389-1.617 6.62 6.62 0 0 0 .99-2.632c.085-.603.118-1.196.049-1.805a9.036 9.036 0 0 0-.455-2.04c-.482-1.35-1.19-2.602-2.149-3.674a10.102 10.102 0 0 0-2.621-2.07C7.906.684 5.958.212 3.99.054 3.033-.02 2.054-.025 1.1.092.994.104.884.118.778.134.463.179.206.476.09.748c-.121.29-.136.672.055.942.221.311.381.674.53 1.026C.64 2.63.603 2.546.57 2.461c.394.939.637 1.932.776 2.939-.012-.094-.024-.188-.04-.28.17 1.276.083 2.565.25 3.843.153 1.18.435 2.303.935 3.39.883 1.906 2.552 3.374 4.61 3.87 1.4.34 2.843.264 4.243-.009.248-.048.51-.275.634-.487.133-.227.19-.564.106-.817-.188-.582-.722-.854-1.307-.739a10.646 10.646 0 0 1-.421.076 8.771 8.771 0 0 1-2.285.02c.094.013.188.025.282.04a6.433 6.433 0 0 1-1.613-.43c.085.037.17.073.255.107a5.663 5.663 0 0 1-1.23-.718l.215.167a5.9 5.9 0 0 1-1.015-1.02c.054.072.109.142.166.215a7.26 7.26 0 0 1-.912-1.577c.036.084.073.169.106.254a10.385 10.385 0 0 1-.691-2.624c.013.094.024.187.04.282a16.294 16.294 0 0 1-.122-1.992 16.078 16.078 0 0 0-.258-2.719c-.2-1.1-.542-2.19-1.06-3.185a4 4 0 0 0-.26-.45c-.213.518-.422 1.04-.634 1.557l.018-.003c-.094.012-.188.024-.282.038.821-.108 1.664-.111 2.491-.065.418.02.834.06 1.249.115-.094-.013-.188-.024-.282-.04 1.137.154 2.258.436 3.316.88-.085-.035-.17-.072-.255-.106.776.33 1.512.748 2.179 1.26a8.8 8.8 0 0 1-.215-.167 9.02 9.02 0 0 1 1.612 1.608c-.054-.073-.109-.143-.166-.215.515.672.93 1.41 1.264 2.188a8.461 8.461 0 0 1 .494 1.861c-.013-.093-.025-.187-.04-.282.076.564.082 1.13.01 1.693a7.94 7.94 0 0 1 .039-.282c-.07.503-.2.99-.397 1.46.036-.086.072-.17.106-.255a6.272 6.272 0 0 1-.798 1.362c.055-.073.11-.142.167-.215a6.56 6.56 0 0 1-1.172 1.175l.215-.167a4 4 0 0 1-.367.258c-.476.283-.694.964-.382 1.449.312.493.943.695 1.455.392Z" class="fills"/><path d="M6.112 7.695c.197.184.373.39.546.595a12.897 12.897 0 0 1 .145.173c.67.865 1.24 1.804 1.727 2.778.186.372.359.748.519 1.13-.036-.086-.073-.17-.106-.255a21.427 21.427 0 0 1 1.27 4.186 22.48 22.48 0 0 1 .194 1.138c.17 1.264.22 2.536.22 3.811 0 .357-.005.717 0 1.074.013.73.137 1.474.392 2.158a6.989 6.989 0 0 0 2.7 3.422 6.705 6.705 0 0 0 4.08 1.082 6.96 6.96 0 0 0 4.1-1.677 6.72 6.72 0 0 0 2.137-3.566c.154-.699.172-1.395.172-2.103v-6.837c0-.554-.488-1.084-1.06-1.06-.576.025-1.061.466-1.061 1.06V21.57c0 .47.01.939-.049 1.405.013-.095.024-.189.04-.281-.067.499-.2.986-.394 1.452a8 8 0 0 0 .106-.254c-.191.454-.44.88-.74 1.27l.167-.215c-.309.397-.664.754-1.064 1.063.073-.054.143-.108.216-.166-.394.3-.819.547-1.273.738.085-.036.17-.072.254-.105a5.957 5.957 0 0 1-1.454.393c.094-.012.187-.025.282-.04a5.964 5.964 0 0 1-1.516 0c.094.012.188.025.282.04-.5-.066-.988-.2-1.455-.393.085.035.17.072.255.105a5.77 5.77 0 0 1-1.273-.738c.072.055.142.108.215.166a5.971 5.971 0 0 1-1.064-1.063c.055.074.11.143.167.215a5.805 5.805 0 0 1-.74-1.27c.037.085.073.169.107.254a5.86 5.86 0 0 1-.394-1.452c.011.092.024.186.039.28-.07-.548-.049-1.1-.049-1.649 0-.693-.005-1.39-.048-2.083-.115-1.876-.415-3.755-.955-5.56a21.276 21.276 0 0 0-1.66-4.03 17.818 17.818 0 0 0-1.683-2.548 8.1 8.1 0 0 0-.788-.897c-.002-.004-.009-.006-.012-.012-.406-.378-1.103-.43-1.5 0-.373.412-.427 1.095.006 1.499Z" class="fills"/></g></svg>