<svg xmlns="http://www.w3.org/2000/svg" width="18.173" height="29" fill="none"><path fill="#000" d="M2.352 2.352H13.651c-.376-.5-.757-.993-1.133-1.491-.318.917-.632 1.832-.95 2.75l-1.506 4.362c-.118.337-.232.676-.35 1.009-.25.733.413 1.49 1.134 1.49H16.983c-.338-.588-.68-1.18-1.017-1.77-.412.618-.82 1.233-1.232 1.849-.985 1.479-1.97 2.954-2.954 4.434-1.19 1.78-2.373 3.561-3.563 5.342-1.027 1.543-2.051 3.08-3.08 4.622-.501.75-1.023 1.492-1.502 2.256-.008.012-.015.02-.02.032l2.194.591.4-4.287c.212-2.26.42-4.515.632-6.776.047-.514.094-1.027.145-1.541.023-.272-.15-.652-.345-.833a1.228 1.228 0 0 0-.832-.344H1.18l1.177 1.177c.04-.464.08-.926.118-1.393l.283-3.363.34-4.048.295-3.505c.047-.568.117-1.14.145-1.714 0-.006 0-.015.005-.023.022-.286-.15-.636-.346-.832C2.992.143 2.659-.011 2.364 0 1.682.032 1.242.52 1.188 1.178c-.04.463-.08.926-.118 1.393C.975 3.693.88 4.811.787 5.933l-.341 4.05-.295 3.503c-.047.568-.117 1.14-.145 1.714 0 .008 0 .015-.004.024-.023.274.146.647.346.83.231.213.513.347.831.347h4.63l-1.177-1.177-.4 4.287c-.212 2.26-.42 4.517-.632 6.776-.047.514-.094 1.028-.145 1.541-.024.251.106.523.25.715.15.196.366.364.613.423.534.123 1.028-.089 1.33-.54.412-.617.82-1.232 1.232-1.848.984-1.48 1.97-2.955 2.954-4.433l3.562-5.345 3.08-4.62c.503-.751 1.024-1.491 1.503-2.256.007-.013.015-.02.02-.032.505-.758-.166-1.77-1.017-1.77h-6.136c.377.498.758.992 1.134 1.491.318-.917.631-1.833.95-2.75L14.436 2.5c.118-.337.231-.675.35-1.008.25-.734-.413-1.49-1.135-1.49H2.353c-.616 0-1.205.54-1.178 1.176.028.636.514 1.174 1.177 1.174Z" class="fills"/></svg>