<svg xmlns="http://www.w3.org/2000/svg" width="18" height="29" fill="none"><g fill="#000"><path d="M9.928 4.219V.944c0-.494-.428-.965-.93-.944-.504.023-.929.416-.929.944v3.275c0 .493.428.964.93.942.504-.022.929-.415.929-.942ZM3.498 5.531c-.558-.722-1.112-1.445-1.67-2.168l-.242-.31c-.136-.177-.449-.277-.656-.277a.941.941 0 0 0-.657.277c-.161.179-.282.414-.273.666.013.267.112.459.273.666l1.67 2.168.241.311c.137.176.45.278.657.278a.942.942 0 0 0 .657-.278c.16-.178.281-.414.272-.666-.012-.266-.114-.458-.272-.667ZM15.816 6.864c.558-.722 1.112-1.445 1.67-2.168l.242-.311c.158-.204.272-.394.272-.666a.97.97 0 0 0-.272-.666c-.177-.164-.41-.287-.657-.277-.23.01-.508.085-.657.277l-1.67 2.169-.241.31c-.158.205-.273.393-.273.666 0 .234.103.506.273.666.177.165.41.287.657.278.226-.013.507-.086.656-.278ZM3.65 22.952v-8.357c0-.552-.016-1.107.052-1.662-.013.086-.022.167-.034.252a6.609 6.609 0 0 1 .436-1.635l-.092.228c.155-.373.343-.727.564-1.064.062-.09.124-.182.188-.27.04-.056.15-.175-.046.06.034-.04.068-.085.102-.129.127-.153.258-.302.397-.443.14-.142.284-.277.436-.402.029-.026.09-.097.127-.104-.046.01-.198.154-.058.047a6.246 6.246 0 0 1 1.313-.763l-.223.094a6.259 6.259 0 0 1 1.61-.443c-.083.012-.164.022-.247.035.542-.07 1.09-.07 1.636 0-.084-.013-.165-.023-.248-.035a6.356 6.356 0 0 1 1.61.443l-.223-.094c.365.157.716.349 1.047.571.09.064.18.126.267.192.055.042.173.151-.06-.047a6.407 6.407 0 0 1 .564.506c.14.141.273.29.397.443.024.029.096.091.102.13-.01-.048-.152-.202-.046-.06a6.39 6.39 0 0 1 .752 1.333 44.515 44.515 0 0 1-.093-.228c.217.525.363 1.073.437 1.635l-.034-.252c.062.491.052.981.052 1.474v8.545l.93-.942H4.25c-.509 0-1.017-.01-1.525 0h-.021c-.487 0-.952.434-.93.942.022.513.41.944.93.944H13.719c.508 0 1.016.01 1.524 0h.022a.95.95 0 0 0 .929-.944V13.97c0-1.546-.39-3.07-1.276-4.343a7.531 7.531 0 0 0-2.264-2.152c-.92-.557-1.94-.87-2.999-.987-2.044-.223-4.126.55-5.615 1.966-1.437 1.367-2.258 3.324-2.265 5.319-.003.731 0 1.467 0 2.2v6.979c0 .494.428.965.93.944.517-.026.944-.415.944-.944Z" class="fills"/><path d="M7.546 28.057V17.655c0-.495-.427-.966-.93-.944-.504.022-.928.415-.928.944V28.057c0 .493.427.965.929.942.505-.025.929-.415.929-.942ZM8.66 16.733h2.721l-.93-.943v10.756c0 .495-.01.992 0 1.488v.023c0 .493.428.965.93.942.505-.022.93-.415.93-.942V17.302c0-.496.008-.993 0-1.49v-.022a.95.95 0 0 0-.93-.943H8.66c-.486 0-.95.434-.93.943.022.51.41.943.93.943Z" class="fills"/><path d="M16.826 22.01H3.085c-.631 0-1.263-.013-1.892 0h-.025c-.486 0-.95.434-.929.942.022.513.409.944.93.944H14.908c.632 0 1.263.012 1.892 0h.025c.486 0 .951-.435.93-.944-.023-.512-.41-.942-.93-.942Z" class="fills"/></g></svg>