<svg xmlns="http://www.w3.org/2000/svg" width="180" height="180" viewBox="0 0 47.625 47.625">
  <path d="m36.963 42.8565-.0027.0001c-.018.0026-.0288.0282-.073.175-.2665.8824-.6815 1.643-1.2748 2.3358-.1651.1928-.4994.5323-.7011.7123-.5884.5247-1.2832 1.0025-2.1926 1.5076-.5356.2976-1.0763.5705-2.2488 1.1354-1.2924.6227-2.0699 1.0388-2.717 1.454-.8685.5575-1.5465 1.167-2.0212 1.8173-.6127.8395-.9462 1.7749-1.0245 2.9105-.0161.2346-.0058.9152.0163 1.1106.1247 1.1043.5893 2.1184 1.4039 3.048.2785.318.6184.6503.938.895l.1033.079-.119.1427c-.2703.3245-.5243.617-.6405.76-.8478 1.043-1.1562 1.5845-1.27 2.2301-.0546.3089-.0675.6818-.031.895.0932.5453.4738.9877 1.1167 1.2982.4417.2133.997.369 1.6424.4605.315.0447.7766.0853.9692.0853.0553 0 .0942.0047.1042.0126.0088.007.024.0376.0338.068.0708.2193.2758.4284.56.5711.2475.1243.6286.2232.991.2572l.1516.0143v.0002c.0673.0063.634.0065.6958 0l.062-.0065.0053-.5277.4755-.0051c.427-.0045.4782-.0068.502-.0224.0457-.03.0492-.1172.0063-.156-.0194-.0175-.0515-.019-.5022-.0238l-.4816-.005-.0047-.6924h.4703c.5161 0 .515.0002.5399-.06.016-.0388.0063-.093-.0212-.118-.02-.018-.0488-.0194-.5027-.0241l-.4816-.0051-.0054-.5291-.063-.0054c-.3289-.0284-.8266-.0045-1.1546.0556-.6315.1156-1.0812.3855-1.2225.7338-.0179.044-.0294.0592-.0467.0619-.0406.006-.6247-.0185-.8078-.034-.7368-.0625-1.3912-.2163-1.8445-.4336-.4605-.2208-.7775-.5387-.8874-.8902-.049-.1568-.0608-.2763-.0546-.556.0062-.2812.0192-.3888.074-.611.0937-.3803.2502-.709.5531-1.1627.2606-.3901.606-.7552 1.1021-1.4304l.201-.2736.0687.045c.8155.5328 1.8478.896 2.9239 1.001 1.1338.1108 2.33-.0608 3.2615-.4689 2.8979-1.2695 4.5336-4.2417 4.795-8.6568.1365-2.3034-.1332-5.0537-.7288-7.4337-.2475-.989-.5265-1.746-.6413-1.7417zm-.1358 2.6781h.0002v.0001h.0001c.0017.0032.001.0396-.001.1045-.0156.5016-.1076 1.1292-.2466 1.6829-.0957.3813-.279.947-.4371 1.3492a.546.546 0 0 0-.0244.0758c-.0084.0474.3474-.562.8159-1.2937.0106 0 .1261.6142.1367.6256.1007-.083.721-.9265.6297-.767l-.6413 1.1186-.145-.5597-.6697.8072c-.1543.186-.206.2631-.2293.3169l-.096.2221a23.1998 23.1998 0 0 1-.3856.827c-.081.151-.1595.3007-.236.4566a8.729 8.729 0 0 0-.0744.1364c-.1165.216-.2407.4277-.3644.6394-.1095.1825-.221.3621-.3309.5432-.2522.4044-.3918.6069-.3696.5862l1.5462-1.4444-.047 1.0952 2.2155-1.494c.0818-.0551-2.4728 2.19-2.4723 2.1837l.1003-1.169-1.2058.7967c-.2004.1325-.2366.1615-.2697.2093a82.366 82.366 0 0 0-.1395.2023 14.1802 14.1802 0 0 1-.1769.2511c-.15.2058-.4786.6546-.4942.6737a7.0493 7.0493 0 0 0-.1122.1457c-.1028.1363-.1447.1905-.1523.1971a2.1768 2.1768 0 0 0-.0672.086 10.9573 10.9573 0 0 1-.1378.1764c-.042.0526-.0758.0985-.0738.0982l2.392-.36-.7328-.2708 2.5267-.2652-1.7839.2958.4843.2981c.0338.0209.0345.0242.01.0266l-2.921.297c-.005.0006-.0553.0685-.1157.1435-.1144.1422-.248.3046-.2578.3133a5.9055 5.9055 0 0 0-.101.1213c-.0525.064-.1427.1708-.2004.2375l-.2274.2628a29.8734 29.8734 0 0 1-.5269.5918c-.1791.1962-.1658.1856-.2324.255a27.7087 27.7087 0 0 0-.3586.3836c-.4438.4511-.1273.1347-.5612.5737-.3378.3402-.6774.672-1.0214.9992-.056.0536-.1514.1429-.2121.1985a20.2473 20.2473 0 0 0-.1813.168 19.3533 19.3533 0 0 1-.27.2467 6.6349 6.6349 0 0 0-.1232.1095 15.882 15.882 0 0 1-.2393.2136 66.4826 66.4826 0 0 0-.1156.1011.1085.1085 0 0 1-.0156.0125h-.0002v-.0001c.001-.004.0507-.0545.1319-.1337.5525-.539.9017-.8925.8997-.916l-.2078-2.3526-1.2747.8572-.2525-3.4727.5657 2.7826 1.369-.9523-.1778 3.124c-.0008.0134.4572-.4544 1.0442-1.0824.0941-.1006.3445-.3723.3904-.4236l.1414-.1573c.215-.2389.4134-.462.4894-.5502l.1402-.1624c.034-.0392.1162-.1347.1828-.2122l.143-.1661c.0121-.014.0659-.0776.1195-.1415.0536-.064.1285-.1527.1663-.1971.0379-.0445.1542-.1855.2587-.3133.1044-.1279.3794-.4708.4709-.5851l.0951-.119-.0097-2.2601-.941.7736.4454-4.0218.0106 3.347.8908-.6635-.3774 2.793c-.0009.0065.1806-.2189.3494-.444.0953-.1257.1907-.2508.2837-.3781.0381-.0509.1228-.1669.1882-.2578.0654-.0909.1216-.1675.125-.1703.0712-.0929.1315-.194.2013-.288.0621-.089.1344-.1929.1606-.2309.3563-.5166.6651-1.004.8302-1.2798l.0935-.1563.4228-2.105-.7985.2683c.0247-.0983.8906-2.6686.8894-2.6627l-.473 2.316.7926-.3153-.81 2.4525c-.0014.004.058-.0864.0944-.1516.014-.025.0694-.1228.1233-.2173.1281-.225.1894-.3447.2123-.384.0558-.0958.3456-.6687.4347-.8591.5168-1.1055.8278-2.0332.9996-2.9816.0261-.1445.0663-.4252.081-.566.0152-.1442.0227-.2119.0256-.2156v-.0001z" style="display:inline;fill:#4e7a32;fill-opacity:1;stroke-width:.031553" transform="translate(-38.8124 -85.1113) scale(1.9859664)"/>
  <path d="m36.8286 45.534-.0001.0001c-.003.0038-.0105.0714-.0256.2156-.0147.1409-.0549.4216-.081.566-.1718.9484-.4828 1.8761-.9996 2.9816-.089.1905-.379.7633-.4348.859-.0229.0394-.084.1592-.2123.3841a47.3712 47.3712 0 0 0-.1232.2173c-.0364.0653-.0958.1556-.0945.1516l.8101-2.4525-.7926.3153.473-2.316c.0012-.0059-.8647 2.5644-.8894 2.6628l.7984-.2684-.4227 2.105-.0936.1563c-.165.2759-.4738.7633-.83 1.2799-.0263.038-.0986.1419-.1607.2308-.0698.094-.1302.1952-.2014.288-.0034.0029-.0596.0795-.125.1704s-.15.2069-.1882.2577c-.093.1273-.1883.2525-.2836.378-.1688.2252-.3503.4506-.3494.444l.3773-2.7929-.8907.6636-.0106-3.347-.4455 4.0217.941-.7736.0098 2.2602-.0952.119a115.663 115.663 0 0 1-.4709.585 30.6976 30.6976 0 0 1-.2586.3133 45.1674 45.1674 0 0 0-.1663.1971c-.0537.064-.1074.1276-.1195.1415l-.143.1661a115.2702 115.2702 0 0 1-.323.3746c-.076.0883-.2745.3114-.4894.5503-.0579.0642-.1215.135-.1414.1573-.046.0512-.2963.323-.3904.4236-.587.6279-1.045 1.0957-1.0442 1.0823l.1777-3.1239-1.369.9523-.5656-2.7826.2524 3.4727 1.2747-.8573.2078 2.3526c.0021.0235-.347.3771-.8997.916-.0812.0793-.1309.1298-.1319.1337v.0002H27.8886a.1097.1097 0 0 0 .0155-.0126l.1157-.101a15.903 15.903 0 0 0 .2393-.2136 6.617 6.617 0 0 1 .123-.1096c.018-.015.198-.179.2701-.2467.039-.0368.1206-.1124.1813-.168.0608-.0556.1562-.1449.2122-.1984.344-.3273.6836-.659 1.0214-.9992.434-.439.1174-.1226.5611-.5737.0501-.056.271-.2923.3587-.3837.0425-.0443.1785-.196.2324-.255.188-.2059.3672-.4072.5269-.5918l.2274-.2628c.0577-.0667.1479-.1735.2003-.2375.0525-.0639.098-.1185.101-.1212.0099-.0087.1435-.1711.2579-.3134.0603-.075.1107-.1429.1158-.1434l2.921-.297c.0244-.0025.0237-.0058-.0102-.0266l-.4842-.2982 1.7839-.2958-2.5268.2653.7328.2707-2.392.36c-.002.0004.0318-.0456.0739-.0982.042-.0525.104-.132.1378-.1764a2.1705 2.1705 0 0 1 .0671-.086c.0076-.0065.0495-.0608.1523-.197a7.0189 7.0189 0 0 1 .1122-.1458c.0157-.019.3444-.4678.4943-.6736.0417-.0573.1213-.1703.1769-.2512.0556-.0808.1183-.1719.1394-.2023.0332-.0478.0693-.0768.2698-.2092l1.2058-.7968-.1003 1.169c-.0005.0064 2.5541-2.2388 2.4722-2.1836l-2.2155 1.494.0471-1.0953-1.5462 1.4444c-.0222.0207.1174-.1817.3696-.5862.1099-.181.2213-.3607.331-.5432.1236-.2117.2478-.4233.3643-.6393a8.6775 8.6775 0 0 1 .0745-.1365c.0764-.1559.155-.3056.2359-.4566.1815-.3698.3443-.7311.3856-.827.036-.0833.0791-.1833.096-.222.0233-.0538.075-.131.2292-.317l.6699-.8072.1448.5597.6413-1.1186c.0914-.1594-.5289.684-.6297.767-.0105-.0113-.126-.6256-.1367-.6256-.4684.7318-.8242 1.3411-.8158 1.2937a.5487.5487 0 0 1 .0244-.0758c.158-.4022.3413-.9679.437-1.3492.1391-.5536.231-1.1813.2467-1.6829.002-.0649.0027-.1013.001-.1044v-.0001h-.0002zM28.7784 58.713s1.5618.0727 0 0z" style="display:inline;fill:#f3e852;stroke-width:.031553" transform="translate(-38.8124 -85.1113) scale(1.9859664)"/>
  <path d="m32.7871 56.1441.9799 1.0837-3.7722.3746 4.6693.1423-1.1246-1.1392 2.6819-.2675z" style="display:inline;fill:#f3e852;stroke-width:.031553" transform="translate(-38.8124 -85.1113) scale(1.9859664)"/>
  <path d="m30.2603 54.7286.4953-.4992.2786 1.8033-.0536-2.248-.5182.5703-.1986-1.2821z" style="display:inline;fill:#f3e852;stroke-width:.0151884" transform="translate(-38.8124 -85.1113) scale(1.9859664)"/>
</svg>
