<svg xmlns="http://www.w3.org/2000/svg" xml:space="preserve" width="111.82" height="116.165" viewBox="0 0 29.586 30.735"><path stroke="#000" stroke-linecap="round" stroke-linejoin="round" stroke-width=".079" d="M19.445.8c-.635-.164-1.27-.328-1.942-.46a15.917 15.917 0 0 0-2.144-.273c-.76-.044-1.57-.033-2.193.017a7.012 7.012 0 0 0-1.526.273 7.226 7.226 0 0 0-1.389.558c-.432.235-.804.52-1.132.787-.328.268-.613.52-.848.804a5.531 5.531 0 0 0-.607.952 8.36 8.36 0 0 0-.536 1.203c-.164.47-.306 1.028-.431 1.67-.126.643-.234 1.37-.152 1.682.082.311.354.208.627.02.273-.189.547-.462.935-.796S9 6.51 9.425 6.198c.427-.312.777-.542 1.094-.755.317-.213.602-.41.957-.596.356-.186.782-.36 1.121-.492.34-.131.59-.219.487-.115-.104.104-.563.4-.99.716-.426.318-.82.657-1.22 1.034-.399.377-.803.793-1.142 1.192-.34.4-.613.782-.799 1.04-.186.256-.284.388-.175.492.11.104.427.18.75.257.322.076.65.153 1.033.202.383.05.82.071 1.236.05.416-.023.81-.088 1.181-.203a4.472 4.472 0 0 0 1.116-.53c.394-.252.831-.591 1.192-.963s.646-.777.88-1.143c.236-.367.422-.695.597-1.116.175-.42.339-.935.498-1.41.158-.477.311-.914.492-1.264.18-.35.388-.613.678-.897.29-.284.662-.59 1.034-.897z"/><path d="M.004 3.478c-.005-.01-.014-.03.034-.053.047-.023.153-.05.294-.074.142-.025.32-.047.545-.067.226-.02.5-.04.755-.047.256-.007.493 0 .72.015.227.017.443.044.68.086.236.043.493.1.7.166.206.065.362.14.521.234.158.094.32.209.448.314.129.105.225.201.337.343a3.962 3.962 0 0 1 .351.533c.11.203.204.419.272.613.069.194.112.366.148.548.035.182.063.373.089.595.026.221.05.473.053.595.003.121-.016.113-.075.013s-.157-.29-.26-.463a4.012 4.012 0 0 0-.336-.483 5.47 5.47 0 0 0-.452-.49 8.983 8.983 0 0 0-.563-.498 4.63 4.63 0 0 0-.517-.37 6.531 6.531 0 0 0-.51-.278 2.817 2.817 0 0 0-.32-.138c-.095-.035-.202-.067-.273-.09-.071-.024-.107-.038-.146-.047a.916.916 0 0 0-.12-.02c-.038-.003-.068-.006-.048.019.019.024.087.076.207.156.12.079.293.186.478.324a8.204 8.204 0 0 1 .89.787c.12.125.265.28.426.491.162.21.34.476.483.716.143.241.253.457.316.61.063.153.079.244.073.296-.005.052-.032.065-.224.075-.191.01-.547.015-.802.007a3.137 3.137 0 0 1-.586-.066 4.39 4.39 0 0 1-.542-.146 4.266 4.266 0 0 1-.505-.216 3.067 3.067 0 0 1-.485-.289 2.415 2.415 0 0 1-.47-.463 2.907 2.907 0 0 1-.382-.676 7.08 7.08 0 0 1-.252-.794C.89 5 .835 4.798.776 4.639a2.373 2.373 0 0 0-.18-.376 2.616 2.616 0 0 0-.217-.327c-.103-.134-.244-.3-.307-.374C.01 3.488.01 3.488.004 3.478z"/><path d="M18.442 3.917a.371.371 0 0 0-.43.3.371.371 0 0 0 .299.43 12.769 12.769 0 0 1 10.517 11.934 12.767 12.767 0 0 1-9.27 12.926 12.767 12.767 0 0 1-14.675-6.133A12.767 12.767 0 0 1 7.567 7.696a.371.371 0 0 0 .029-.525.371.371 0 0 0-.523-.03 13.517 13.517 0 0 0-2.842 16.59c3.031 5.515 9.475 8.208 15.53 6.49s10.123-7.392 9.808-13.677A13.515 13.515 0 0 0 18.442 3.917z" overflow="visible"/><path d="M11.586 18.606a.363.363 0 0 1 .207-.064h.522a.365.365 0 0 1 .365.365c0 .342.415.514.657.272a.365.365 0 0 1 .516 0l.37.37a.365.365 0 0 1 0 .515.385.385 0 0 0 .272.657c.202 0 .365.164.365.365v.522a.365.365 0 0 1-.365.365.385.385 0 0 0-.272.657.365.365 0 0 1 0 .516l-.37.37a.365.365 0 0 1-.516 0 .385.385 0 0 0-.657.272.365.365 0 0 1-.365.365h-.522a.365.365 0 0 1-.365-.365.385.385 0 0 0-.657-.272.365.365 0 0 1-.516 0l-.37-.37a.365.365 0 0 1 0-.516.385.385 0 0 0-.271-.657.365.365 0 0 1-.365-.365v-.522a.365.365 0 0 1 .365-.365.385.385 0 0 0 .272-.657.365.365 0 0 1 0-.516l.37-.37a.365.365 0 0 1 .515 0 .385.385 0 0 0 .567-.023 5.911 5.911 0 0 1-.287-1.826 5.926 5.926 0 0 1 5.923-5.923 5.9 5.9 0 0 1 3.903 1.47 1.958 1.958 0 0 1 .053-1.12 1.966 1.966 0 0 1 1.362-1.256.194.194 0 0 1 .205.073 1.966 1.966 0 0 1-.927 3.021 5.898 5.898 0 0 1 1.327 3.735 5.926 5.926 0 0 1-5.923 5.923.193.193 0 0 1-.194-.194v-.924h-.317a.546.546 0 0 1-.545-.544v-.18h-.19a.568.568 0 0 1-.565-.566v-.804c0-.246.16-.456.38-.534-.108-1.003-.425-1.378-.668-1.768-.194-.313-.348-.634-.348-1.218a2.446 2.446 0 0 1 4.893 0c0 .584-.153.905-.348 1.218-.242.39-.56.765-.667 1.768.22.078.38.289.38.534v.804a.568.568 0 0 1-.567.566h-.189v.18a.546.546 0 0 1-.545.544h-.317v.728a5.54 5.54 0 0 0 5.159-6.954 1.965 1.965 0 0 1-2.822-1.501.193.193 0 0 1 .097-.195 1.966 1.966 0 0 1 1.956.012 5.532 5.532 0 0 0-4.583-2.432 5.539 5.539 0 0 0-5.388 6.814zm10.104-5.49a1.575 1.575 0 0 0 .715-.855 1.578 1.578 0 0 0-.145-1.347 1.578 1.578 0 0 0-.938 2.083l.381-1.09a.194.194 0 0 1 .366.127zm-5.762 6.358h2.091c.096-.916.351-1.358.587-1.725.22-.344.427-.612.427-1.229a2.06 2.06 0 0 0-4.119 0c0 .617.207.885.428 1.229.235.368.49.81.586 1.726zm6.1-4.154a1.575 1.575 0 0 0-.761-.813 1.579 1.579 0 0 0-1.355-.02c.1.452.398.856.845 1.076a1.575 1.575 0 0 0 1.109.107l-1.037-.51a.194.194 0 0 1 .17-.346zm-6.3 4.541a.18.18 0 0 0-.178.18v.803c0 .099.08.18.179.18h.383a.193.193 0 0 1 .193.193v.373c0 .087.071.158.158.158h1.021a.158.158 0 0 0 .158-.158v-.373a.193.193 0 0 1 .194-.194h.382a.18.18 0 0 0 .18-.179v-.804a.18.18 0 0 0-.18-.179zm1.295-1.997a.194.194 0 0 1-.332-.198l.57-.952h-.916a.193.193 0 0 1-.166-.293l.745-1.245a.194.194 0 0 1 .332.199l-.57.952h.917a.193.193 0 0 1 .166.293zm-7.388 3.244v.479a.772.772 0 0 1 .54 1.301l.338.339a.772.772 0 0 1 1.302.539h.479a.772.772 0 0 1 1.301-.539l.339-.339a.772.772 0 0 1 .539-1.301v-.48a.772.772 0 0 1-.54-1.3l-.338-.34a.772.772 0 0 1-1.301-.538h-.48a.772.772 0 0 1-1.3.539l-.34.339a.772.772 0 0 1-.539 1.3zm2.42 1.688a1.451 1.451 0 0 1-1.45-1.449c0-.798.651-1.448 1.45-1.448.797 0 1.448.65 1.448 1.448 0 .798-.651 1.449-1.449 1.449zm0-.387c.584 0 1.061-.477 1.061-1.062 0-.584-.477-1.061-1.062-1.061-.585 0-1.061.477-1.061 1.061 0 .585.476 1.062 1.061 1.062zm-.194-1.255v-.333a.194.194 0 0 1 .387 0v.333h.332a.194.194 0 0 1 0 .387h-.332v.332a.194.194 0 0 1-.387 0v-.332h-.333a.194.194 0 0 1 0-.387z"/></svg>