<svg xmlns="http://www.w3.org/2000/svg" xml:space="preserve" width="111.82" height="116.165" viewBox="0 0 29.586 30.735"><path stroke="#000" stroke-linecap="round" stroke-linejoin="round" stroke-width=".079" d="M19.445.8c-.635-.164-1.27-.328-1.942-.46A15.917 15.917 0 0 0 15.36.068c-.76-.044-1.57-.033-2.193.016a7.011 7.011 0 0 0-1.526.274 7.226 7.226 0 0 0-1.389.558c-.432.235-.804.52-1.132.787-.328.268-.612.52-.848.804a5.54 5.54 0 0 0-.607.952c-.186.35-.372.733-.536 1.203a12.3 12.3 0 0 0-.431 1.67c-.126.643-.234 1.37-.152 1.682.082.311.355.208.628.02.273-.189.546-.462.934-.796.389-.334.892-.727 1.318-1.039.427-.312.777-.542 1.094-.755.317-.213.602-.41.957-.596.356-.186.782-.36 1.121-.492.34-.131.591-.219.487-.115-.104.104-.563.4-.99.716-.426.318-.82.657-1.22 1.034-.399.377-.803.793-1.142 1.192-.34.4-.613.782-.799 1.04-.186.256-.284.388-.175.492.11.104.427.18.75.257.322.076.65.153 1.033.202.383.05.82.071 1.236.05.416-.023.81-.088 1.181-.203a4.465 4.465 0 0 0 1.116-.53c.394-.252.831-.591 1.192-.963s.646-.777.88-1.143c.236-.367.422-.695.597-1.116.175-.42.339-.935.498-1.41.158-.477.311-.914.492-1.264.18-.35.388-.613.678-.897.29-.285.662-.59 1.034-.897z"/><path d="M.004 3.478c-.005-.01-.014-.03.034-.053.047-.023.153-.05.294-.074.142-.025.32-.047.545-.067.226-.02.5-.04.755-.047.256-.007.493 0 .72.015.227.017.443.044.68.086.236.043.493.1.7.166.206.065.362.14.521.234.158.094.32.209.448.314.129.105.225.201.337.343a3.962 3.962 0 0 1 .351.533c.11.203.204.419.272.613.069.194.112.366.148.548.035.182.063.373.089.595.026.221.05.473.053.595.003.121-.016.113-.075.013s-.157-.29-.26-.463a4.012 4.012 0 0 0-.336-.483 5.47 5.47 0 0 0-.452-.49 8.983 8.983 0 0 0-.563-.498 4.63 4.63 0 0 0-.517-.37 6.531 6.531 0 0 0-.51-.278 2.817 2.817 0 0 0-.32-.138c-.095-.035-.202-.067-.273-.09-.071-.024-.107-.038-.146-.047a.916.916 0 0 0-.12-.02c-.038-.003-.068-.006-.048.019.019.024.087.076.207.156.12.079.293.186.478.324a8.204 8.204 0 0 1 .89.787c.12.125.265.28.426.491.162.21.34.476.483.716.143.241.253.457.316.61.063.153.079.244.073.296-.005.052-.032.065-.224.075-.191.01-.547.015-.802.007a3.137 3.137 0 0 1-.586-.066 4.39 4.39 0 0 1-.542-.146 4.266 4.266 0 0 1-.505-.216 3.067 3.067 0 0 1-.485-.289 2.415 2.415 0 0 1-.47-.463 2.907 2.907 0 0 1-.382-.676 7.08 7.08 0 0 1-.252-.794C.89 5 .835 4.798.776 4.639a2.373 2.373 0 0 0-.18-.376 2.616 2.616 0 0 0-.217-.327c-.103-.134-.244-.3-.307-.374C.01 3.488.01 3.488.004 3.478z"/><path d="M18.442 3.917a.371.371 0 0 0-.43.3.371.371 0 0 0 .299.43 12.769 12.769 0 0 1 10.518 11.934 12.767 12.767 0 0 1-9.27 12.926 12.767 12.767 0 0 1-14.676-6.133A12.767 12.767 0 0 1 7.567 7.696a.371.371 0 0 0 .03-.525.371.371 0 0 0-.524-.03 13.517 13.517 0 0 0-2.842 16.59 13.517 13.517 0 0 0 15.53 6.49 13.517 13.517 0 0 0 9.808-13.677A13.516 13.516 0 0 0 18.442 3.917z" overflow="visible"/><path d="M23.554 10.927H8.592a.241.241 0 0 1-.241-.242.241.241 0 0 1 .24-.24h14.963a.241.241 0 0 1 .241.24.241.241 0 0 1-.241.242z"/><path d="M16.069 17.443a.241.241 0 0 1-.241-.241v-6.517a.241.241 0 0 1 .241-.24.241.241 0 0 1 .241.24v6.517a.241.241 0 0 1-.241.241zm-4.58-2.899a.241.241 0 0 1-.242-.241v-3.618a.241.241 0 0 1 .241-.24.241.241 0 0 1 .242.24v3.618a.241.241 0 0 1-.242.241zm7.48 7.004h-5.792a.241.241 0 0 1-.241-.241.241.241 0 0 1 .241-.242h5.792a.241.241 0 0 1 .24.242.241.241 0 0 1-.24.24z"/><path d="M16.073 22.514c-.664 0-1.204-.54-1.204-1.205a.241.241 0 0 1 .241-.24.241.241 0 0 1 .242.24.723.723 0 0 0 1.443 0 .241.241 0 0 1 .241-.24.241.241 0 0 1 .241.24c0 .665-.54 1.205-1.204 1.205zm-2.896-.966a.241.241 0 0 1-.241-.241v-1.208a.241.241 0 0 1 .241-.241.241.241 0 0 1 .241.241v1.208a.241.241 0 0 1-.241.24zm5.792 0a.241.241 0 0 1-.242-.241v-1.208a.241.241 0 0 1 .242-.242.241.241 0 0 1 .241.242v1.208a.241.241 0 0 1-.241.24zm-2.896 2.654a.241.241 0 0 1-.241-.24v-.725a.241.241 0 0 1 .241-.241.241.241 0 0 1 .241.241v.724a.241.241 0 0 1-.24.241zm1.704-.696a.24.24 0 0 1-.17-.071l-.513-.512a.241.241 0 0 1 0-.341.241.241 0 0 1 .342 0l.511.512a.241.241 0 0 1-.17.412zm-3.408-.015a.24.24 0 0 1-.17-.07.241.241 0 0 1 0-.342l.51-.512a.241.241 0 0 1 .342 0 .241.241 0 0 1 0 .342l-.511.512a.24.24 0 0 1-.17.07zm-.95-7.016a.241.241 0 0 1-.241-.242c0-.93-.758-1.689-1.69-1.689-.93 0-1.689.758-1.689 1.69a.241.241 0 0 1-.241.24.241.241 0 0 1-.241-.24c0-1.198.974-2.173 2.171-2.173 1.198 0 2.172.975 2.172 2.172a.241.241 0 0 1-.241.242zm0 .483H9.558a.241.241 0 0 1-.241-.241.241.241 0 0 1 .24-.242h3.862a.241.241 0 0 1 .241.242.241.241 0 0 1-.241.24z"/><path d="M11.488 17.681a.966.966 0 0 1-.965-.965.241.241 0 0 1 .241-.242.241.241 0 0 1 .242.242c0 .266.216.482.482.482a.483.483 0 0 0 .483-.482.241.241 0 0 1 .241-.242.241.241 0 0 1 .242.242.966.966 0 0 1-.966.965zm9.17-3.137a.241.241 0 0 1-.242-.241v-3.618a.241.241 0 0 1 .241-.24.241.241 0 0 1 .242.24v3.618a.241.241 0 0 1-.242.241z"/><path d="M22.588 16.475a.241.241 0 0 1-.241-.242c0-.93-.758-1.689-1.69-1.689-.931 0-1.689.758-1.689 1.69a.241.241 0 0 1-.241.24.241.241 0 0 1-.242-.24c0-1.198.975-2.173 2.172-2.173s2.172.975 2.172 2.172a.241.241 0 0 1-.241.242zm-3.623 3.862a.241.241 0 0 1-.242-.24 2.658 2.658 0 0 0-2.654-2.656 2.658 2.658 0 0 0-2.655 2.655.241.241 0 0 1-.241.241.241.241 0 0 1-.241-.24c0-1.73 1.407-3.138 3.137-3.138s3.137 1.407 3.137 3.137a.241.241 0 0 1-.241.241zm3.623-3.38h-3.861a.241.241 0 0 1-.242-.24.241.241 0 0 1 .242-.242h3.86a.241.241 0 0 1 .242.242.241.241 0 0 1-.241.24z"/><path d="M20.657 17.681a.966.966 0 0 1-.965-.965.241.241 0 0 1 .241-.242.241.241 0 0 1 .241.242c0 .266.217.482.483.482a.483.483 0 0 0 .483-.482.241.241 0 0 1 .241-.242.241.241 0 0 1 .241.242.966.966 0 0 1-.965.965zm-11.1-.723a.241.241 0 0 1-.24-.241v-.484a.241.241 0 0 1 .24-.24.241.241 0 0 1 .242.24v.484a.241.241 0 0 1-.241.24zm3.862 0a.241.241 0 0 1-.241-.241v-.484a.241.241 0 0 1 .241-.24.241.241 0 0 1 .241.24v.484a.241.241 0 0 1-.241.24zm5.308 0a.241.241 0 0 1-.242-.241v-.484a.241.241 0 0 1 .242-.24.241.241 0 0 1 .241.24v.484a.241.241 0 0 1-.241.24zm3.86 0a.241.241 0 0 1-.24-.241v-.484a.241.241 0 0 1 .24-.24.241.241 0 0 1 .242.24v.484a.241.241 0 0 1-.241.24z"/></svg>