<svg xmlns="http://www.w3.org/2000/svg" xml:space="preserve" width="111.82" height="116.165" viewBox="0 0 29.586 30.735"><path d="m18.207 22.465.2.346c.014.022.022.036.05.044a.072.072 0 0 0 .055-.007l.274-.157a.2.2 0 0 1 .254.028 1.766 1.766 0 0 0 .833.484.202.202 0 0 1 .163.198v.326a.073.073 0 0 0 .072.072h.412a.072.072 0 0 0 .05-.02.07.07 0 0 0 .022-.052v-.326a.202.202 0 0 1 .153-.195 1.758 1.758 0 0 0 .454-.184 1.765 1.765 0 0 0 .39-.303.2.2 0 0 1 .243-.034l.273.157c.023.012.037.02.066.013a.073.073 0 0 0 .044-.034l.206-.355a.075.075 0 0 0-.028-.1l-.272-.158a.202.202 0 0 1-.102-.235 1.868 1.868 0 0 0 .05-.24 1.836 1.836 0 0 0 .017-.247c0-.086-.006-.168-.016-.247-.003-.02-.051-.24-.051-.24a.202.202 0 0 1 .093-.229l.281-.163a.071.071 0 0 0 .035-.044.072.072 0 0 0-.007-.055l-.206-.356a.072.072 0 0 0-.044-.034.071.071 0 0 0-.05.004l-.288.166a.2.2 0 0 1-.245-.034 1.779 1.779 0 0 0-.833-.485.2.2 0 0 1-.163-.197v-.326a.07.07 0 0 0-.021-.051.07.07 0 0 0-.051-.022h-.412a.072.072 0 0 0-.05.022.073.073 0 0 0-.022.05v.327a.201.201 0 0 1-.152.195 1.763 1.763 0 0 0-.455.184 1.786 1.786 0 0 0-.384.298.202.202 0 0 1-.25.039l-.283-.164a.076.076 0 0 0-.1.028c-.067.117-.136.25-.209.364a.071.071 0 0 0-.002.047.07.07 0 0 0 .027.04c.092.05.188.11.28.162a.201.201 0 0 1 .102.235 1.66 1.66 0 0 0-.051.24 1.71 1.71 0 0 0-.017.246c0 .086.005.169.017.247a1.644 1.644 0 0 0 .051.24.203.203 0 0 1-.094.23l-.27.156c-.023.015-.037.022-.045.051a.075.075 0 0 0 .006.055zm-6.955-1.662c0-.111.091-.201.202-.201a.202.202 0 0 1 .202.2v.95c0 .247-.1.47-.263.633a.893.893 0 0 1-.631.262.895.895 0 0 1-.632-.262.895.895 0 0 1-.262-.632v-2.638a.759.759 0 0 1-.333-.195.754.754 0 0 1-.222-.534c0-.208.085-.397.222-.533a.754.754 0 0 1 .534-.223h.075v-3.519a.884.884 0 0 1-.138-.431l-.137-1.37a.203.203 0 0 1 .2-.221h1.385a.201.201 0 0 1 .198.237l-.134 1.354a.891.891 0 0 1-.14.43v3.52h.076c.208 0 .397.085.534.223a.75.75 0 0 1 .222.533.75.75 0 0 1-.222.534.76.76 0 0 1-.332.195v.775a.202.202 0 0 1-.202.201.202.202 0 0 1-.201-.2v-.749h-.982v2.61a.489.489 0 0 0 .144.347.491.491 0 0 0 .347.145.49.49 0 0 0 .347-.145.489.489 0 0 0 .144-.346v-.95Zm-.276-6.402a.765.765 0 0 1-.214.03.761.761 0 0 1-.214-.03v3.23h.428zm-.685-1.91.114 1.149c.013.124.003.18.108.285a.35.35 0 0 0 .497 0c.088-.087.095-.158.106-.269l.116-1.164Zm1.163 5.543H10.07a.352.352 0 0 0-.25.104.35.35 0 0 0 0 .497.353.353 0 0 0 .25.103h1.385a.352.352 0 0 0 .25-.103.35.35 0 0 0 0-.497.352.352 0 0 0-.25-.104zm3.96-3.665a.202.202 0 0 1 0-.403h2.427a.202.202 0 0 1 0 .403zm.974 5.976a.202.202 0 0 1-.202-.202.201.201 0 0 1 .202-.2h.897a.202.202 0 0 1 .202.2.202.202 0 0 1-.202.202zm0 .822a.201.201 0 0 1-.202-.201.202.202 0 0 1 .202-.202h.98a.202.202 0 0 1 .202.202.202.202 0 0 1-.202.2zm0-3.138a.201.201 0 0 1-.202-.201c0-.112.09-.202.202-.202h2.953a.201.201 0 0 1 .201.202.201.201 0 0 1-.2.2zm0 .822a.202.202 0 0 1-.202-.202.201.201 0 0 1 .202-.2h2.213a.202.202 0 0 1 .202.2.202.202 0 0 1-.202.202zm0-3.138a.202.202 0 0 1-.202-.202.202.202 0 0 1 .202-.202h2.953c.111 0 .201.09.201.202a.202.202 0 0 1-.2.202zm0 .822a.201.201 0 0 1-.202-.202.201.201 0 0 1 .202-.201h2.213a.202.202 0 1 1 0 .403zm-2.33 3.14h1.357a.202.202 0 0 1 .201.2v1.358a.202.202 0 0 1-.201.201h-1.357a.202.202 0 0 1-.202-.2v-1.358c0-.111.09-.201.202-.201zm1.156.403h-.954v.953h.954zm-1.156-2.72h1.357a.202.202 0 0 1 .201.202v1.357a.202.202 0 0 1-.201.202h-1.357a.202.202 0 0 1-.202-.202V17.56a.202.202 0 0 1 .202-.202zm1.156.403h-.954v.954h.954zm-1.156-2.718h1.357a.202.202 0 0 1 .201.2V16.6a.202.202 0 0 1-.201.202h-1.357a.202.202 0 0 1-.202-.202v-1.356c0-.111.09-.201.202-.201zm1.156.403h-.954v.953h.954zm5.136 4.827a.2.2 0 0 1 .282-.034.2.2 0 0 1 .032.282l-.527.667.754.333a.201.201 0 0 1 .103.265.205.205 0 0 1-.036.057l-.68.857a.2.2 0 0 1-.282.033.2.2 0 0 1-.032-.282l.528-.666-.755-.333a.215.215 0 0 1-.043-.027.201.201 0 0 1-.034-.282zm-2.501 2.374h-4.223a.884.884 0 0 1-.626-.26.883.883 0 0 1-.26-.627v-8.785a.884.884 0 0 1 .26-.626.884.884 0 0 1 .626-.26h.79a1.03 1.03 0 0 1 1.004-.822h.203a1.023 1.023 0 0 1 .28-.523 1.02 1.02 0 0 1 1.449 0c.14.14.24.32.28.523h.203a1.02 1.02 0 0 1 1.004.822h.79a.884.884 0 0 1 .626.26.884.884 0 0 1 .26.626v2.542a.202.202 0 0 1-.402 0v-2.542a.483.483 0 0 0-.142-.34.483.483 0 0 0-.342-.143h-.79a1.02 1.02 0 0 1-.28.521 1.018 1.018 0 0 1-.724.301h-.75a.202.202 0 0 1-.202-.202c0-.11.09-.2.201-.2h.751c.17 0 .326-.07.438-.184a.618.618 0 0 0 .183-.438.62.62 0 0 0-.183-.438.622.622 0 0 0-.438-.182h-.385a.202.202 0 0 1-.202-.202.619.619 0 0 0-.181-.439.62.62 0 0 0-.44-.182.618.618 0 0 0-.438.182.619.619 0 0 0-.182.439.202.202 0 0 1-.202.202h-.385a.62.62 0 0 0-.438.182.62.62 0 0 0-.183.438c0 .171.07.326.183.438a.618.618 0 0 0 .438.183h.751a.202.202 0 0 1 .202.201.202.202 0 0 1-.202.202h-.751c-.282 0-.538-.115-.723-.3a1.027 1.027 0 0 1-.281-.522h-.79a.483.483 0 0 0-.341.142.483.483 0 0 0-.143.341v8.785c0 .133.055.254.143.342a.483.483 0 0 0 .341.142h4.207a.477.477 0 0 1 .211-.233l.141-.08a2.075 2.075 0 0 1-.024-.143 2.116 2.116 0 0 1-.022-.302c0-.1.007-.2.022-.302a2.136 2.136 0 0 1 .024-.141l-.163-.094a.475.475 0 0 1-.156-.653l.2-.345a.475.475 0 0 1 .287-.222.478.478 0 0 1 .361.048l.152.087a2.181 2.181 0 0 1 .767-.444v-.174a.476.476 0 0 1 .48-.476v-2.34a.202.202 0 0 1 .403 0v2.34c.129 0 .248.048.34.14a.476.476 0 0 1 .14.336v.174a2.208 2.208 0 0 1 .766.444l.153-.087a.477.477 0 0 1 .36-.048.477.477 0 0 1 .288.222l.206.355a.476.476 0 0 1-.174.65l-.151.087a2.24 2.24 0 0 1 .046.443 2.232 2.232 0 0 1-.046.443l.151.088a.473.473 0 0 1 .221.289.475.475 0 0 1-.047.36l-.206.356a.471.471 0 0 1-.288.222.47.47 0 0 1-.371-.055l-.141-.081a2.147 2.147 0 0 1-.362.262 2.154 2.154 0 0 1-.405.182v.175c0 .131-.054.25-.14.336a.474.474 0 0 1-.336.14h-.412a.474.474 0 0 1-.336-.14.474.474 0 0 1-.139-.336v-.175a2.131 2.131 0 0 1-.405-.182 2.117 2.117 0 0 1-.362-.262l-.151.087a.474.474 0 0 1-.362.048.471.471 0 0 1-.294-.232c-.068-.119-.147-.244-.21-.364z"/><path stroke="#000" stroke-linecap="round" stroke-linejoin="round" stroke-width=".079" d="M19.445.8c-.635-.164-1.27-.328-1.942-.46a15.913 15.913 0 0 0-2.144-.273c-.76-.044-1.57-.033-2.193.017a7.01 7.01 0 0 0-1.526.273 7.233 7.233 0 0 0-1.389.558c-.432.235-.804.52-1.132.787-.328.268-.612.52-.848.804-.235.285-.42.602-.607.952s-.372.733-.536 1.203c-.164.47-.306 1.028-.431 1.67-.126.643-.234 1.37-.152 1.682.082.311.355.208.628.02.273-.189.546-.462.934-.796.389-.333.892-.727 1.318-1.039.427-.312.777-.541 1.094-.755.317-.213.602-.41.957-.596.356-.186.782-.36 1.121-.492.34-.131.591-.219.487-.115-.104.104-.563.4-.99.717-.426.317-.82.656-1.22 1.033-.399.378-.803.793-1.142 1.192-.34.4-.613.782-.799 1.04-.186.257-.284.388-.175.492.11.104.427.18.75.257.322.076.65.153 1.033.202.383.05.82.071 1.236.05.416-.023.81-.088 1.181-.203a4.476 4.476 0 0 0 1.116-.53 6.87 6.87 0 0 0 1.192-.963c.361-.372.646-.777.88-1.143.236-.366.422-.695.597-1.116.175-.42.339-.935.498-1.41.158-.477.311-.914.492-1.264.18-.35.388-.613.678-.897.29-.284.662-.59 1.034-.897z"/><path d="M.004 3.478c-.005-.01-.014-.03.034-.053.047-.023.153-.05.294-.074.142-.025.32-.047.545-.067.226-.02.5-.04.755-.047.256-.007.493 0 .72.015.227.017.443.044.68.086.236.043.493.1.7.166.206.065.362.14.521.234.158.094.32.209.448.314.129.105.225.201.337.343a3.962 3.962 0 0 1 .351.533c.11.203.204.419.272.613.069.194.112.366.148.548.035.182.063.373.089.595.026.221.05.473.053.595.003.121-.016.113-.075.013s-.157-.29-.26-.463a4.012 4.012 0 0 0-.336-.483 5.47 5.47 0 0 0-.452-.49 8.983 8.983 0 0 0-.563-.498 4.63 4.63 0 0 0-.517-.37 6.531 6.531 0 0 0-.51-.278 2.817 2.817 0 0 0-.32-.138c-.095-.035-.202-.067-.273-.09-.071-.024-.107-.038-.146-.047a.916.916 0 0 0-.12-.02c-.038-.003-.068-.006-.048.019.019.024.087.076.207.156.12.079.293.186.478.324a8.204 8.204 0 0 1 .89.787c.12.125.265.28.426.491.162.21.34.476.483.716.143.241.253.457.316.61.063.153.079.244.073.296-.005.052-.032.065-.224.075-.191.01-.547.015-.802.007a3.137 3.137 0 0 1-.586-.066 4.39 4.39 0 0 1-.542-.146 4.266 4.266 0 0 1-.505-.216 3.067 3.067 0 0 1-.485-.289 2.415 2.415 0 0 1-.47-.463 2.907 2.907 0 0 1-.382-.676 7.08 7.08 0 0 1-.252-.794C.89 5 .835 4.798.776 4.639a2.373 2.373 0 0 0-.18-.376 2.616 2.616 0 0 0-.217-.327c-.103-.134-.244-.3-.307-.374C.01 3.488.01 3.488.004 3.478z"/><path d="M18.442 3.917a.371.371 0 0 0-.43.3.371.371 0 0 0 .299.43 12.769 12.769 0 0 1 10.518 11.934 12.767 12.767 0 0 1-9.27 12.926 12.767 12.767 0 0 1-14.676-6.133A12.767 12.767 0 0 1 7.567 7.696a.371.371 0 0 0 .03-.525.371.371 0 0 0-.524-.03 13.518 13.518 0 0 0-2.842 16.59c3.032 5.515 9.475 8.208 15.53 6.49s10.123-7.392 9.808-13.677A13.515 13.515 0 0 0 18.442 3.917z" overflow="visible"/></svg>