<svg xmlns="http://www.w3.org/2000/svg" xml:space="preserve" width="111.82" height="116.165" viewBox="0 0 29.586 30.735"><path stroke="#000" stroke-linecap="round" stroke-linejoin="round" stroke-width=".079" d="M19.445.8c-.635-.164-1.27-.328-1.942-.46a15.915 15.915 0 0 0-2.144-.273c-.76-.044-1.57-.033-2.193.016a7.01 7.01 0 0 0-1.526.274 7.233 7.233 0 0 0-1.389.558c-.432.235-.804.52-1.132.787-.328.268-.612.52-.848.804a5.534 5.534 0 0 0-.607.952 8.36 8.36 0 0 0-.536 1.203 12.27 12.27 0 0 0-.431 1.67c-.126.643-.234 1.37-.152 1.682.082.311.354.208.628.02.273-.189.546-.462.934-.796.389-.334.892-.727 1.318-1.039.427-.312.777-.542 1.094-.755.317-.213.602-.41.957-.596.356-.186.782-.36 1.121-.492.34-.131.59-.219.487-.115-.104.104-.563.4-.99.716-.426.318-.82.657-1.22 1.034-.399.377-.803.793-1.142 1.192-.34.4-.613.782-.799 1.04-.186.256-.284.388-.175.492.11.104.427.18.75.257.322.076.65.153 1.033.202.383.05.82.071 1.236.05a4.85 4.85 0 0 0 1.181-.203 4.465 4.465 0 0 0 1.116-.53c.394-.252.831-.591 1.192-.963a7.21 7.21 0 0 0 .88-1.143 6.78 6.78 0 0 0 .597-1.116c.175-.42.339-.935.498-1.41.158-.477.311-.914.492-1.264.18-.35.388-.613.678-.897.29-.285.662-.59 1.034-.897z"/><path d="M.004 3.478c-.005-.01-.014-.03.034-.053.047-.023.153-.05.294-.074.142-.025.32-.047.545-.067.226-.02.5-.04.755-.047.256-.007.493 0 .72.015.227.017.443.044.68.086.236.043.493.1.7.166.206.065.362.14.521.234.158.094.32.209.448.314.129.105.225.201.337.343a3.962 3.962 0 0 1 .351.533c.11.203.204.419.272.613.069.194.112.366.148.548.035.182.063.373.089.595.026.221.05.473.053.595.003.121-.016.113-.075.013s-.157-.29-.26-.463a4.012 4.012 0 0 0-.336-.483 5.47 5.47 0 0 0-.452-.49 8.983 8.983 0 0 0-.563-.498 4.63 4.63 0 0 0-.517-.37 6.531 6.531 0 0 0-.51-.278 2.817 2.817 0 0 0-.32-.138c-.095-.035-.202-.067-.273-.09-.071-.024-.107-.038-.146-.047a.916.916 0 0 0-.12-.02c-.038-.003-.068-.006-.048.019.019.024.087.076.207.156.12.079.293.186.478.324a8.204 8.204 0 0 1 .89.787c.12.125.265.28.426.491.162.21.34.476.483.716.143.241.253.457.316.61.063.153.079.244.073.296-.005.052-.032.065-.224.075-.191.01-.547.015-.802.007a3.137 3.137 0 0 1-.586-.066 4.39 4.39 0 0 1-.542-.146 4.266 4.266 0 0 1-.505-.216 3.067 3.067 0 0 1-.485-.289 2.415 2.415 0 0 1-.47-.463 2.907 2.907 0 0 1-.382-.676 7.08 7.08 0 0 1-.252-.794C.89 5 .835 4.798.776 4.639a2.373 2.373 0 0 0-.18-.376 2.616 2.616 0 0 0-.217-.327c-.103-.134-.244-.3-.307-.374C.01 3.488.01 3.488.004 3.478z"/><path d="M18.442 3.917a.371.371 0 0 0-.43.3.371.371 0 0 0 .299.43 12.769 12.769 0 0 1 10.517 11.934 12.767 12.767 0 0 1-9.27 12.926 12.767 12.767 0 0 1-14.675-6.133A12.767 12.767 0 0 1 7.567 7.696a.371.371 0 0 0 .029-.525.371.371 0 0 0-.523-.03 13.517 13.517 0 0 0-2.842 16.59 13.517 13.517 0 0 0 15.53 6.49 13.517 13.517 0 0 0 9.808-13.677A13.516 13.516 0 0 0 18.442 3.917z" overflow="visible"/><path d="M15.096 19.74c.115-.408.674-2.05.674-2.05l-.9-.719 2.39-2.064-.784 1.996.953.69zm-3.17 1.282L10.781 22v1.802a2.348 2.348 0 0 1 .253-4.22v-4.518a2.347 2.347 0 0 1-.252-4.219v1.802l1.144.977 1.145-.977v-1.802a2.347 2.347 0 0 1-.253 4.219v4.518a2.348 2.348 0 0 1 .254 4.22V22zm3.412-10.165a.413.413 0 0 1 .102-.012h1.295c.235 0 .426.19.426.425 0 1.277 1.545 1.916 2.448 1.014a.426.426 0 0 1 .602 0l.916.917a.425.425 0 0 1 0 .601c-.903.902-.262 2.448 1.014 2.448a.425.425 0 0 1 .425.425v1.296a.425.425 0 0 1-.425.425c-1.276 0-1.916 1.546-1.014 2.448a.426.426 0 0 1 0 .602l-.916.916a.426.426 0 0 1-.602 0c-.903-.902-2.448-.261-2.448 1.014a.425.425 0 0 1-.426.426H15.44a.446.446 0 0 1-.102-.013v-2.937a3.614 3.614 0 0 0 4.357-3.528 3.614 3.614 0 0 0-4.357-3.528z"/></svg>