<svg
            width="111.820"
            height="116.165"
            viewBox="0 0 29.585 30.735"
            version="1.1"
            xmlns="http://www.w3.org/2000/svg"
        >
            
            <g
                id="layer1"
                style="display:inline"
                transform="translate(-70.251,-94.043)"
            >
                
                <path
                    style="display:inline;fill:currentColor;fill-opacity:1;stroke:currentColor;stroke-width:0.079;stroke-linecap:round;stroke-linejoin:round;stroke-dasharray:none"
                    d="m 89.696,94.843 c -0.634,-0.164 -1.268,-0.328 -1.941,-0.459 -0.672,-0.131 -1.383,-0.229 -2.143,-0.273 -0.760,-0.043 -1.569,-0.032 -2.193,0.016 -0.623,0.049 -1.061,0.136 -1.525,0.273 -0.464,0.136 -0.957,0.322 -1.389,0.557 -0.432,0.235 -0.803,0.519 -1.132,0.787 -0.328,0.267 -0.612,0.519 -0.847,0.803 -0.235,0.284 -0.421,0.601 -0.607,0.951 -0.185,0.350 -0.371,0.732 -0.535,1.203 -0.164,0.470 -0.306,1.028 -0.431,1.670 -0.125,0.642 -0.233,1.369 -0.151,1.680 0.082,0.311 0.354,0.208 0.627,0.02 0.273,-0.188 0.546,-0.461 0.934,-0.795 0.388,-0.333 0.891,-0.727 1.318,-1.039 0.426,-0.311 0.776,-0.541 1.093,-0.754 0.317,-0.213 0.601,-0.410 0.957,-0.596 0.355,-0.185 0.782,-0.360 1.121,-0.492 0.339,-0.131 0.590,-0.218 0.486,-0.114 -0.103,0.103 -0.563,0.399 -0.989,0.716 -0.426,0.317 -0.820,0.656 -1.219,1.033 -0.399,0.377 -0.803,0.793 -1.143,1.192 -0.339,0.399 -0.612,0.782 -0.798,1.039 -0.185,0.257 -0.284,0.388 -0.175,0.492 0.109,0.103 0.426,0.180 0.749,0.257 0.322,0.076 0.650,0.153 1.033,0.202 0.382,0.049 0.820,0.071 1.235,0.049 0.415,-0.021 0.809,-0.087 1.181,-0.202 0.371,-0.114 0.721,-0.278 1.115,-0.530 0.393,-0.251 0.831,-0.590 1.192,-0.962 0.360,-0.371 0.645,-0.776 0.880,-1.143 0.235,-0.366 0.421,-0.694 0.596,-1.115 0.175,-0.421 0.339,-0.935 0.497,-1.410 0.158,-0.475 0.311,-0.913 0.492,-1.263 0.180,-0.350 0.388,-0.612 0.678,-0.896 0.289,-0.284 0.661,-0.590 1.033,-0.896 z"
                    id="path4-0-09"></path>

                <path
                    style="display:inline;fill:currentColor;fill-opacity:1;stroke:none;stroke-width:35.8;stroke-opacity:1"
                    d="m 88.560,132.994 c -0.004,-0.01 -0.014,-0.029 0.033,-0.052 0.047,-0.023 0.153,-0.050 0.294,-0.074 0.141,-0.024 0.319,-0.046 0.544,-0.066 0.225,-0.020 0.499,-0.039 0.754,-0.046 0.255,-0.007 0.493,-0.001 0.720,0.015 0.226,0.016 0.442,0.043 0.679,0.086 0.236,0.042 0.493,0.099 0.700,0.165 0.206,0.065 0.362,0.139 0.520,0.233 0.158,0.094 0.319,0.209 0.448,0.314 0.128,0.105 0.224,0.200 0.336,0.343 0.112,0.142 0.240,0.330 0.351,0.533 0.110,0.202 0.203,0.418 0.272,0.612 0.068,0.194 0.112,0.366 0.147,0.548 0.035,0.181 0.062,0.373 0.088,0.594 0.025,0.221 0.050,0.473 0.053,0.594 0.002,0.121 -0.016,0.113 -0.075,0.013 -0.058,-0.099 -0.157,-0.291 -0.259,-0.463 -0.102,-0.172 -0.209,-0.325 -0.336,-0.482 -0.127,-0.157 -0.274,-0.318 -0.451,-0.489 -0.176,-0.170 -0.381,-0.351 -0.563,-0.499 -0.181,-0.147 -0.340,-0.262 -0.516,-0.370 -0.176,-0.108 -0.370,-0.209 -0.509,-0.277 -0.139,-0.068 -0.224,-0.103 -0.319,-0.138 -0.095,-0.034 -0.202,-0.067 -0.273,-0.090 -0.071,-0.023 -0.106,-0.036 -0.146,-0.046 -0.039,-0.01 -0.083,-0.015 -0.120,-0.019 -0.036,-0.004 -0.066,-0.007 -0.047,0.017 0.019,0.024 0.087,0.076 0.207,0.155 0.120,0.079 0.292,0.185 0.477,0.324 0.184,0.138 0.381,0.307 0.527,0.438 0.146,0.131 0.241,0.224 0.362,0.348 0.120,0.124 0.265,0.280 0.426,0.490 0.161,0.210 0.339,0.475 0.482,0.716 0.143,0.240 0.252,0.456 0.315,0.609 0.062,0.153 0.079,0.243 0.073,0.295 -0.005,0.052 -0.032,0.065 -0.224,0.075 -0.191,0.010 -0.546,0.015 -0.802,0.007 -0.255,-0.008 -0.411,-0.030 -0.585,-0.065 -0.173,-0.035 -0.365,-0.084 -0.542,-0.146 -0.177,-0.061 -0.341,-0.135 -0.504,-0.216 -0.162,-0.080 -0.324,-0.168 -0.485,-0.288 -0.161,-0.120 -0.322,-0.273 -0.468,-0.463 -0.146,-0.190 -0.277,-0.417 -0.382,-0.675 -0.105,-0.258 -0.184,-0.548 -0.251,-0.794 -0.067,-0.246 -0.121,-0.448 -0.180,-0.607 -0.058,-0.158 -0.121,-0.273 -0.180,-0.375 -0.058,-0.102 -0.113,-0.192 -0.216,-0.327 -0.103,-0.134 -0.243,-0.299 -0.306,-0.373 -0.063,-0.074 -0.063,-0.074 -0.068,-0.084 z"
                    id="path1-2-36"
                    transform="translate(-18.304,-35.472)"></path>

                <path
                    style="baseline-shift:baseline;display:inline;overflow:visible;fill:currentColor;fill-opacity:1;stroke:none;stroke-width:0.793;stroke-linecap:round;stroke-linejoin:round;stroke-dasharray:none;stroke-opacity:1;enable-background:accumulate;stop-color:currentColor"
                    d="m 88.693,97.960 a 0.371,0.371 0 0 0 -0.429,0.300 0.371,0.371 0 0 0 0.298,0.429 c 5.859,1.043 10.219,5.989 10.517,11.933 0.297,5.943 -3.544,11.301 -9.269,12.925 -5.725,1.623 -11.808,-0.917 -14.675,-6.132 -2.867,-5.215 -1.755,-11.713 2.683,-15.677 a 0.371,0.371 0 0 0 0.029,-0.525 0.371,0.371 0 0 0 -0.523,-0.029 c -4.693,4.191 -5.873,11.075 -2.841,16.589 3.031,5.514 9.475,8.207 15.529,6.490 6.054,-1.717 10.123,-7.392 9.808,-13.677 -0.315,-6.285 -4.931,-11.523 -11.126,-12.626 z"
                    id="path3-3-0"></path>

                
                <g
                    transform="translate(86.8, 111.7) scale(0.6) translate(-12,-12)"
                    fill="none"
                    stroke="currentColor"
                    stroke-linecap="round"
                    stroke-linejoin="round"
                    stroke-width="2"
                >
                    <svg xmlns="http://www.w3.org/2000/svg" width="24" height="24" viewBox="0 0 24 24">
                        <mask id="SVGB7PXYcVT">
                            <g fill="none" stroke="#fff" stroke-linecap="round" stroke-linejoin="round" stroke-width="2">
                                <path d="M12 3c4.97 0 9 4.03 9 9c0 4.97 -4.03 9 -9 9c-4.97 0 -9 -4.03 -9 -9c0 -4.97 4.03 -9 9 -9Z"/>
                                <path fill="#fff" stroke="none" d="M10.2 10.2L17 7L13.8 13.8L7 17z" transform="rotate(-180 12 12)">
                                    <animateTransform
                                        attributeName="transform"
                                        dur="9s"
                                        repeatCount="indefinite"
                                        type="rotate"
                                        values="-180 12 12;0 12 12;0 12 12;0 12 12;0 12 12;270 12 12;-90 12 12;0 12 12;-180 12 12;-35 12 12;-40 12 12;-45 12 12;-45 12 12;-110 12 12;-135 12 12;-180 12 12"
                                    />
                                </path>
                                <circle cx="12" cy="12" r="1" fill="currentColor" fill-opacity="1" stroke="none"/>
                            </g>
                        </mask>
                        <rect width="24" height="24" fill="currentColor" mask="url(#SVGB7PXYcVT)"/>
                    </svg>
                </g>
            </g>
        </svg>
