<svg xmlns="http://www.w3.org/2000/svg" xml:space="preserve" width="111.82" height="116.165" viewBox="0 0 29.586 30.735"><path stroke="#000" stroke-linecap="round" stroke-linejoin="round" stroke-width=".079" d="M19.445.8c-.635-.164-1.27-.328-1.942-.46A15.917 15.917 0 0 0 15.36.068c-.76-.044-1.57-.033-2.193.016a7.005 7.005 0 0 0-1.526.274 7.226 7.226 0 0 0-1.389.558c-.432.235-.804.52-1.132.787-.328.268-.613.52-.848.804-.235.285-.42.602-.607.952s-.372.733-.536 1.203c-.164.47-.306 1.028-.431 1.67-.126.643-.234 1.37-.152 1.681.082.312.354.209.627.02s.547-.461.935-.795S9 6.51 9.425 6.198c.427-.312.777-.542 1.094-.755.317-.213.602-.41.957-.596a11.49 11.49 0 0 1 1.121-.492c.34-.131.591-.219.487-.115-.104.104-.563.4-.99.716-.426.318-.82.657-1.22 1.034-.399.377-.803.793-1.142 1.192-.34.4-.613.782-.799 1.04-.186.256-.284.388-.175.492.11.104.427.18.75.257.322.076.65.153 1.033.202.383.05.82.071 1.236.05.416-.023.81-.088 1.181-.203a4.472 4.472 0 0 0 1.116-.53 6.87 6.87 0 0 0 1.192-.963 7.21 7.21 0 0 0 .88-1.143c.236-.367.422-.695.597-1.116.175-.421.339-.935.497-1.41.16-.477.312-.914.493-1.264.18-.35.388-.613.678-.897.29-.285.662-.59 1.034-.897z"/><path d="M.004 3.478c-.005-.01-.014-.03.034-.053.047-.023.153-.05.294-.074.142-.025.32-.047.545-.067.226-.02.5-.04.755-.047.256-.007.493 0 .72.015.227.017.443.044.68.086.236.043.493.1.7.166.206.065.362.14.521.234.158.094.32.209.448.314.129.105.225.201.337.343a3.962 3.962 0 0 1 .351.533c.11.203.204.419.272.613.069.194.112.366.148.548.035.182.063.373.089.595.026.221.05.473.053.595.003.121-.016.113-.075.013s-.157-.29-.26-.463a4.012 4.012 0 0 0-.336-.483 5.47 5.47 0 0 0-.452-.49 8.983 8.983 0 0 0-.563-.498 4.63 4.63 0 0 0-.517-.37 6.531 6.531 0 0 0-.51-.278 2.817 2.817 0 0 0-.32-.138c-.095-.035-.202-.067-.273-.09-.071-.024-.107-.038-.146-.047a.916.916 0 0 0-.12-.02c-.038-.003-.068-.006-.048.019.019.024.087.076.207.156.12.079.293.186.478.324a8.204 8.204 0 0 1 .89.787c.12.125.265.28.426.491.162.21.34.476.483.716.143.241.253.457.316.61.063.153.079.244.073.296-.005.052-.032.065-.224.075-.191.01-.547.015-.802.007a3.137 3.137 0 0 1-.586-.066 4.39 4.39 0 0 1-.542-.146 4.266 4.266 0 0 1-.505-.216 3.067 3.067 0 0 1-.485-.289 2.415 2.415 0 0 1-.47-.463 2.907 2.907 0 0 1-.382-.676 7.08 7.08 0 0 1-.252-.794C.89 5 .835 4.798.776 4.639a2.373 2.373 0 0 0-.18-.376 2.616 2.616 0 0 0-.217-.327c-.103-.134-.244-.3-.307-.374C.01 3.488.01 3.488.004 3.478z"/><path d="M18.442 3.917a.371.371 0 0 0-.43.3.371.371 0 0 0 .299.43 12.769 12.769 0 0 1 10.518 11.934 12.767 12.767 0 0 1-9.27 12.926 12.767 12.767 0 0 1-14.676-6.133A12.767 12.767 0 0 1 7.567 7.696a.371.371 0 0 0 .03-.525.371.371 0 0 0-.524-.03 13.517 13.517 0 0 0-2.842 16.59 13.517 13.517 0 0 0 15.53 6.49 13.517 13.517 0 0 0 9.808-13.677A13.515 13.515 0 0 0 18.442 3.917z" overflow="visible"/><path d="M22.682 18.425v-1.101h-.441v1.101h-.44v-1.101h-.441v1.101h-.44v-1.101h-.441v1.101a.22.22 0 0 0-.22.22v.882a1.322 1.322 0 0 0 1.1 1.301v.257a1.542 1.542 0 0 0 .221 3.068v-.44a1.101 1.101 0 0 1 0-2.204.22.22 0 0 0 .22-.22v-.461a1.322 1.322 0 0 0 1.102-1.301v-.882a.22.22 0 0 0-.22-.22zm-.22 1.102a.881.881 0 0 1-1.763 0v-.661h1.762zM17.73 13.11l2.243 1.224-1.016 2.237a.22.22 0 0 0 .339.262l3.524-2.864a.22.22 0 0 0-.063-.378l-2.228-.81.601-2.005a.22.22 0 0 0-.339-.242l-3.084 2.203a.22.22 0 0 0 .022.372zm2.793-1.843-.476 1.587a.22.22 0 0 0 .136.27l2.058.748-2.496 2.028.714-1.57a.22.22 0 0 0-.095-.285l-2.115-1.153zm-2.864 7.823-1.806-.402v-.773a1.977 1.977 0 0 0 .647-1.253h.124a.77.77 0 0 0 .33-1.465v-.518a.22.22 0 0 0-.22-.22h-.015a1.684 1.684 0 0 0-.462-.973l.193-.193-.312-.312-.227.227a1.96 1.96 0 0 0-.773-.27l.047-.187a.22.22 0 0 0-.214-.275h-.88a.22.22 0 0 0-.214.274l.044.176a1.745 1.745 0 0 0-.78.272l-.216-.216-.312.312.188.188a1.755 1.755 0 0 0-.458.977h-.015a.22.22 0 0 0-.22.22v.518a.77.77 0 0 0 .33 1.465h.123a1.978 1.978 0 0 0 .648 1.253v.773l-1.812.404a1.598 1.598 0 0 0-1.194 1.276l-.951 3.506a.22.22 0 0 0 .212.278h9.913a.22.22 0 0 0 .216-.265l-.73-3.498a1.61 1.61 0 0 0-1.204-1.299zm-1.366 4.621h-3.525v-.732l.924-.37h1.678l.923.37zm.302-1.086-1.101-.44a.223.223 0 0 0-.082-.016H13.65a.223.223 0 0 0-.082.016l-1.102.44a.22.22 0 0 0-.138.205v.881h-.44v-4.277l.44-.098v2.172a.22.22 0 0 0 .22.22h3.965a.22.22 0 0 0 .22-.22v-2.172l.441.098v4.277h-.44v-.881a.22.22 0 0 0-.139-.205zm-2.064-2.49a1.322 1.322 0 0 0 1.281-1.005l.481.107v2.05h-3.525v-2.05l.481-.107a1.322 1.322 0 0 0 1.282 1.004zm-1.983-5.015v-.22h3.965v.22zm4.076 1.101h-.11v-.66h.11a.33.33 0 0 1 0 .66zm-1.935-3.304-.11.44h-.096l-.11-.44zm-1.577.875.162.162.311-.312-.125-.125a1.305 1.305 0 0 1 .57-.157l.067.271a.22.22 0 0 0 .213.167h.441a.22.22 0 0 0 .214-.167l.066-.264a1.552 1.552 0 0 1 .555.165l-.11.11.311.311.155-.154a1.254 1.254 0 0 1 .331.66h-3.485a1.315 1.315 0 0 1 .324-.667zm-1.004 2.099a.33.33 0 0 1 .33-.33h.11v.66h-.11a.33.33 0 0 1-.33-.33zm.88.55v-.88h3.085v.88a1.542 1.542 0 0 1-3.084 0zm1.543 1.983a1.968 1.968 0 0 0 .881-.21v.599a.881.881 0 0 1-1.762 0v-.598a1.968 1.968 0 0 0 .88.21zm-3.898 2.038a1.165 1.165 0 0 1 .814-.925v4.174H9.752zm6.982 3.25v-4.174a1.17 1.17 0 0 1 .815.932l.676 3.241z"/></svg>