<svg xmlns="http://www.w3.org/2000/svg" xml:space="preserve" width="111.82" height="116.165" viewBox="0 0 29.586 30.735"><path stroke="#000" stroke-linecap="round" stroke-linejoin="round" stroke-width=".079" d="M19.444.8C18.81.636 18.176.472 17.503.34a15.917 15.917 0 0 0-2.144-.273c-.76-.044-1.57-.033-2.193.016a7.01 7.01 0 0 0-1.526.274 7.233 7.233 0 0 0-1.389.558c-.432.235-.804.52-1.132.787-.328.268-.613.52-.848.804a5.534 5.534 0 0 0-.607.952 8.36 8.36 0 0 0-.536 1.203c-.164.47-.306 1.028-.431 1.67-.126.643-.234 1.37-.152 1.681.082.312.354.209.627.02.273-.188.547-.462.935-.795.388-.334.892-.727 1.318-1.04.427-.31.777-.54 1.094-.754.317-.213.602-.41.957-.596.356-.186.782-.36 1.121-.492.34-.132.59-.219.487-.115-.104.104-.563.4-.99.716-.426.318-.82.657-1.22 1.034-.399.377-.804.793-1.143 1.192-.339.4-.612.782-.798 1.04-.186.256-.284.388-.175.492.11.104.427.18.75.257.322.076.65.153 1.033.202.383.05.82.071 1.236.05a4.85 4.85 0 0 0 1.181-.203 4.468 4.468 0 0 0 1.116-.53 6.87 6.87 0 0 0 1.192-.963 7.21 7.21 0 0 0 .88-1.143c.236-.367.422-.695.597-1.116.175-.421.339-.935.497-1.41.16-.477.312-.914.493-1.264.18-.35.388-.613.678-.897.29-.285.662-.59 1.033-.897z"/><path d="M.004 3.478c-.005-.01-.014-.03.034-.053.047-.023.153-.05.294-.074.142-.025.32-.047.545-.067.226-.02.5-.04.755-.047.256-.007.493 0 .72.015.227.017.443.044.68.086.236.043.493.1.7.166.206.065.362.14.521.234.158.094.32.209.448.314.129.105.225.201.337.343a3.962 3.962 0 0 1 .351.533c.11.203.204.419.272.613.069.194.112.366.148.548.035.182.063.373.089.595.026.221.05.473.053.595.003.121-.016.113-.075.013s-.157-.29-.26-.463a4.012 4.012 0 0 0-.336-.483 5.47 5.47 0 0 0-.452-.49 8.983 8.983 0 0 0-.563-.498 4.63 4.63 0 0 0-.517-.37 6.531 6.531 0 0 0-.51-.278 2.817 2.817 0 0 0-.32-.138c-.095-.035-.202-.067-.273-.09-.071-.024-.107-.038-.146-.047a.916.916 0 0 0-.12-.02c-.038-.003-.068-.006-.048.019.019.024.087.076.207.156.12.079.293.186.478.324a8.204 8.204 0 0 1 .89.787c.12.125.265.28.426.491.162.21.34.476.483.716.143.241.253.457.316.61.063.153.079.244.073.296-.005.052-.032.065-.224.075-.191.01-.547.015-.802.007a3.137 3.137 0 0 1-.586-.066 4.39 4.39 0 0 1-.542-.146 4.266 4.266 0 0 1-.505-.216 3.067 3.067 0 0 1-.485-.289 2.415 2.415 0 0 1-.47-.463 2.907 2.907 0 0 1-.382-.676 7.08 7.08 0 0 1-.252-.794C.89 5 .835 4.798.776 4.639a2.373 2.373 0 0 0-.18-.376 2.616 2.616 0 0 0-.217-.327c-.103-.134-.244-.3-.307-.374C.01 3.488.01 3.488.004 3.478z"/><path d="M18.442 3.917a.371.371 0 0 0-.43.3.371.371 0 0 0 .299.43 12.769 12.769 0 0 1 10.518 11.934 12.767 12.767 0 0 1-9.27 12.926 12.767 12.767 0 0 1-14.676-6.133A12.767 12.767 0 0 1 7.567 7.696a.371.371 0 0 0 .029-.525.371.371 0 0 0-.523-.03 13.517 13.517 0 0 0-2.842 16.59 13.517 13.517 0 0 0 15.53 6.49 13.517 13.517 0 0 0 9.808-13.677A13.516 13.516 0 0 0 18.442 3.917z" overflow="visible"/><path d="M22.745 10.494h-7.267a.236.236 0 0 0-.216.14L9.408 23.821a.236.236 0 0 0 .216.332h8.233a.236.236 0 0 0 .216-.14l.287-.648h2.845l.014.002.011-.002h1.003a.683.683 0 0 0 .683-.682V20.48a.236.236 0 0 0-.237-.236H21.4l-.002-3.718 1.564-3.523a.236.236 0 0 0 .02-.096V10.73a.236.236 0 0 0-.236-.236zm-7.114.472h6.578L16.565 23.68H9.987Zm3.17 11.406 1.615.006c.095 0 .18-.056.217-.143l.655-1.52h.746l-.967 2.178H18.57zm3.432.521h-.65l.86-1.937v1.727a.21.21 0 0 1-.21.21zm-1.305-2.534-.667 1.546-1.25-.005 1.914-4.313zm.045-4.044a.233.233 0 0 0-.044.1l-3.225 7.265h-.622l5.427-12.224v1.4z"/><path d="M16.505 22.303a.236.236 0 1 0 0-.473h-.491l.49-1.102h.658a.236.236 0 1 0 0-.472h-.45l.49-1.102h.618a.236.236 0 1 0 0-.473h-.408l.49-1.102h.575a.236.236 0 1 0 0-.472h-.366l.489-1.102h.692a.236.236 0 1 0 0-.473h-.482l.489-1.102h.65a.236.236 0 1 0 0-.472h-.44l.489-1.102h.608a.236.236 0 1 0 0-.473h-.398l.064-.144a.236.236 0 0 0-.432-.192l-.15.336h-1.214l.064-.144a.236.236 0 0 0-.432-.192l-.15.336h-1.214l.064-.144a.236.236 0 0 0-.432-.192l-.15.336h-.748a.236.236 0 1 0 0 .473h.54l-.49 1.102h-.708a.236.236 0 1 0 0 .472h.498l-.489 1.102h-.666a.236.236 0 1 0 0 .473h.456l-.489 1.102h-.782a.236.236 0 1 0 0 .472h.572l-.489 1.102h-.74a.236.236 0 1 0 0 .473h.53l-.489 1.102h-.698a.236.236 0 1 0 0 .472h.488l-.489 1.102h-.656a.236.236 0 1 0 0 .473h.447l-.051.114a.236.236 0 0 0 .431.192l.136-.306h1.215l-.05.114a.236.236 0 0 0 .431.192l.136-.306h1.215l-.05.114a.236.236 0 0 0 .431.192l.136-.306zm-.309-2.047h-1.215l.49-1.102h1.214zm.699-1.575H15.68l.49-1.102h1.214zm.699-1.574h-1.215l.489-1.102h1.215zm.699-1.575h-1.215l.489-1.102h1.215zm1.188-2.676-.49 1.102h-1.214l.489-1.102Zm-2.947 0h1.215l-.49 1.102h-1.214zm-.699 1.574h1.215l-.49 1.102h-1.214zm-.699 1.575h1.215l-.489 1.102h-1.215zm-.699 1.574h1.215l-.489 1.102h-1.215zm-.699 1.575h1.215l-.489 1.102H13.25zM12.55 21.83l.49-1.102h1.214l-.489 1.102zm1.732 0 .49-1.102h1.214l-.489 1.102zm-2.914-7.865a1.23 1.23 0 0 0 1.229-1.229 1.23 1.23 0 0 0-1.229-1.228 1.23 1.23 0 0 0-1.229 1.228 1.23 1.23 0 0 0 1.23 1.23zm0-1.985a.757.757 0 1 1-.002 1.515.757.757 0 0 1 .002-1.515zm-1.8.997a.236.236 0 1 0 0-.472h-.167a.236.236 0 1 0 0 .472zm3.325-.221c0 .13.106.236.236.236h.817a.236.236 0 1 0 0-.472h-.817a.236.236 0 0 0-.236.236zm-1.78 1.78v.817a.236.236 0 1 0 .472 0v-.817a.236.236 0 1 0-.472 0zm.236-3.382c.13 0 .236-.106.236-.236v-.188a.236.236 0 1 0-.472 0v.188c0 .13.105.236.236.236zm-1.397.54a.235.235 0 0 0 .334 0 .236.236 0 0 0 0-.335l-.484-.484a.236.236 0 1 0-.334.334zm2.46 2.124a.236.236 0 0 0 0 .334l.484.485a.235.235 0 0 0 .334 0 .236.236 0 0 0 0-.334l-.485-.485a.236.236 0 0 0-.334 0zm-2.46 0-.484.485a.236.236 0 1 0 .334.334l.484-.485a.236.236 0 1 0-.334-.334zm2.626-2.056c.06 0 .121-.023.167-.069l.485-.484a.236.236 0 1 0-.334-.334l-.485.484a.236.236 0 0 0 .167.403z"/></svg>