<svg xmlns="http://www.w3.org/2000/svg" xml:space="preserve" width="111.82" height="116.165" viewBox="0 0 29.586 30.735"><path stroke="#000" stroke-linecap="round" stroke-linejoin="round" stroke-width=".079" d="M19.445.8c-.635-.164-1.27-.328-1.942-.46a15.917 15.917 0 0 0-2.144-.273c-.76-.044-1.57-.033-2.193.017a7.012 7.012 0 0 0-1.526.273 7.226 7.226 0 0 0-1.389.558c-.432.235-.804.52-1.132.787-.328.268-.613.52-.848.804a5.531 5.531 0 0 0-.607.952 8.37 8.37 0 0 0-.536 1.203c-.164.47-.306 1.028-.431 1.67-.126.643-.234 1.37-.152 1.682.082.311.354.208.627.02.273-.189.547-.462.935-.796S9 6.51 9.425 6.198c.427-.312.777-.542 1.094-.755.317-.213.602-.41.957-.596.356-.186.782-.36 1.121-.492.34-.131.59-.219.487-.115-.104.104-.563.4-.99.716-.426.318-.82.657-1.22 1.034-.399.377-.803.793-1.142 1.192-.34.4-.613.782-.799 1.04-.186.256-.284.388-.175.492.11.104.427.18.75.257.322.076.65.153 1.033.202.383.05.82.071 1.236.05.416-.023.81-.088 1.181-.203a4.472 4.472 0 0 0 1.116-.53 6.87 6.87 0 0 0 1.192-.963 7.21 7.21 0 0 0 .88-1.143c.236-.367.422-.695.597-1.116.175-.42.339-.935.498-1.41.158-.477.311-.914.492-1.264.18-.35.388-.613.678-.897.29-.284.662-.59 1.034-.897z"/><path d="M.004 3.478c-.005-.01-.014-.03.034-.053.047-.023.153-.05.294-.074.142-.025.32-.047.545-.067.226-.02.5-.04.755-.047.256-.007.493 0 .72.015.227.017.443.044.68.086.236.043.493.1.7.166.206.065.362.14.521.234.158.094.32.209.448.314.129.105.225.201.337.343a3.962 3.962 0 0 1 .351.533c.11.203.204.419.272.613.069.194.112.366.148.548.035.182.063.373.089.595.026.221.05.473.053.595.003.121-.016.113-.075.013s-.157-.29-.26-.463a4.012 4.012 0 0 0-.336-.483 5.47 5.47 0 0 0-.452-.49 8.983 8.983 0 0 0-.563-.498 4.63 4.63 0 0 0-.517-.37 6.531 6.531 0 0 0-.51-.278 2.817 2.817 0 0 0-.32-.138c-.095-.035-.202-.067-.273-.09-.071-.024-.107-.038-.146-.047a.916.916 0 0 0-.12-.02c-.038-.003-.068-.006-.048.019.019.024.087.076.207.156.12.079.293.186.478.324a8.204 8.204 0 0 1 .89.787c.12.125.265.28.426.491.162.21.34.476.483.716.143.241.253.457.316.61.063.153.079.244.073.296-.005.052-.032.065-.224.075-.191.01-.547.015-.802.007a3.137 3.137 0 0 1-.586-.066 4.39 4.39 0 0 1-.542-.146 4.266 4.266 0 0 1-.505-.216 3.067 3.067 0 0 1-.485-.289 2.415 2.415 0 0 1-.47-.463 2.907 2.907 0 0 1-.382-.676 7.08 7.08 0 0 1-.252-.794C.89 5 .835 4.798.776 4.639a2.373 2.373 0 0 0-.18-.376 2.616 2.616 0 0 0-.217-.327c-.103-.134-.244-.3-.307-.374C.01 3.488.01 3.488.004 3.478z"/><path d="M18.442 3.917a.371.371 0 0 0-.43.3.371.371 0 0 0 .299.43 12.769 12.769 0 0 1 10.517 11.934 12.767 12.767 0 0 1-9.27 12.926 12.767 12.767 0 0 1-14.675-6.133A12.767 12.767 0 0 1 7.567 7.696a.371.371 0 0 0 .029-.525.371.371 0 0 0-.523-.03 13.517 13.517 0 0 0-2.842 16.59c3.031 5.515 9.475 8.208 15.53 6.49s10.123-7.392 9.808-13.677A13.515 13.515 0 0 0 18.442 3.917z" overflow="visible"/><path stroke="#000" stroke-width=".055" d="m23.243 16.243-1.959-1.453V11.19a.213.213 0 0 0-.213-.213h-2.698a.213.213 0 0 0-.213.213v1.283l-1.96-1.454a.213.213 0 0 0-.254 0l-7.043 5.225a.213.213 0 0 0 .127.384h1.377v7.285a.213.213 0 0 0 .213.213h10.906a.213.213 0 0 0 .213-.213v-1.467a.213.213 0 0 0-.426 0v1.254h-10.48v-7.285a.213.213 0 0 0-.213-.213h-.946l6.399-4.747 2.173 1.613c.138.102.34 0 .34-.171v-1.494h2.272v3.495a.213.213 0 0 0 .086.171l1.528 1.133h-.946a.213.213 0 0 0-.213.213v4.999a.213.213 0 1 0 .426 0v-4.786h1.377a.215.215 0 0 0 .2-.138.215.215 0 0 0-.073-.246zm0 0"/><path stroke="#000" stroke-width=".055" d="M13.8 21.399h4.545a.213.213 0 0 0 .213-.213v-.682a.213.213 0 0 0-.213-.213h-.469v-2.286c0-.619-.503-1.122-1.121-1.122H15.39c-.618 0-1.122.503-1.122 1.122v2.286h-.468a.213.213 0 0 0-.213.213v.682c0 .117.095.213.213.213zm.896-3.394a.697.697 0 0 1 .695-.696h1.364a.697.697 0 0 1 .695.696v2.286h-.71v-1.15a.668.668 0 0 0-.667-.667.668.668 0 0 0-.667.667v1.15h-.71zm1.618 2.286h-.482v-1.15a.242.242 0 0 1 .24-.241.242.242 0 0 1 .242.241zm-2.3.426h4.118v.256h-4.118zm4.62-4.59a.213.213 0 0 0-.302 0l-.321.32a.213.213 0 0 0 0 .302.215.215 0 0 0 .301 0l.321-.322a.213.213 0 0 0 0-.3zm-2.348-.394v-.454a.213.213 0 1 0-.426 0v.454a.213.213 0 1 0 .426 0zm-2.302 1.078a.213.213 0 0 0 .151-.364l-.321-.32a.213.213 0 0 0-.302.3l.322.322a.213.213 0 0 0 .15.062zm-1.32 1.663a.213.213 0 1 0 0 .426h.455a.213.213 0 1 0 0-.426zm6.362 0a.213.213 0 0 0 0 .426h.455a.213.213 0 1 0 0-.426zm-6.815-7.044c-.87 0-1.577.707-1.577 1.576a.213.213 0 1 0 .426 0c0-.634.516-1.15 1.15-1.15a.213.213 0 0 0 0-.426zm0 0"/><path stroke="#000" stroke-width=".055" d="M9.938 13.22a.213.213 0 0 0 .213-.214c0-1.135.924-2.059 2.06-2.059a.213.213 0 0 0 0-.426 2.488 2.488 0 0 0-2.486 2.485.213.213 0 0 0 .213.213zm2.273-.881a.668.668 0 0 0-.668.667.213.213 0 1 0 .426 0c0-.133.108-.24.242-.24a.213.213 0 0 0 0-.427zm0 0"/></svg>