<svg xmlns="http://www.w3.org/2000/svg" xml:space="preserve" width="111.82" height="116.165" viewBox="0 0 29.586 30.735"><path d="M16.987 22.038a.238.238 0 0 0-.315.12l-.253.565h-2.937a.238.238 0 1 0 0 .477h3.092a.238.238 0 0 0 .217-.141l.316-.706a.238.238 0 0 0-.12-.315zm-4.617.685h-1.164a.238.238 0 1 0 0 .477h1.164a.238.238 0 1 0 0-.477z"/><path d="M23.217 12.02c0-.83-.54-1.504-1.206-1.518a.236.236 0 0 0-.058-.008h-8.934c-.84 0-1.522.683-1.522 1.522 0 .73.45 1.305 1.093 1.46l-3.265 7.422a.235.235 0 0 0-.012.039c-.006.012-.014.021-.02.033-.186.425-.012.925.39 1.194l-.733 1.654a.238.238 0 0 0 .018.226.238.238 0 0 0 .2.109h8.041c.094 0 .18-.056.218-.141l.292-.653h3.214c.38 0 .689-.31.689-.689v-8.044l.49-1.096c.619-.076 1.105-.724 1.105-1.51Zm-.477 0c0 .574-.337 1.041-.751 1.041s-.751-.467-.751-1.042.337-1.042.751-1.042.751.468.751 1.042zm-10.767-.004c0-.577.47-1.046 1.046-1.046h8.084a1.717 1.717 0 0 0-.342 1.05c0 .403.13.77.337 1.041h-.941a1.025 1.025 0 0 0-.6-1.125 1.033 1.033 0 0 0-1.276.377 1.033 1.033 0 0 0-1.72 0 1.033 1.033 0 0 0-1.72 0 1.034 1.034 0 0 0-1.805.153l-.25.563c-.479-.071-.813-.474-.813-1.013Zm-1.926 9.806c-.281-.123-.423-.42-.317-.66a.44.44 0 0 1 .272-.238.561.561 0 0 1 .176-.028c.085 0 .17.018.252.054.28.123.423.42.317.66-.106.24-.42.336-.7.212zm3.096-8.42a.236.236 0 0 0 .023-.053l.304-.691a.557.557 0 0 1 1.053.334l-3.462 7.872a1.089 1.089 0 0 0-.439-.35c-.183-.08-.38-.11-.57-.087zm2.048-.745a.556.556 0 0 1 1.053.335l-3.463 7.872a1.09 1.09 0 0 0-.993-.438l3.136-7.129c.022-.05.038-.1.052-.15zm1.72 0a.557.557 0 0 1 1.054.335l-3.463 7.872a1.089 1.089 0 0 0-.993-.437l3.136-7.13c.021-.05.037-.1.051-.15zm-5.489 8.602.08-.183a.456.456 0 0 1 .221-.152.561.561 0 0 1 .176-.028.627.627 0 0 1 .56.351.44.44 0 0 1 .009.363.44.44 0 0 1-.273.239.598.598 0 0 1-.428-.027.598.598 0 0 1-.308-.297.457.457 0 0 1-.037-.266zm1.72.002.08-.183a.495.495 0 0 1 .397-.182c.083 0 .169.017.252.054.28.123.423.42.317.66a.44.44 0 0 1-.273.239.598.598 0 0 1-.427-.027c-.244-.107-.382-.344-.346-.561zm1.72 0 .082-.185a.456.456 0 0 1 .22-.152.561.561 0 0 1 .176-.028c.084 0 .17.018.252.054.28.123.423.42.317.66-.106.24-.42.336-.7.212-.244-.107-.383-.344-.346-.562zm1.37-.385a1.092 1.092 0 0 0-1.002-.45l3.135-7.129c.022-.05.038-.099.052-.15l.215-.49a.557.557 0 0 1 1.018.448zm.823 2.8H9.534l.594-1.339c.057.01.113.015.169.015a.963.963 0 0 0 .833-.451 1.103 1.103 0 0 0 .889.452c.11 0 .22-.017.325-.052a.914.914 0 0 0 .505-.403 1.103 1.103 0 0 0 .89.455c.111 0 .22-.017.326-.052a.914.914 0 0 0 .505-.403 1.098 1.098 0 0 0 .89.455c.38 0 .732-.204.885-.551.008-.018.014-.037.02-.055.004-.006.01-.011.012-.018l3.603-8.191h1.606l-.41.918a.235.235 0 0 0-.017.037zm3.137-5.852v4.105h-1.835zm.953 4.846a.212.212 0 0 1-.212.212h-3.001l.212-.476h2.2a.325.325 0 0 0 .325-.325v-5.287l-.003-.03.48-1.072z"/><path stroke="#000" stroke-linecap="round" stroke-linejoin="round" stroke-width=".079" d="M19.445.8c-.635-.164-1.27-.328-1.942-.46A15.916 15.916 0 0 0 15.36.068c-.76-.044-1.57-.033-2.193.016a7.003 7.003 0 0 0-1.526.274 7.226 7.226 0 0 0-1.389.558c-.432.235-.804.52-1.132.787-.328.268-.613.52-.848.804-.235.285-.42.602-.607.952s-.372.733-.536 1.203c-.164.47-.306 1.028-.431 1.67-.126.643-.234 1.37-.152 1.681.082.312.354.209.627.02s.547-.461.935-.795S9 6.51 9.425 6.198c.427-.312.777-.542 1.094-.755.317-.213.602-.41.957-.596.356-.186.782-.36 1.121-.492.34-.131.591-.219.487-.115-.104.104-.563.4-.99.716-.426.318-.82.657-1.22 1.034-.399.377-.803.793-1.142 1.192-.34.4-.613.782-.799 1.04-.186.256-.284.388-.175.492.11.104.427.18.75.257s.65.153 1.033.202c.383.05.82.071 1.236.05.416-.023.81-.088 1.181-.203s.722-.28 1.116-.53a6.87 6.87 0 0 0 1.192-.963c.361-.372.646-.777.88-1.143a6.78 6.78 0 0 0 .597-1.116c.175-.42.339-.935.497-1.41.16-.477.312-.914.493-1.264.18-.35.388-.613.678-.897.29-.284.662-.59 1.034-.897z"/><path d="M.004 3.478c-.005-.01-.014-.03.034-.053.047-.023.153-.05.294-.074.142-.025.32-.047.545-.067.226-.02.5-.04.755-.047.256-.007.493 0 .72.015.227.017.443.044.68.086.236.043.493.1.7.166.206.065.362.14.521.234.158.094.32.209.448.314.129.105.225.201.337.343a3.962 3.962 0 0 1 .351.533c.11.203.204.419.272.613.069.194.112.366.148.548.035.182.063.373.089.595.026.221.05.473.053.595.003.121-.016.113-.075.013s-.157-.29-.26-.463a4.012 4.012 0 0 0-.336-.483 5.47 5.47 0 0 0-.452-.49 8.983 8.983 0 0 0-.563-.498 4.63 4.63 0 0 0-.517-.37 6.531 6.531 0 0 0-.51-.278 2.817 2.817 0 0 0-.32-.138c-.095-.035-.202-.067-.273-.09-.071-.024-.107-.038-.146-.047a.916.916 0 0 0-.12-.02c-.038-.003-.068-.006-.048.019.019.024.087.076.207.156.12.079.293.186.478.324a8.204 8.204 0 0 1 .89.787c.12.125.265.28.426.491.162.21.34.476.483.716.143.241.253.457.316.61.063.153.079.244.073.296-.005.052-.032.065-.224.075-.191.01-.547.015-.802.007a3.137 3.137 0 0 1-.586-.066 4.39 4.39 0 0 1-.542-.146 4.266 4.266 0 0 1-.505-.216 3.067 3.067 0 0 1-.485-.289 2.415 2.415 0 0 1-.47-.463 2.907 2.907 0 0 1-.382-.676 7.08 7.08 0 0 1-.252-.794C.89 5 .835 4.798.776 4.639a2.373 2.373 0 0 0-.18-.376 2.616 2.616 0 0 0-.217-.327c-.103-.134-.244-.3-.307-.374C.01 3.488.01 3.488.004 3.478z"/><path d="M18.442 3.917a.371.371 0 0 0-.43.3.371.371 0 0 0 .299.43 12.769 12.769 0 0 1 10.518 11.934 12.767 12.767 0 0 1-9.27 12.926 12.767 12.767 0 0 1-14.676-6.133A12.767 12.767 0 0 1 7.567 7.696a.371.371 0 0 0 .03-.525.371.371 0 0 0-.524-.03 13.518 13.518 0 0 0-2.842 16.59c3.032 5.515 9.475 8.208 15.53 6.49s10.123-7.392 9.808-13.677A13.515 13.515 0 0 0 18.442 3.917Z" overflow="visible"/></svg>