<svg xmlns="http://www.w3.org/2000/svg" xml:space="preserve" width="111.82" height="116.165" viewBox="0 0 29.586 30.735"><path fill-rule="evenodd" d="M18.099 17.161h-.564a.14.14 0 0 0-.14.14v1.415c0 .534.433.967.967.967h.38v2.735c0 .492-.4.892-.893.892h-2.677c-.45 0-.816-.373-.881-.813h1.635a.576.576 0 0 0 .576-.576v-4.184a.576.576 0 0 0-.576-.576h-4.184a.576.576 0 0 0-.576.576v4.184c0 .318.258.576.576.576h1.651c.072.92.847 1.705 1.78 1.705h2.676c.985 0 1.785-.8 1.785-1.784v-2.735h.38a.967.967 0 0 0 .966-.967v-1.415a.14.14 0 0 0-.14-.14h-.564v-.808a.14.14 0 0 0-.14-.14h-.398a.14.14 0 0 0-.14.14v.808h-.82v-.808a.14.14 0 0 0-.141-.14h-.398a.14.14 0 0 0-.14.14zm1.254 2.522h-.331v2.735c0 .647-.526 1.173-1.173 1.173h-2.677c-.602 0-1.096-.503-1.164-1.094h-.333c.07.769.716 1.425 1.497 1.425h2.677c.83 0 1.504-.674 1.504-1.504zm-3.132-1.946v4.184a.295.295 0 0 1-.295.295h-4.184a.295.295 0 0 1-.295-.295v-4.184c0-.163.132-.295.295-.295h4.184c.163 0 .295.132.295.295zm-2.387.074c-2.661.069-2.66 3.968 0 4.036 2.661-.069 2.66-3.968 0-4.036zm0 .28c2.29.06 2.29 3.416 0 3.475-2.291-.059-2.29-3.415 0-3.474zm-.81 1.31c-.564.015-.564.84 0 .855.563-.014.563-.84 0-.854zm1.62 0c-.563.015-.563.84 0 .855.564-.014.564-.84 0-.854zm-1.62.282c.192.003.192.289 0 .292-.193-.003-.193-.289 0-.292zm1.62 0c.193.003.193.289 0 .292-.192-.003-.192-.289 0-.292zm6.055-2.241v1.274a.686.686 0 0 1-.686.686h-1.651a.686.686 0 0 1-.686-.686v-1.274zm-2.203-.281v-.668h-.116v.668zm1.5 0v-.668h-.118v.668zm-3.494-5a.576.576 0 0 0-.576-.575h-4.184a.576.576 0 0 0-.576.575v4.185c0 .318.258.576.576.576h4.184a.576.576 0 0 0 .576-.576zm-.28 0v4.185a.295.295 0 0 1-.296.295h-4.184a.295.295 0 0 1-.295-.295v-4.185c0-.162.132-.295.295-.295h4.184c.163 0 .295.133.295.295zm-2.388.075c-2.661.068-2.66 3.968 0 4.036 2.661-.069 2.66-3.968 0-4.036zm0 .28c2.29.06 2.29 3.416 0 3.475-2.291-.06-2.29-3.416 0-3.474zm6.524-1.698c.06-.318-.357-.51-.56-.257l-1.884 2.324c-.17.196-.012.527.247.519h.676l-.314 1.402a.318.318 0 0 0 .56.268l1.827-2.291c.168-.197.01-.525-.248-.517h-.565zm-.276-.05-.29 1.614a.141.141 0 0 0 .138.165h.732c.03 0 .049.038.029.06l-1.828 2.291c-.023.03-.076.007-.066-.031l.352-1.573a.141.141 0 0 0-.137-.171h-.85c-.031 0-.05-.038-.03-.061l1.884-2.324c.023-.029.074-.007.066.03zm-7.059 3.059c-.563.014-.563.84 0 .854.564-.015.564-.84 0-.854zm1.622 0c-.564.014-.564.84 0 .854.563-.015.563-.84 0-.854zm-1.622.28c.193.004.193.29 0 .293-.192-.003-.192-.29 0-.293zm1.622 0c.192.004.192.29 0 .293-.193-.003-.193-.29 0-.293z" clip-rule="evenodd"/><path stroke="#000" stroke-linecap="round" stroke-linejoin="round" stroke-width=".079" d="M19.444.8C18.81.636 18.176.472 17.503.34a15.918 15.918 0 0 0-2.144-.273c-.76-.044-1.57-.033-2.193.016a7.01 7.01 0 0 0-1.526.274 7.234 7.234 0 0 0-1.389.558c-.432.235-.804.52-1.132.787-.328.268-.613.52-.848.804a5.539 5.539 0 0 0-.607.952c-.186.35-.372.733-.536 1.203a12.28 12.28 0 0 0-.431 1.67c-.126.643-.234 1.37-.152 1.681.082.312.354.209.627.02.273-.188.547-.461.935-.795S9 6.51 9.425 6.197c.427-.31.777-.54 1.094-.754.317-.213.602-.41.957-.596.356-.186.782-.36 1.121-.492.34-.131.59-.219.487-.115-.104.104-.563.4-.99.716-.426.318-.82.657-1.22 1.034-.399.377-.803.793-1.143 1.192-.339.4-.612.782-.798 1.04-.186.256-.284.388-.175.492.11.104.427.18.75.257.322.076.65.153 1.033.202.383.05.82.071 1.236.05.416-.023.81-.088 1.181-.203a4.472 4.472 0 0 0 1.116-.53 6.87 6.87 0 0 0 1.192-.963 7.21 7.21 0 0 0 .88-1.143c.236-.367.422-.695.597-1.116.175-.42.339-.935.497-1.41.16-.477.312-.914.493-1.264.18-.35.388-.613.678-.897.29-.285.662-.59 1.033-.897z"/><path d="M.004 3.478c-.005-.01-.014-.03.034-.053.047-.023.153-.05.294-.074.142-.025.32-.047.545-.067.226-.02.5-.04.755-.047.256-.007.493 0 .72.015.227.017.443.044.68.086.236.043.493.1.7.166.206.065.362.14.521.234.158.094.32.209.448.314.129.105.225.201.337.343a3.962 3.962 0 0 1 .351.533c.11.203.204.419.272.613.069.194.112.366.148.548.035.182.063.373.089.595.026.221.05.473.053.595.003.121-.016.113-.075.013s-.157-.29-.26-.463a4.012 4.012 0 0 0-.336-.483 5.47 5.47 0 0 0-.452-.49 8.983 8.983 0 0 0-.563-.498 4.63 4.63 0 0 0-.517-.37 6.531 6.531 0 0 0-.51-.278 2.817 2.817 0 0 0-.32-.138c-.095-.035-.202-.067-.273-.09-.071-.024-.107-.038-.146-.047a.916.916 0 0 0-.12-.02c-.038-.003-.068-.006-.048.019.019.024.087.076.207.156.12.079.293.186.478.324a8.204 8.204 0 0 1 .89.787c.12.125.265.28.426.491.162.21.34.476.483.716.143.241.253.457.316.61.063.153.079.244.073.296-.005.052-.032.065-.224.075-.191.01-.547.015-.802.007a3.137 3.137 0 0 1-.586-.066 4.39 4.39 0 0 1-.542-.146 4.266 4.266 0 0 1-.505-.216 3.067 3.067 0 0 1-.485-.289 2.415 2.415 0 0 1-.47-.463 2.907 2.907 0 0 1-.382-.676 7.08 7.08 0 0 1-.252-.794C.89 5 .835 4.798.776 4.639a2.373 2.373 0 0 0-.18-.376 2.616 2.616 0 0 0-.217-.327c-.103-.134-.244-.3-.307-.374C.01 3.488.01 3.488.004 3.478z"/><path d="M18.442 3.917a.371.371 0 0 0-.43.3.371.371 0 0 0 .299.43 12.769 12.769 0 0 1 10.517 11.934 12.767 12.767 0 0 1-9.27 12.926 12.767 12.767 0 0 1-14.675-6.133A12.767 12.767 0 0 1 7.567 7.696a.371.371 0 0 0 .029-.525.371.371 0 0 0-.523-.03 13.518 13.518 0 0 0-2.842 16.59c3.031 5.515 9.475 8.208 15.53 6.49s10.123-7.392 9.808-13.677A13.515 13.515 0 0 0 18.442 3.917z" overflow="visible"/></svg>