<svg xmlns="http://www.w3.org/2000/svg" xml:space="preserve" width="111.82" height="116.165" viewBox="0 0 29.586 30.735"><path d="M17.82 10.88c.96 0 1.856.372 2.555 1.05a3.601 3.601 0 0 1 1.048 2.554c0 .131.088.219.219.219.13 0 .218-.088.218-.219 0-1.07-.415-2.096-1.18-2.86a3.994 3.994 0 0 0-2.86-1.18c-.131 0-.219.087-.219.218s.11.219.219.219z"/><path d="M17.82 12.017a2.488 2.488 0 0 1 2.49 2.49c0 .13.087.218.218.218s.218-.088.218-.219a2.927 2.927 0 0 0-2.926-2.926c-.131 0-.219.087-.219.218 0 .11.11.218.219.218z"/><path d="M17.82 13.13a1.36 1.36 0 0 1 1.354 1.354c0 .131.087.219.218.219s.219-.088.219-.219c0-.982-.808-1.79-1.791-1.79-.131 0-.219.087-.219.218 0 .13.11.218.219.218zm0 2.14a.758.758 0 0 0 .546-.218.79.79 0 0 0 0-1.114.79.79 0 0 0-1.114 0 .79.79 0 0 0 0 1.114.846.846 0 0 0 .568.218zm-.24-1.026a.35.35 0 0 1 .24-.11.35.35 0 0 1 .24.11.343.343 0 0 1 0 .48c-.13.131-.35.131-.48 0s-.131-.349 0-.48zm-1.485 2.315a.876.876 0 0 0-.874.874c0 .48.393.873.874.873.48 0 .873-.393.873-.874a.876.876 0 0 0-.873-.873zm0 1.288a.438.438 0 0 1-.437-.436.438.438 0 0 1 .437-.437.438.438 0 0 1 .436.437.438.438 0 0 1-.436.436z"/><path d="M20.79 20.97c.066 0 .11-.021.153-.065l.939-1.005c.11.044.218.088.35.088a.83.83 0 0 0 .83-.83.83.83 0 0 0-.83-.83.83.83 0 0 0-.83.83c0 .174.043.327.13.458l-.873.918h-.852v-.765h.612c.087 0 .174-.043.196-.13.044-.088.022-.175-.043-.241l-.852-.895v-2.556c0-.13-.088-.218-.219-.218h-1.397c-.131 0-.219.087-.219.218v.59l-1.638-1.747a.237.237 0 0 0-.327 0l-1.485 1.572v-3.188c0-.131-.087-.218-.219-.218h-3.494a.825.825 0 0 0-.808-.743.825.825 0 0 0-.808.83c0 .459.372.83.83.83a.82.82 0 0 0 .743-.48h3.341v3.45l-2.402 2.555c-.066.066-.066.153-.044.24.044.088.11.131.197.131h.611v.765h-.895l-.874-.918a.808.808 0 0 0 .131-.458.83.83 0 0 0-.83-.83.83.83 0 0 0-.83.83c0 .458.372.83.83.83.131 0 .24-.022.35-.088l.939 1.005c.044.044.109.065.153.065h1.026v1.77H11.05a.845.845 0 0 0-.808-.612.83.83 0 0 0-.83.83c0 .458.371.83.83.83a.819.819 0 0 0 .786-.612h1.354v.808c0 .131.088.218.219.218h6.988c.13 0 .218-.087.218-.218v-.808h1.354a.82.82 0 0 0 .786.612.83.83 0 0 0 .83-.83.83.83 0 0 0-.83-.83.819.819 0 0 0-.786.611h-1.354V20.97zm1.463-2.183a.392.392 0 0 1 .393.393.392.392 0 0 1-.393.393.392.392 0 0 1-.393-.393c.022-.219.175-.393.393-.393zM9.936 13.436a.392.392 0 0 1-.393-.393.392.392 0 0 1 .393-.393.392.392 0 0 1 .393.393c-.022.218-.174.393-.393.393zm-.393 5.744a.392.392 0 0 1 .393-.393.392.392 0 0 1 .393.393.392.392 0 0 1-.393.393.392.392 0 0 1-.393-.393zm.699 4.17a.392.392 0 0 1-.393-.392.392.392 0 0 1 .393-.393c.218 0 .393.174.393.37 0 .241-.175.416-.393.416zm11.705-.786a.392.392 0 0 1 .394.394.392.392 0 0 1-.393.393c-.219 0-.394-.175-.394-.371 0-.24.175-.415.393-.415zm-6.9 1.202v-3.058h2.118v3.058zm4.323 0h-1.768V20.49c0-.131-.088-.218-.219-.218h-2.555c-.131 0-.218.087-.218.218v3.276h-1.791V19.55c0-.131-.087-.219-.218-.219h-.328l3.822-4.062 1.856 1.966c.066.065.153.087.24.044.088-.044.131-.11.131-.197v-.917h.961v2.402c0 .066.022.11.066.153l.568.59h-.328c-.131 0-.218.087-.218.218z"/><path stroke="#000" stroke-linecap="round" stroke-linejoin="round" stroke-width=".079" d="M19.445.8c-.635-.164-1.27-.328-1.942-.46a15.913 15.913 0 0 0-2.144-.273c-.76-.044-1.57-.033-2.193.017a7.01 7.01 0 0 0-1.526.273 7.236 7.236 0 0 0-1.389.558 7.35 7.35 0 0 0-1.132.787c-.328.268-.612.52-.848.804a5.534 5.534 0 0 0-.607.952 8.36 8.36 0 0 0-.536 1.203c-.164.47-.306 1.028-.431 1.67-.126.643-.234 1.37-.152 1.682.082.311.355.208.628.02.273-.189.546-.462.934-.796.389-.334.892-.727 1.318-1.039.427-.312.777-.542 1.094-.755.317-.213.602-.41.957-.596.356-.186.782-.36 1.121-.492.34-.131.591-.219.487-.115-.104.104-.563.4-.99.716-.426.318-.82.657-1.22 1.034-.399.377-.803.793-1.142 1.192-.34.4-.613.782-.799 1.04-.186.256-.284.388-.175.492.11.104.427.18.75.257.322.076.65.153 1.033.202.383.05.82.071 1.236.05.416-.023.81-.088 1.181-.203a4.473 4.473 0 0 0 1.116-.53 6.87 6.87 0 0 0 1.192-.963 7.21 7.21 0 0 0 .88-1.143c.236-.367.422-.695.597-1.116.175-.42.339-.935.498-1.41.158-.477.311-.914.492-1.264.18-.35.388-.613.678-.897.29-.285.662-.59 1.034-.897z"/><path d="M.004 3.478c-.005-.01-.014-.03.034-.053.047-.023.153-.05.294-.074.142-.025.32-.047.545-.067.226-.02.5-.04.755-.047.256-.007.493 0 .72.015.227.017.443.044.68.086.236.043.493.1.7.166.206.065.362.14.521.234.158.094.32.209.448.314.129.105.225.201.337.343a3.962 3.962 0 0 1 .351.533c.11.203.204.419.272.613.069.194.112.366.148.548.035.182.063.373.089.595.026.221.05.473.053.595.003.121-.016.113-.075.013s-.157-.29-.26-.463a4.012 4.012 0 0 0-.336-.483 5.47 5.47 0 0 0-.452-.49 8.983 8.983 0 0 0-.563-.498 4.63 4.63 0 0 0-.517-.37 6.531 6.531 0 0 0-.51-.278 2.817 2.817 0 0 0-.32-.138c-.095-.035-.202-.067-.273-.09-.071-.024-.107-.038-.146-.047a.916.916 0 0 0-.12-.02c-.038-.003-.068-.006-.048.019.019.024.087.076.207.156.12.079.293.186.478.324a8.204 8.204 0 0 1 .89.787c.12.125.265.28.426.491.162.21.34.476.483.716.143.241.253.457.316.61.063.153.079.244.073.296-.005.052-.032.065-.224.075-.191.01-.547.015-.802.007a3.137 3.137 0 0 1-.586-.066 4.39 4.39 0 0 1-.542-.146 4.266 4.266 0 0 1-.505-.216 3.067 3.067 0 0 1-.485-.289 2.415 2.415 0 0 1-.47-.463 2.907 2.907 0 0 1-.382-.676 7.08 7.08 0 0 1-.252-.794C.89 5 .835 4.798.776 4.639a2.373 2.373 0 0 0-.18-.376 2.616 2.616 0 0 0-.217-.327c-.103-.134-.244-.3-.307-.374C.01 3.488.01 3.488.004 3.478z"/><path d="M18.442 3.917a.371.371 0 0 0-.43.3.371.371 0 0 0 .299.43 12.769 12.769 0 0 1 10.518 11.934 12.767 12.767 0 0 1-9.27 12.926 12.767 12.767 0 0 1-14.676-6.133A12.767 12.767 0 0 1 7.567 7.696a.371.371 0 0 0 .03-.525.371.371 0 0 0-.524-.03 13.518 13.518 0 0 0-2.842 16.59c3.032 5.515 9.475 8.208 15.53 6.49s10.123-7.392 9.808-13.677A13.515 13.515 0 0 0 18.442 3.917z" overflow="visible"/></svg>