<svg xmlns="http://www.w3.org/2000/svg" width="440" height="780"><path fill="#f3e852" d="m387.941 94.566-.002.002-.002.002c-.09.12-.33 2.264-.808 6.832-.467 4.465-1.741 13.36-2.57 17.94-5.444 30.056-15.302 59.458-31.68 94.493-2.822 6.037-12.01 24.191-13.777 27.227-.727 1.247-2.667 5.043-6.729 12.172a1511 1511 0 0 0-3.906 6.886c-1.154 2.068-3.036 4.932-2.994 4.805l25.673-77.726-25.119 9.992 14.99-73.4c.039-.188-27.404 81.272-28.187 84.39l25.305-8.506-13.399 66.715-2.965 4.953c-5.23 8.742-15.016 24.19-26.308 40.56-.831 1.205-3.122 4.498-5.092 7.317-2.21 2.98-4.123 6.185-6.38 9.129-.108.088-1.89 2.518-3.962 5.398a662 662 0 0 1-5.965 8.168c-2.947 4.035-5.97 8.002-8.99 11.983-5.349 7.135-11.1 14.278-11.072 14.07l11.959-88.516-28.23 21.03-.336-106.076-14.12 127.46 29.827-24.517.308 71.63-3.015 3.77c-2.9 3.624-11.614 14.491-14.924 18.543s-6.998 8.52-8.198 9.93c-1.199 1.41-3.572 4.22-5.271 6.246a653 653 0 0 1-3.785 4.484c-.383.44-2.423 2.81-4.533 5.266a3608 3608 0 0 1-5.795 6.727 3695 3695 0 0 0-4.442 5.144c-2.41 2.798-8.699 9.869-15.511 17.44-1.833 2.036-3.85 4.28-4.48 4.984-1.456 1.624-9.392 10.237-12.374 13.426-18.606 19.9-33.118 34.727-33.094 34.3l5.633-99.003-43.387 30.18-17.927-88.188 8.002 110.058 40.398-27.168 6.586 74.561c.066.745-11.001 11.951-28.514 29.031-2.574 2.51-4.149 4.111-4.181 4.235v.006h.008c.036-.01.197-.137.494-.397 1.408-1.233 3.056-2.674 3.664-3.203a504 504 0 0 0 7.586-6.77c1.578-1.433 3.333-2.995 3.9-3.472s6.273-5.675 8.559-7.819a640 640 0 0 1 5.746-5.324 502 502 0 0 0 6.723-6.289 1587 1587 0 0 0 32.37-31.668c13.753-13.912 3.72-3.885 17.786-18.181 1.587-1.776 8.588-9.265 11.365-12.159 1.057-1.101 2.066-2.187 2.242-2.412s2.483-2.775 5.125-5.67a947 947 0 0 0 16.697-18.756l7.207-8.328a454 454 0 0 0 6.35-7.527c1.663-2.026 3.104-3.756 3.203-3.844.31-.276 4.544-5.423 8.17-9.93 1.913-2.378 3.511-4.528 3.67-4.544l92.574-9.414c.775-.08.753-.184-.32-.844l-15.348-9.45 56.537-9.374-80.08 8.406 23.223 8.582-75.807 11.41c-.064.01 1.008-1.447 2.34-3.113a348 348 0 0 0 4.367-5.592c1.07-1.41 2.028-2.635 2.13-2.723.24-.21 1.567-1.928 4.825-6.248 1.462-1.937 3.062-4.016 3.557-4.619s10.912-14.826 15.664-21.35a449 449 0 0 0 5.606-7.958c1.761-2.563 3.75-5.45 4.42-6.413 1.05-1.514 2.196-2.433 8.548-6.63l38.215-25.252-3.177 37.05c-.017.2 80.946-70.955 78.351-69.205l-70.215 47.346 1.492-34.71-49.003 45.776c-.704.657 3.72-5.76 11.712-18.578 3.484-5.738 7.016-11.431 10.489-17.215 3.92-6.71 7.856-13.417 11.549-20.263a276 276 0 0 1 2.359-4.324c2.421-4.941 4.912-9.686 7.476-14.471 5.753-11.72 10.912-23.173 12.223-26.21 1.138-2.642 2.507-5.81 3.041-7.038.74-1.705 2.377-4.151 7.266-10.043l21.228-25.584 4.592 17.738 20.324-35.453c2.896-5.051-16.763 21.68-19.957 24.313-.333-.362-3.994-19.829-4.332-19.829-14.847 23.192-26.123 42.502-25.855 41 .079-.44.425-1.521.771-2.402 5.01-12.746 10.82-30.676 13.854-42.76 4.406-17.547 7.32-37.438 7.816-53.336.064-2.056.086-3.211.033-3.308l-.002-.002v-.002h-.006zm-103.09 156.21 17.997 20.71-14.27.937 20.678 16.188-12.764-14.833 15.508-.685zM130.247 281.28l35.162 29.413-20.656 11.76 44.434 22.208-30.873-21.76 18.38-11.244zm64.29 1.104-5.95 94.867-28.482-9.422 10.105 95.239-.473-76.938 27.065 8.063zm108.523 117.87-54.246 5.491c-.47.048 15.063 12.652 17.615 14.6-11.382 2.87-31.594 8.016-45.371 11.508-11.611 2.934-16.266 4.158-16.123 4.37.103.105 1.492-.059 3.861-.398 36.436-5.212-2.564.471 73.057-9.972-19.817-14.706-20.623-14.767-20.256-14.862zm27.968 26.273-74.093 58.406 64.859-37.377-4.826 35.767L369.02 439.2l-44.846 25.203zm-103.957 52.82 25.748 38.484-120.01-5.584 145.768 25.912-30.031-40.888 85.326 3.933z"/><path fill="#8fc263" d="M392.245 9.685a1 1 0 0 0-.084.006c-.574.083-.912.892-2.316 5.543-8.443 27.968-21.598 52.073-40.4 74.03-5.234 6.11-15.827 16.87-22.222 22.574-18.646 16.629-40.665 31.772-69.486 47.78-16.977 9.431-34.111 18.082-71.271 35.985-40.962 19.735-65.601 32.92-86.11 46.082C72.83 259.351 51.343 278.67 36.3 299.28c-19.42 26.604-29.99 56.25-32.47 92.24-.511 7.435-.183 29.005.516 35.197 3.954 35 18.676 67.139 44.493 96.602 8.827 10.074 19.598 20.608 29.73 28.361l3.272 2.504-3.77 4.526c-8.568 10.282-16.616 19.553-20.3 24.086-26.87 33.055-36.642 50.216-40.253 70.677-1.727 9.79-2.135 21.608-.98 28.366 2.954 17.28 15.017 31.303 35.392 41.142 13.998 6.76 31.598 11.694 52.053 14.596 9.984 1.416 24.613 2.703 30.715 2.703 1.754 0 2.986.15 3.303.4.278.22.76 1.19 1.07 2.153 2.244 6.95 8.743 13.578 17.75 18.101 7.844 3.94 19.92 7.074 31.406 8.153 2.026.19 4.188.394 4.805.453v.006c2.133.2 20.095.204 22.05 0l1.964-.207.17-16.727 15.07-.16c13.53-.144 15.155-.215 15.908-.709 1.449-.95 1.56-3.712.201-4.943-.613-.556-1.633-.604-15.916-.754l-15.263-.16-.15-21.942h14.905c16.358 0 16.32.005 17.11-1.9.51-1.231.201-2.95-.672-3.74-.63-.57-1.547-.615-15.93-.766l-15.263-.16-.17-16.768-1.996-.172c-10.424-.9-26.198-.141-36.592 1.762-20.017 3.665-34.269 12.219-38.746 23.256-.566 1.396-.93 1.878-1.48 1.96-1.287.195-19.8-.583-25.6-1.075-23.353-1.98-44.094-6.856-58.46-13.743-14.594-6.995-24.639-17.072-28.122-28.212-1.555-4.97-1.926-8.757-1.73-17.62.196-8.914.608-12.322 2.345-19.367 2.97-12.05 7.928-22.47 17.53-36.847 8.256-12.364 19.204-23.934 34.927-45.332l6.371-8.672 2.178 1.424c25.842 16.887 58.56 28.398 92.664 31.728 35.934 3.508 73.845-1.928 103.367-14.861 91.842-40.236 143.683-134.434 151.969-274.358 4.323-73-4.224-160.167-23.1-235.595-7.843-31.343-16.686-55.333-20.326-55.2Zm-4.3 84.879h.007v.002l.002.002c.053.097.031 1.252-.033 3.309-.496 15.897-3.41 35.789-7.816 53.336-3.035 12.083-8.844 30.013-13.854 42.76-.346.88-.692 1.961-.771 2.402-.268 1.501 11.008-17.808 25.855-41 .338 0 3.998 19.466 4.332 19.828 3.194-2.632 22.853-29.364 19.957-24.313L395.3 186.343l-4.592-17.738-21.228 25.584c-4.89 5.892-6.525 8.338-7.266 10.043-.534 1.229-1.903 4.396-3.041 7.04-1.311 3.035-6.47 14.488-12.223 26.208-2.564 4.785-5.055 9.53-7.476 14.47-.497.882-1.56 2.828-2.36 4.325-3.692 6.846-7.629 13.554-11.548 20.264-3.473 5.783-7.005 11.477-10.489 17.215-7.991 12.817-12.416 19.234-11.713 18.578l49.004-45.778-1.492 34.711 70.215-47.345c2.595-1.75-78.369 69.405-78.352 69.205l3.178-37.051-38.215 25.252c-6.353 4.198-7.498 5.117-8.549 6.63-.668.964-2.658 3.85-4.42 6.413a449 449 0 0 1-5.605 7.959c-4.752 6.523-15.17 20.747-15.664 21.35-.495.602-2.095 2.681-3.557 4.619-3.258 4.319-4.585 6.038-4.826 6.248-.101.088-1.059 1.313-2.129 2.722a348 348 0 0 1-4.367 5.592c-1.332 1.667-2.404 3.123-2.34 3.113l75.807-11.41-23.223-8.582 80.08-8.406-56.537 9.375 15.348 9.45c1.073.66 1.095.764.32.843l-92.574 9.414c-.16.016-1.757 2.166-3.67 4.545-3.626 4.507-7.86 9.654-8.17 9.93-.099.088-1.54 1.817-3.203 3.843a454 454 0 0 1-6.35 7.528l-7.207 8.328a947 947 0 0 1-16.697 18.756c-2.643 2.894-4.949 5.445-5.125 5.67s-1.185 1.31-2.242 2.412c-2.777 2.894-9.778 10.383-11.365 12.158-14.065 14.297-4.033 4.269-17.786 18.181a1587 1587 0 0 1-32.37 31.668 502 502 0 0 1-6.723 6.29 640 640 0 0 0-5.746 5.324c-2.286 2.144-7.992 7.341-8.559 7.818s-2.322 2.04-3.9 3.473a504 504 0 0 1-7.586 6.77c-.608.528-2.257 1.97-3.664 3.202-.297.26-.458.388-.495.397h-.008v-.006c.033-.123 1.608-1.724 4.182-4.234 17.513-17.08 28.58-28.287 28.514-29.032l-6.586-74.56-40.399 27.168-8.002-110.059 17.928 88.188 43.387-30.18-5.633 99.004c-.024.427 14.488-14.4 33.094-34.301 2.981-3.19 10.918-11.801 12.373-13.426.631-.704 2.648-2.947 4.48-4.984 6.813-7.571 13.102-14.642 15.512-17.44 1.366-1.585 3.365-3.9 4.441-5.144a3608 3608 0 0 0 5.795-6.727c2.111-2.455 4.151-4.825 4.534-5.265.382-.44 2.085-2.459 3.785-4.485s4.072-4.836 5.271-6.246c1.2-1.41 4.888-5.877 8.198-9.93 3.31-4.052 12.024-14.919 14.923-18.542l3.016-3.77-.309-71.63-29.826 24.517 14.12-127.461.335 106.076 28.23-21.03-11.958 88.516c-.028.209 5.723-6.934 11.072-14.07 3.02-3.98 6.043-7.948 8.99-11.982a662 662 0 0 0 5.965-8.168c2.072-2.881 3.854-5.31 3.961-5.399 2.258-2.944 4.17-6.148 6.38-9.129 1.97-2.819 4.262-6.111 5.093-7.316 11.291-16.371 21.077-31.818 26.308-40.56l2.965-4.954 13.399-66.715-25.305 8.506c.782-3.118 28.225-84.578 28.187-84.39l-14.99 73.4 25.12-9.992-25.675 77.726c-.042.127 1.84-2.737 2.995-4.804.442-.793 2.2-3.892 3.906-6.887 4.062-7.129 6.002-10.925 6.728-12.172 1.768-3.036 10.955-21.19 13.778-27.226 16.378-35.036 26.236-64.438 31.68-94.495.829-4.578 2.102-13.474 2.57-17.94.478-4.567.717-6.711.808-6.831l.002-.002zm-103.09 156.21 27.148 22.317-15.508.686 12.764 14.832-20.678-16.188 14.27-.937zM130.248 281.28l46.447 30.377-18.38 11.244 30.872 21.76-44.433-22.21 20.656-11.759zm64.289 1.103 2.266 111.809-27.065-8.063.473 76.938-10.106-95.238 28.483 9.422zm108.523 117.87-41.463 10.738c-.366.095.44.156 20.256 14.861-75.62 10.444-36.62 4.76-73.056 9.973-6.972.997-5.432.498 12.261-3.973 13.777-3.492 33.99-8.637 45.371-11.508-2.552-1.948-18.084-14.552-17.615-14.6zm27.97 26.273-6.854 37.877 44.845-25.203-52.052 44.123 4.826-35.768-64.86 37.377zm-103.958 52.82 106.8 21.858-85.325-3.934 30.03 40.889-145.767-25.912 120.01 5.584z"/></svg>