<svg xmlns="http://www.w3.org/2000/svg" xml:space="preserve" width="111.82" height="116.165" viewBox="0 0 29.586 30.735"><path d="M23.812 17.896H8.334a.86.86 0 0 0-.86.86v3.44a.86.86 0 0 0 .86.86v.286a.86.86 0 0 0 .86.86h13.758a.86.86 0 0 0 .86-.86v-.286a.86.86 0 0 0 .86-.86v-3.44a.86.86 0 0 0-.86-.86zm-.573 5.446a.287.287 0 0 1-.287.287H9.194a.287.287 0 0 1-.287-.287v-.286h14.332zm.86-1.146a.287.287 0 0 1-.287.287H8.334a.287.287 0 0 1-.287-.287v-3.44a.287.287 0 0 1 .287-.286h15.478a.287.287 0 0 1 .286.286z"/><path d="M10.913 19.616a.573.573 0 0 0-.573-.573h-.573a.573.573 0 0 0-.573.573.573.573 0 0 0-.574.574v1.146a.573.573 0 0 0 .574.573h1.72a.573.573 0 0 0 .573-.573V20.19a.573.573 0 0 0-.574-.574zm0 1.72h-1.72V20.19h.287a.287.287 0 0 0 .287-.287v-.287h.573v.287a.287.287 0 0 0 .287.287h.286zm4.013-1.72a.573.573 0 0 0-.573-.573h-.573a.573.573 0 0 0-.574.573.573.573 0 0 0-.573.574v1.146a.573.573 0 0 0 .573.573h1.72a.573.573 0 0 0 .574-.573V20.19a.573.573 0 0 0-.574-.574zm0 1.72h-1.72V20.19h.287a.287.287 0 0 0 .287-.287v-.287h.573v.287a.287.287 0 0 0 .287.287h.286zm4.013-1.72a.573.573 0 0 0-.573-.573h-.573a.573.573 0 0 0-.574.573.573.573 0 0 0-.573.574v1.146a.573.573 0 0 0 .573.573h1.72a.573.573 0 0 0 .573-.573V20.19a.573.573 0 0 0-.573-.574zm0 1.72h-1.72V20.19h.287a.287.287 0 0 0 .287-.287v-.287h.573v.287a.287.287 0 0 0 .287.287h.286zm4.013-1.72a.573.573 0 0 0-.573-.573h-.574a.573.573 0 0 0-.573.573.573.573 0 0 0-.573.574v1.146a.573.573 0 0 0 .573.573h1.72a.573.573 0 0 0 .573-.573V20.19a.573.573 0 0 0-.573-.574zm0 1.72h-1.72V20.19h.287a.287.287 0 0 0 .287-.287v-.287h.573v.287a.287.287 0 0 0 .286.287h.287zm-6.88-6.592a.86.86 0 1 0 .86.86.86.86 0 0 0-.86-.86zm0 1.146a.287.287 0 1 1 .287-.287.287.287 0 0 1-.286.287zm1.147-1.433a.287.287 0 0 0 .221-.469 1.72 1.72 0 0 0-2.735 0 .287.287 0 1 0 .442.364 1.147 1.147 0 0 1 1.85 0 .287.287 0 0 0 .222.105z"/><path d="M18.08 13.31a.287.287 0 0 0 .205-.487 3.058 3.058 0 0 0-4.425 0 .288.288 0 0 0 .412.401 2.484 2.484 0 0 1 3.601 0 .287.287 0 0 0 .206.086z"/><path d="M13.405 12.084a3.87 3.87 0 0 1 5.335 0 .287.287 0 1 0 .398-.413 4.443 4.443 0 0 0-6.13 0 .287.287 0 0 0 .397.413z"/><path stroke="#000" stroke-linecap="round" stroke-linejoin="round" stroke-width=".079" d="M19.445.8c-.635-.164-1.27-.328-1.942-.46a15.913 15.913 0 0 0-2.144-.273c-.76-.044-1.57-.033-2.193.017a7.01 7.01 0 0 0-1.526.273 7.233 7.233 0 0 0-1.389.558c-.432.235-.804.52-1.132.787-.328.268-.612.52-.848.804-.235.285-.42.602-.607.952s-.372.733-.536 1.203c-.164.47-.306 1.028-.431 1.67-.126.643-.234 1.37-.152 1.682.082.311.355.208.628.02.273-.189.546-.462.934-.796.389-.333.892-.727 1.318-1.039.427-.312.777-.541 1.094-.755.317-.213.602-.41.957-.596.356-.186.782-.36 1.121-.492.34-.131.591-.219.487-.115-.104.104-.563.4-.99.717-.426.317-.82.656-1.22 1.033-.399.378-.803.793-1.142 1.192-.34.4-.613.782-.799 1.04-.186.257-.284.388-.175.492.11.104.427.18.75.257.322.076.65.153 1.033.202.383.05.82.071 1.236.05.416-.023.81-.088 1.181-.203a4.476 4.476 0 0 0 1.116-.53 6.87 6.87 0 0 0 1.192-.963c.361-.372.646-.777.88-1.143.236-.366.422-.695.597-1.116.175-.42.339-.935.498-1.41.158-.477.311-.914.492-1.264.18-.35.388-.613.678-.897.29-.284.662-.59 1.034-.897z"/><path d="M.004 3.478c-.005-.01-.014-.03.034-.053.047-.023.153-.05.294-.074.142-.025.32-.047.545-.067.226-.02.5-.04.755-.047.256-.007.493 0 .72.015.227.017.443.044.68.086.236.043.493.1.7.166.206.065.362.14.521.234.158.094.32.209.448.314.129.105.225.201.337.343a3.962 3.962 0 0 1 .351.533c.11.203.204.419.272.613.069.194.112.366.148.548.035.182.063.373.089.595.026.221.05.473.053.595.003.121-.016.113-.075.013s-.157-.29-.26-.463a4.012 4.012 0 0 0-.336-.483 5.47 5.47 0 0 0-.452-.49 8.983 8.983 0 0 0-.563-.498 4.63 4.63 0 0 0-.517-.37 6.531 6.531 0 0 0-.51-.278 2.817 2.817 0 0 0-.32-.138c-.095-.035-.202-.067-.273-.09-.071-.024-.107-.038-.146-.047a.916.916 0 0 0-.12-.02c-.038-.003-.068-.006-.048.019.019.024.087.076.207.156.12.079.293.186.478.324a8.204 8.204 0 0 1 .89.787c.12.125.265.28.426.491.162.21.34.476.483.716.143.241.253.457.316.61.063.153.079.244.073.296-.005.052-.032.065-.224.075-.191.01-.547.015-.802.007a3.137 3.137 0 0 1-.586-.066 4.39 4.39 0 0 1-.542-.146 4.266 4.266 0 0 1-.505-.216 3.067 3.067 0 0 1-.485-.289 2.415 2.415 0 0 1-.47-.463 2.907 2.907 0 0 1-.382-.676 7.08 7.08 0 0 1-.252-.794C.89 5 .835 4.798.776 4.639a2.373 2.373 0 0 0-.18-.376 2.616 2.616 0 0 0-.217-.327c-.103-.134-.244-.3-.307-.374C.01 3.488.01 3.488.004 3.478z"/><path d="M18.442 3.917a.371.371 0 0 0-.43.3.371.371 0 0 0 .299.43 12.769 12.769 0 0 1 10.518 11.934 12.767 12.767 0 0 1-9.27 12.926 12.767 12.767 0 0 1-14.676-6.133A12.767 12.767 0 0 1 7.567 7.696a.371.371 0 0 0 .03-.525.371.371 0 0 0-.524-.03 13.518 13.518 0 0 0-2.842 16.59c3.032 5.515 9.475 8.208 15.53 6.49s10.123-7.392 9.808-13.677A13.515 13.515 0 0 0 18.442 3.917z" overflow="visible"/></svg>