<svg xmlns="http://www.w3.org/2000/svg" xml:space="preserve" width="396.702" height="372.663" viewBox="0 0 104.961 98.6"><path fill="currentColor" d="M83.225 35.229a2.866 2.866 0 0 0-5.733 0v8.599h5.733zm4.3 11.465h-31.53c-.792 0-1.433.641-1.433 1.433v2.866c0 .792.641 1.433 1.433 1.433h1.433v2.867c.002 18.201 28.66 19.152 28.663 0v-2.867h1.433c.792 0 1.434-.641 1.434-1.433v-2.866c0-.792-.642-1.433-1.434-1.433M66.027 35.229a2.866 2.866 0 0 0-5.733 0v8.599h5.733z" style="stroke-width:.0895723" transform="translate(-29.54 -32.364)"/><path fill="currentColor" d="M-90.45-54.252h-15l3.334-20-25 30h15l-3.333 20z" style="fill:#fff;stroke-width:.104167" transform="matrix(.26458 0 0 .26458 71.001 38.28)"/><path d="M63.134-110.608c-35.693 0-64.787 29.096-64.787 64.79v81.15c5.085.25 10.111.814 15 1.67v-82.82c0-27.587 22.2-49.79 49.787-49.79h.428c27.586 0 49.789 22.203 49.789 49.79V93.58a7.5 7.5 0 0 0 7.5 7.5 7.5 7.5 0 0 0 7.5-7.5V-45.82c0-35.693-29.096-64.789-64.79-64.789z" style="baseline-shift:baseline;display:inline;overflow:visible;opacity:1;vector-effect:none;fill:#000;stroke-linecap:round;stroke-linejoin:round;enable-background:accumulate;stop-color:#000;stop-opacity:1" transform="matrix(.26458 0 0 .26458 71.001 38.28)"/><path d="M-116.248-.346v163.392c0 35.775 29.162 64.938 64.937 64.938h.13c35.774 0 64.937-29.163 64.937-64.938v-46.664c-3.37 6.846-7.09 13.158-12.752 18.149a37.196 37.196 0 0 1-2.248 1.832v26.683c0 27.669-22.27 49.938-49.938 49.938h-.129c-27.668 0-49.937-22.27-49.937-49.938V-.108a62.23 62.23 0 0 1-15-.238z" style="baseline-shift:baseline;display:inline;overflow:visible;opacity:1;vector-effect:none;fill:#000;stroke-linecap:square;stroke-linejoin:round;enable-background:accumulate;stop-color:#000;stop-opacity:1" transform="matrix(.26458 0 0 .26458 71.001 38.28)"/><path fill="currentColor" d="M47.98 58.008c-14.727-11.16-37.395-17.824-60.641-17.824-28.746 0-52.171 10.036-64.259 27.537-5.677 8.214-8.818 17.952-9.338 28.924-.46 9.772 1.184 20.582 4.878 32.21 12.615-37.828 47.855-67.442 88.484-67.442 0 0-38.016 10.002-61.918 40.995-21.008 25.827-16.257 39.968 15.79 40.475 15.654 0 26.78-3.388 35.028-10.657 7.388-6.512 11.466-15.271 15.781-24.532C18.374 93.538 25.84 77.5 47.52 65.116c2.653-1.514 2.895-5.247.46-7.09zM-266.663 57.981c14.726-11.159 37.394-17.824 60.64-17.824 28.746 0 52.171 10.036 64.259 27.537 5.677 8.214 8.818 17.952 9.338 28.924.46 9.772-1.184 20.583-4.878 32.21-12.615-37.828-47.855-67.442-88.484-67.442 0 0 38.015 10.002 61.918 40.995 21.008 25.827 16.257 39.968-15.79 40.475-15.654 0-26.78-3.388-35.028-10.657-7.389-6.512-11.466-15.27-15.782-24.532-6.588-14.156-14.053-30.193-35.734-42.578-2.653-1.513-2.895-5.247-.46-7.09z" style="stroke-width:8.51216" transform="matrix(.26458 0 0 .26458 71.001 38.28)"/></svg>
