<?xml version="1.0" encoding="UTF-8" standalone="no"?>
<!-- Created with Inkscape (http://www.inkscape.org/) -->

<svg
   width="167.75314mm"
   height="20.816568mm"
   viewBox="0 0 167.75315 20.816568"
   version="1.1"
   id="svg1"
   xml:space="preserve"
   xmlns:xlink="http://www.w3.org/1999/xlink"
   xmlns="http://www.w3.org/2000/svg"
   xmlns:svg="http://www.w3.org/2000/svg"><defs
     id="defs1"><mask
       maskUnits="userSpaceOnUse"
       x="0"
       y="0"
       width="1"
       height="1"
       id="mask1"></mask><clipPath
       clipPathUnits="userSpaceOnUse"
       id="clipPath1"><path
         d="m 10.201,11.072 h 179.533 v 166.09 H 10.201 Z"
         transform="matrix(0.00556999,0,0,-0.00602084,-0.05681502,1.0666638)"
         id="path1" /></clipPath><clipPath
       clipPathUnits="userSpaceOnUse"
       id="clipPath2"><path
         d="M 10,11 H 720 V 178 H 10 Z"
         transform="matrix(1.3333333,0,0,-1.3333333,0,252.968)"
         id="path2" /></clipPath><clipPath
       clipPathUnits="userSpaceOnUse"
       id="clipPath3"><path
         d="M 10,11 H 720 V 178 H 10 Z"
         id="path3" /></clipPath><clipPath
       clipPathUnits="userSpaceOnUse"
       id="clipPath4"><path
         d="M 10,11 H 720 V 178 H 10 Z"
         id="path4" /></clipPath><clipPath
       clipPathUnits="userSpaceOnUse"
       id="clipPath5"><path
         d="M 10,11 H 720 V 178 H 10 Z"
         id="path5" /></clipPath><clipPath
       clipPathUnits="userSpaceOnUse"
       id="clipPath6"><path
         d="M 10,11 H 720 V 178 H 10 Z"
         id="path6" /></clipPath><clipPath
       clipPathUnits="userSpaceOnUse"
       id="clipPath7"><path
         d="M 10,11 H 720 V 178 H 10 Z"
         id="path7" /></clipPath><clipPath
       clipPathUnits="userSpaceOnUse"
       id="clipPath8"><path
         d="M 10,11 H 720 V 178 H 10 Z"
         id="path8" /></clipPath><clipPath
       clipPathUnits="userSpaceOnUse"
       id="clipPath9"><path
         d="M 10,11 H 720 V 178 H 10 Z"
         id="path9" /></clipPath><clipPath
       clipPathUnits="userSpaceOnUse"
       id="clipPath10"><path
         d="M 10,11 H 720 V 178 H 10 Z"
         id="path10" /></clipPath><clipPath
       clipPathUnits="userSpaceOnUse"
       id="clipPath11"><path
         d="M 10,11 H 720 V 178 H 10 Z"
         id="path11" /></clipPath><clipPath
       clipPathUnits="userSpaceOnUse"
       id="clipPath12"><path
         d="M 10,11 H 720 V 178 H 10 Z"
         id="path12" /></clipPath><clipPath
       clipPathUnits="userSpaceOnUse"
       id="clipPath13"><path
         d="M 10,11 H 720 V 178 H 10 Z"
         id="path13" /></clipPath><clipPath
       clipPathUnits="userSpaceOnUse"
       id="clipPath14"><path
         d="M 10,11 H 720 V 178 H 10 Z"
         id="path14" /></clipPath><clipPath
       clipPathUnits="userSpaceOnUse"
       id="clipPath15"><path
         d="M 10,11 H 720 V 178 H 10 Z"
         id="path15" /></clipPath><clipPath
       clipPathUnits="userSpaceOnUse"
       id="clipPath16"><path
         d="M 10,11 H 720 V 178 H 10 Z"
         id="path16" /></clipPath><clipPath
       clipPathUnits="userSpaceOnUse"
       id="clipPath17"><path
         d="M 10,11 H 720 V 178 H 10 Z"
         id="path17" /></clipPath><clipPath
       clipPathUnits="userSpaceOnUse"
       id="clipPath18"><path
         d="M 10,11 H 720 V 178 H 10 Z"
         id="path18" /></clipPath><clipPath
       clipPathUnits="userSpaceOnUse"
       id="clipPath19"><path
         d="M 10,11 H 720 V 178 H 10 Z"
         transform="matrix(1.3333333,0,0,-1.3333333,0,252.968)"
         id="path19" /></clipPath><clipPath
       clipPathUnits="userSpaceOnUse"
       id="clipPath20"><path
         d="M 10,11 H 720 V 178 H 10 Z"
         transform="matrix(1.3333333,0,0,-1.3333333,0,252.968)"
         id="path20" /></clipPath><clipPath
       clipPathUnits="userSpaceOnUse"
       id="clipPath38"><path
         d="M 0,0 H 728 V 189 H 0 Z"
         transform="matrix(1.3333333,0,0,-1.3333333,0,252.968)"
         id="path38" /></clipPath></defs><g
     id="g1"
     transform="matrix(0.26458333,0,0,0.26458334,187.59465,-126.14901)"><g
       id="g38"
       clip-path="url(#clipPath38)"
       transform="translate(-1033.4737,447.92852)"><g
         clip-path="url(#clipPath2)"
         id="g20"><g
           clip-path="url(#clipPath19)"
           id="g36"><path
             d="m 274.8999,155.4321 -1.223,-8.089 h -12.561 c -1.108,0 -2.335,-0.632 -3.674,-1.896 -2.597,-2.478 -4.356,-6.779 -5.276,-12.9 -0.295,-1.895 -0.441,-3.695 -0.441,-5.395 0,-3.006 0.435,-5.417 1.3,-7.215 0.875,-1.798 2.102,-2.721 3.694,-2.77 h 12.311 l -1.227,-8.017 h -13.377 c -2.949,0 -5.443,1.215 -7.474,3.645 -2.407,2.914 -3.611,7.069 -3.611,12.463 0,1.991 0.176,4.129 0.535,6.415 1.485,9.765 4.889,16.641 10.203,20.625 2.746,2.089 5.287,3.134 7.632,3.134 z"
             style="fill:#d7342f;fill-opacity:1;fill-rule:nonzero;stroke:none"
             transform="matrix(1.3333333,0,0,-1.3333333,0,252.968)"
             clip-path="url(#clipPath3)"
             id="path21" /><path
             d="m 299.333,147.3433 h -5.87 c -2.261,0 -4.231,-1.494 -5.905,-4.478 -1.676,-2.994 -2.899,-7.014 -3.674,-12.068 h 12.907 z m -2.105,8.017 h 6.312 c 4.336,-0.049 5.958,-0.074 4.867,-0.074 l -7.063,-46.136 -7.851,-0.073 2.071,13.703 h -12.938 l -2.07,-13.63 -7.821,-0.073 3.486,22.703 c 1.486,9.737 4.891,16.57 10.205,20.512 2.721,2.047 5.276,3.068 7.666,3.068 z"
             style="fill:#d7342f;fill-opacity:1;fill-rule:nonzero;stroke:none"
             transform="matrix(1.3333333,0,0,-1.3333333,0,252.968)"
             clip-path="url(#clipPath4)"
             id="path22" /><path
             d="m 317.4238,130.9434 h 7.155 c 0.839,0 1.762,0.364 2.77,1.093 1.815,1.36 2.97,3.62 3.453,6.778 0.143,0.875 0.219,1.682 0.219,2.411 0,2.034 -0.459,3.59 -1.382,4.659 -0.756,0.972 -1.676,1.459 -2.763,1.459 h -6.943 z m -3.361,-21.793 -7.854,-0.073 7.067,46.283 h 16.457 c 2.367,0 4.479,-0.777 6.344,-2.333 2.511,-2.096 3.766,-5.248 3.766,-9.475 0,-1.215 -0.106,-2.478 -0.313,-3.79 -1.023,-6.802 -3.82,-11.638 -8.385,-14.505 -2.427,-1.554 -4.627,-2.332 -6.596,-2.332 h -8.352 z"
             style="fill:#d7342f;fill-opacity:1;fill-rule:nonzero;stroke:none"
             transform="matrix(1.3333333,0,0,-1.3333333,0,252.968)"
             clip-path="url(#clipPath5)"
             id="path23" /><path
             d="m 373.6016,155.2866 -1.223,-8.017 h -10.299 l -5.839,-38.119 -7.885,-0.073 5.841,38.192 h -10.302 l 1.224,8.017 z"
             style="fill:#d7342f;fill-opacity:1;fill-rule:nonzero;stroke:none"
             transform="matrix(1.3333333,0,0,-1.3333333,0,252.968)"
             clip-path="url(#clipPath6)"
             id="path24" /><path
             d="m 387.3086,149.0615 -1.35,-4.16 h -1.507 l 1.283,4.16 h -2.099 l 1.187,8.018 h 3.712 z"
             style="fill:#d7342f;fill-opacity:1;fill-rule:nonzero;stroke:none"
             transform="matrix(1.3333333,0,0,-1.3333333,0,252.968)"
             clip-path="url(#clipPath7)"
             id="path25" /><path
             d="m 417.7021,147.3433 h -5.874 c -2.266,0 -4.23,-1.494 -5.91,-4.478 -1.669,-2.994 -2.897,-7.014 -3.67,-12.068 h 12.908 z m -2.111,8.017 h 6.314 c 4.337,-0.049 5.958,-0.074 4.871,-0.074 l -7.067,-46.136 -7.85,-0.073 2.073,13.703 h -12.943 l -2.074,-13.63 -7.815,-0.073 3.483,22.703 c 1.487,9.737 4.889,16.57 10.208,20.512 2.722,2.047 5.275,3.068 7.659,3.068 z"
             style="fill:#d7342f;fill-opacity:1;fill-rule:nonzero;stroke:none"
             transform="matrix(1.3333333,0,0,-1.3333333,0,252.968)"
             clip-path="url(#clipPath8)"
             id="path26" /><path
             d="m 439.5264,155.4321 -7.096,-46.282 -7.856,-0.073 7.065,46.283 z"
             style="fill:#d7342f;fill-opacity:1;fill-rule:nonzero;stroke:none"
             transform="matrix(1.3333333,0,0,-1.3333333,0,252.968)"
             clip-path="url(#clipPath9)"
             id="path27" /><path
             d="m 462.1357,141.2256 c 0,2.034 -0.459,3.59 -1.382,4.659 -0.756,0.972 -1.676,1.459 -2.765,1.459 h -6.938 l -2.514,-16.4 h 7.157 c 0.844,0 1.761,0.364 2.763,1.093 1.829,1.36 2.977,3.62 3.459,6.777 0.147,0.875 0.22,1.683 0.22,2.412 m -0.03,-16.163 3.513,-15.985 -7.726,0.073 -3.043,13.775 h -7.541 l -2.132,-13.775 -7.85,-0.073 7.062,46.282 h 16.46 c 2.368,0 4.475,-0.782 6.343,-2.338 2.509,-2.09 3.766,-5.254 3.766,-9.487 0,-1.215 -0.104,-2.485 -0.309,-3.796 -1.007,-6.621 -3.857,-11.505 -8.543,-14.676"
             style="fill:#d7342f;fill-opacity:1;fill-rule:nonzero;stroke:none"
             transform="matrix(1.3333333,0,0,-1.3333333,0,252.968)"
             clip-path="url(#clipPath10)"
             id="path28" /><path
             d="m 513.1953,155.2866 -1.25,-8.017 h -14.137 c -0.964,0 -1.895,-0.243 -2.795,-0.734 -1.698,-0.883 -2.701,-2.395 -3.016,-4.544 -0.081,-0.444 -0.124,-0.856 -0.124,-1.252 0,-1.712 0.583,-2.962 1.761,-3.742 0.793,-0.533 1.704,-0.808 2.728,-0.808 h 3.799 c 2.099,0 3.981,-0.631 5.655,-1.894 2.369,-1.743 3.547,-4.428 3.547,-8.067 0,-0.917 -0.072,-1.912 -0.219,-2.975 -0.858,-5.529 -3.328,-9.525 -7.407,-11.996 -2.093,-1.305 -4.075,-2.013 -5.937,-2.107 l -16.676,-0.073 1.227,8.09 h 14.222 c 0.965,0 1.903,0.243 2.827,0.734 1.674,0.875 2.679,2.401 3.012,4.551 0.068,0.436 0.095,0.855 0.095,1.245 0,1.712 -0.589,2.957 -1.758,3.74 -0.793,0.542 -1.695,0.801 -2.7,0.801 h -3.927 c -2.071,0 -3.943,0.639 -5.615,1.897 -2.369,1.797 -3.553,4.482 -3.553,8.065 0,0.925 0.072,1.92 0.219,2.982 0.859,5.528 3.319,9.525 7.379,11.997 2.092,1.299 4.084,2.01 5.967,2.107 z"
             style="fill:#d7342f;fill-opacity:1;fill-rule:nonzero;stroke:none"
             transform="matrix(1.3333333,0,0,-1.3333333,0,252.968)"
             clip-path="url(#clipPath11)"
             id="path29" /><path
             d="m 538.4453,137.356 c 0,3.021 -0.44,5.43 -1.324,7.253 -0.872,1.823 -2.102,2.734 -3.663,2.734 h -2.553 c -1.106,0 -2.345,-0.656 -3.703,-1.968 -2.593,-2.528 -4.364,-6.829 -5.306,-12.901 -0.269,-1.896 -0.413,-3.693 -0.413,-5.393 0,-3.014 0.441,-5.421 1.321,-7.217 0.882,-1.799 2.108,-2.696 3.672,-2.696 h 2.549 c 1.132,0 2.354,0.655 3.674,1.968 2.594,2.477 4.367,6.753 5.306,12.827 0.294,1.896 0.44,3.693 0.44,5.393 m 4.741,14.359 c 2.407,-2.866 3.612,-6.996 3.612,-12.391 0,-1.998 -0.172,-4.13 -0.499,-6.413 -1.507,-9.816 -4.927,-16.716 -10.241,-20.7 -2.72,-2.041 -5.262,-3.061 -7.632,-3.061 h -4.209 c -2.991,0 -5.491,1.263 -7.508,3.79 -2.344,2.963 -3.514,7.167 -3.514,12.608 0,2.145 0.189,4.424 0.565,6.859 1.443,9.414 4.813,16.077 10.115,19.965 2.738,2.041 5.28,3.06 7.631,3.06 h 4.242 c 2.927,0 5.409,-1.238 7.438,-3.717"
             style="fill:#d7342f;fill-opacity:1;fill-rule:nonzero;stroke:none"
             transform="matrix(1.3333333,0,0,-1.3333333,0,252.968)"
             clip-path="url(#clipPath12)"
             id="path30" /><path
             d="m 573.8047,117.1675 -1.221,-8.09 -12.53,0.073 c -2.996,0 -5.5,1.262 -7.511,3.789 -2.362,2.963 -3.547,7.168 -3.547,12.609 0,2.042 0.179,4.253 0.538,6.64 l 3.541,23.171 7.826,0.073 -3.52,-22.929 c -0.289,-1.852 -0.437,-3.578 -0.437,-5.188 0,-3.115 0.486,-5.581 1.464,-7.408 0.972,-1.823 2.28,-2.74 3.933,-2.74 z"
             style="fill:#d7342f;fill-opacity:1;fill-rule:nonzero;stroke:none"
             transform="matrix(1.3333333,0,0,-1.3333333,0,252.968)"
             clip-path="url(#clipPath13)"
             id="path31" /><path
             d="m 603.5449,147.3433 h -5.867 c -2.263,0 -4.231,-1.494 -5.905,-4.478 -1.675,-2.994 -2.902,-7.014 -3.676,-12.068 h 12.909 z m -2.099,8.017 h 6.313 c 4.33,-0.049 5.954,-0.074 4.867,-0.074 l -7.07,-46.136 -7.85,-0.073 2.077,13.703 h -12.943 l -2.069,-13.63 -7.82,-0.073 3.481,22.703 c 1.488,9.737 4.891,16.57 10.207,20.512 2.726,2.047 5.278,3.068 7.666,3.068 z"
             style="fill:#d7342f;fill-opacity:1;fill-rule:nonzero;stroke:none"
             transform="matrix(1.3333333,0,0,-1.3333333,0,252.968)"
             clip-path="url(#clipPath14)"
             id="path32" /><path
             d="m 625.373,155.4321 -7.098,-46.282 -7.854,-0.073 7.067,46.283 z"
             style="fill:#d7342f;fill-opacity:1;fill-rule:nonzero;stroke:none"
             transform="matrix(1.3333333,0,0,-1.3333333,0,252.968)"
             clip-path="url(#clipPath15)"
             id="path33" /><path
             d="m 647.9814,141.2256 c 0,2.034 -0.454,3.59 -1.378,4.659 -0.75,0.972 -1.676,1.459 -2.769,1.459 h -6.936 l -2.51,-16.4 h 7.156 c 0.841,0 1.757,0.364 2.763,1.093 1.823,1.36 2.977,3.62 3.45,6.777 0.152,0.875 0.224,1.683 0.224,2.412 m -0.029,-16.163 3.519,-15.985 -7.729,0.073 -3.039,13.775 h -7.541 l -2.136,-13.775 -7.851,-0.073 7.068,46.282 h 16.452 c 2.367,0 4.473,-0.782 6.344,-2.338 2.507,-2.09 3.764,-5.254 3.764,-9.487 0,-1.215 -0.101,-2.485 -0.309,-3.796 -1.001,-6.621 -3.851,-11.505 -8.542,-14.676"
             style="fill:#d7342f;fill-opacity:1;fill-rule:nonzero;stroke:none"
             transform="matrix(1.3333333,0,0,-1.3333333,0,252.968)"
             clip-path="url(#clipPath16)"
             id="path34" /><path
             d="m 689.2754,155.4321 -1.221,-8.089 h -12.56 c -1.712,0 -3.323,-1.027 -4.822,-3.086 -1.496,-2.048 -2.643,-4.714 -3.432,-7.993 h 19.114 l -1.221,-8.025 h -19.054 c -0.047,-3.564 0.414,-6.315 1.373,-8.247 0.899,-1.835 2.12,-2.776 3.644,-2.825 h 12.312 l -1.227,-8.017 h -13.381 c -2.946,0 -5.442,1.215 -7.47,3.645 -2.406,2.914 -3.609,7.069 -3.609,12.463 0,1.991 0.177,4.129 0.535,6.415 1.483,9.765 4.889,16.641 10.199,20.625 2.744,2.089 5.29,3.134 7.634,3.134 z"
             style="fill:#d7342f;fill-opacity:1;fill-rule:nonzero;stroke:none"
             transform="matrix(1.3333333,0,0,-1.3333333,0,252.968)"
             clip-path="url(#clipPath17)"
             id="path35" /><path
             d="m 710.7773,160.5527 c 0.079,0.56 -0.353,0.839 -1.293,0.839 -0.267,0 -0.442,-0.202 -0.498,-0.602 -0.02,-0.121 -0.043,-0.298 -0.079,-0.546 -0.025,-0.244 -0.03,-0.413 -0.05,-0.522 0.098,-0.08 0.221,-0.122 0.341,-0.122 0.954,0 1.47,0.322 1.579,0.953 m 5.747,-1.846 c 0.334,2.095 -0.043,3.837 -1.13,5.228 -1.118,1.424 -2.721,2.127 -4.805,2.127 -1.483,0 -2.868,-0.413 -4.119,-1.25 -0.102,-0.067 -0.17,-0.141 -0.175,-0.219 0.005,-0.067 0.048,-0.104 0.122,-0.104 0.376,0 0.953,0.012 1.73,0.03 0.772,0.02 1.356,0.025 1.737,0.025 1.555,0 2.837,-0.194 3.838,-0.609 1.386,-0.589 1.975,-1.536 1.769,-2.847 -0.207,-1.355 -0.93,-2.4 -2.175,-3.122 -0.157,-0.098 -0.243,-0.194 -0.268,-0.285 l 1.252,-3.439 c 1.221,1.258 1.962,2.746 2.224,4.465 m -3.371,-5.339 c 0.012,0.104 -0.298,0.164 -0.912,0.164 -0.261,0 -0.643,-0.017 -1.166,-0.038 -0.51,-0.017 -0.901,-0.03 -1.153,-0.03 -0.213,0 -0.329,0.075 -0.347,0.214 -0.541,2.247 -0.875,3.384 -1.002,3.401 -0.055,-0.2 -0.098,-0.34 -0.115,-0.42 -0.049,-0.357 -0.104,-0.874 -0.128,-1.585 -0.025,-0.697 -0.067,-1.226 -0.122,-1.58 -0.012,-0.065 -0.061,-0.096 -0.152,-0.096 -0.273,0 -0.705,0.019 -1.258,0.066 -0.545,0.051 -0.971,0.068 -1.245,0.068 -0.552,0 -1.087,-0.017 -1.616,-0.068 1.203,-1.232 2.667,-1.846 4.379,-1.846 1.679,0 3.19,0.462 4.508,1.373 0.201,0.127 0.309,0.261 0.329,0.377 m -8.766,5.612 c 0.255,1.605 0.425,3.134 0.523,4.612 -1.397,-1.35 -2.259,-2.978 -2.557,-4.885 -0.262,-1.621 0.097,-3.147 1.081,-4.586 0.529,2.515 0.838,4.131 0.953,4.859 m 14.348,-0.237 c -0.413,-2.581 -1.657,-4.767 -3.767,-6.577 -2.094,-1.817 -4.427,-2.722 -6.997,-2.722 -2.545,0 -4.592,0.911 -6.123,2.734 -1.536,1.821 -2.101,4.008 -1.7,6.565 0.407,2.569 1.664,4.774 3.76,6.603 2.101,1.822 4.428,2.739 7.003,2.739 2.588,0 4.641,-0.917 6.16,-2.726 1.512,-1.829 2.065,-4.035 1.664,-6.616"
             style="fill:#d7342f;fill-opacity:1;fill-rule:nonzero;stroke:none"
             transform="matrix(1.3333333,0,0,-1.3333333,0,252.968)"
             clip-path="url(#clipPath18)"
             id="path36" /></g></g></g></g></svg>
