<svg xmlns="http://www.w3.org/2000/svg" width="356" height="89" fill="none"><g fill="#a81b18" fill-rule="evenodd" class="logo_letter" clip-rule="evenodd"><path d="M222.74 42.898c-.601 0-1.115.189-1.561.55-.446.36-.721.84-.858 1.44h4.254c0-.617-.154-1.098-.48-1.458-.309-.36-.772-.532-1.355-.532m-2.47 2.556v.034c0 .618.188 1.115.549 1.476.36.377.857.548 1.475.548.36 0 .686-.051 1.012-.171s.6-.292.84-.515l.36.498c-.291.274-.634.463-1.012.617a3.6 3.6 0 0 1-1.235.206c-.548 0-1.012-.103-1.423-.326a2.4 2.4 0 0 1-.961-.926 2.8 2.8 0 0 1-.343-1.39c0-.6.137-1.166.429-1.646.274-.498.669-.875 1.166-1.166a3.3 3.3 0 0 1 1.63-.43c.772 0 1.389.224 1.835.687q.669.694.669 1.852 0 .283-.051.67h-4.94zm-5.592 2.075c.446 0 .858-.12 1.235-.343a2.6 2.6 0 0 0 .892-.943c.223-.394.326-.84.326-1.32 0-.601-.189-1.081-.549-1.442-.36-.377-.841-.548-1.424-.548-.446 0-.875.12-1.252.343-.377.24-.686.549-.909.943-.223.395-.326.84-.326 1.32 0 .601.189 1.081.549 1.442.377.36.858.548 1.458.548m-.24.635c-.498 0-.926-.103-1.304-.326a2.3 2.3 0 0 1-.892-.926c-.205-.395-.308-.84-.308-1.355 0-.617.137-1.184.428-1.68.275-.516.669-.91 1.15-1.202a3 3 0 0 1 1.595-.446c.583 0 1.08.138 1.492.43.412.29.669.685.806 1.2l.806-4.014h.738l-1.647 8.25h-.737l.24-1.131a2.9 2.9 0 0 1-1.029.857c-.429.24-.858.343-1.338.343M323.822 48.165c-1.355 0-2.675-.24-3.945-.72-1.269-.481-2.332-1.133-3.207-1.973l1.938-2.78a9 9 0 0 0 2.436 1.596c.892.395 1.715.6 2.487.6.48 0 .875-.085 1.132-.274a.89.89 0 0 0 .412-.772c0-.274-.172-.514-.498-.72s-.857-.446-1.578-.72a20 20 0 0 1-2.092-.944 4 4 0 0 1-1.441-1.252c-.395-.532-.601-1.184-.601-1.956 0-.909.24-1.715.704-2.4.463-.704 1.132-1.236 1.972-1.63.841-.395 1.818-.584 2.916-.584q1.75 0 3.499.618c1.167.412 2.196.978 3.122 1.68l-2.041 2.78c-.806-.566-1.595-1.012-2.402-1.338-.789-.326-1.475-.498-2.024-.498-.377 0-.703.086-.96.275-.257.188-.395.411-.395.686 0 .274.172.532.515.737.343.206.875.446 1.578.738.858.343 1.561.669 2.127.978a4.4 4.4 0 0 1 1.458 1.252c.412.531.617 1.183.617 1.972 0 .91-.24 1.715-.737 2.402-.48.703-1.167 1.235-2.041 1.63-.841.428-1.836.617-2.951.617M313.154 36.02c1.269-1.596 2.898-2.385 4.888-2.385l-.549 4.271a6 6 0 0 0-.686-.034c-1.149 0-2.161.309-3.019.91-.857.617-1.423 1.389-1.664 2.349l-1.355 6.827h-4.665l2.83-14.168h4.666zm-12.402 3.636c.017-.103.035-.274.035-.497 0-.67-.206-1.184-.601-1.578-.394-.395-.943-.584-1.629-.584-.738 0-1.39.24-1.99.738-.6.48-1.046 1.132-1.355 1.938h5.54zm-2.47-5.97c1.39 0 2.608.258 3.654.79s1.835 1.27 2.401 2.213.841 2.058.841 3.344c0 .6-.086 1.304-.258 2.127h-10.068c.086.806.394 1.424.909 1.853.532.428 1.235.651 2.127.651q1.75 0 3.242-1.183l2.332 2.538c-1.578 1.424-3.499 2.145-5.763 2.145-1.509 0-2.813-.258-3.928-.79-1.115-.531-1.989-1.269-2.59-2.246-.617-.978-.909-2.11-.909-3.397 0-1.526.343-2.881 1.029-4.116a7.6 7.6 0 0 1 2.865-2.882c1.218-.703 2.607-1.046 4.116-1.046m-10.068-6.38q.952 0 1.492.566c.36.377.549.875.549 1.475 0 .824-.292 1.51-.875 2.076a2.97 2.97 0 0 1-2.127.857c-.617 0-1.097-.188-1.458-.566-.36-.377-.549-.875-.549-1.475 0-.823.292-1.51.875-2.075.566-.583 1.27-.858 2.093-.858m1.046 6.518-2.796 14.168h-4.665l2.83-14.168zm-12.778 9.297a2.3 2.3 0 0 0-.052.549c0 .291.069.497.189.617.137.12.343.155.617.137.532 0 1.184-.188 1.956-.549l.497 3.465a7.1 7.1 0 0 1-1.852.635 9.3 9.3 0 0 1-2.024.223q-1.905 0-3.036-.978-1.132-.977-1.132-2.676c0-.36.034-.72.102-1.046l1.184-5.883h-1.921l.6-3.088h1.956l.789-3.928h4.631l-.789 3.928h3.67l-.6 3.088h-3.688zm-12.968-15.317 3.842 1.457-3.79 3.02-3.191-.258zm1.338 11.852c.017-.103.034-.274.034-.497 0-.67-.205-1.184-.6-1.578-.394-.395-.943-.584-1.629-.584-.738 0-1.39.24-1.99.738-.6.48-1.046 1.132-1.355 1.938h5.54zm-2.47-5.97c1.39 0 2.607.258 3.654.79s1.835 1.27 2.401 2.213.84 2.058.84 3.344c0 .6-.085 1.304-.257 2.127h-10.051c.086.806.394 1.424.909 1.853.532.428 1.235.651 2.127.651q1.75 0 3.242-1.183l2.332 2.538c-1.578 1.424-3.499 2.145-5.763 2.145-1.509 0-2.813-.258-3.928-.79-1.115-.531-1.989-1.269-2.59-2.246-.617-.978-.909-2.11-.909-3.397 0-1.526.343-2.881 1.029-4.116a7.6 7.6 0 0 1 2.865-2.882c1.218-.703 2.59-1.046 4.099-1.046m-13.447-4.064h5.18l-3.568 18.353h-4.22l2.299-11.784-6.707 9.949h-3.07l-2.796-9.983-2.298 11.8h-4.22l3.568-18.352h5.163l3.242 10.874zM222.931 65.402c.12 0 .223.035.309.12a.43.43 0 0 1 .137.31.8.8 0 0 1-.034.222 2 2 0 0 1-.137.275l-.669 1.218h-.446l.549-1.201a.44.44 0 0 1-.24-.412q0-.206.154-.36a.46.46 0 0 1 .377-.172m-2.109 0-1.647 8.25h-.738l1.647-8.25zm-8.971 3.02c-.6 0-1.115.188-1.561.548s-.72.84-.858 1.44h4.254c0-.617-.154-1.097-.48-1.457s-.772-.532-1.355-.532m-2.487 2.572v.034c0 .618.188 1.115.549 1.475.36.36.857.55 1.475.55.36 0 .686-.052 1.012-.172s.6-.292.84-.515l.36.498c-.291.274-.634.463-1.012.617a3.6 3.6 0 0 1-1.235.206c-.548 0-1.012-.103-1.423-.326a2.4 2.4 0 0 1-.961-.926 2.8 2.8 0 0 1-.343-1.39c0-.6.137-1.166.429-1.646.274-.498.669-.875 1.166-1.166a3.3 3.3 0 0 1 1.63-.43c.772 0 1.389.224 1.835.687q.669.694.669 1.852 0 .283-.051.67h-4.94zm-5.575 2.076c.446 0 .858-.12 1.235-.343a2.6 2.6 0 0 0 .892-.944c.223-.394.326-.84.326-1.32 0-.6-.189-1.081-.549-1.441s-.84-.55-1.423-.55c-.446 0-.875.12-1.253.344-.377.24-.686.549-.909.943-.223.395-.326.84-.326 1.32 0 .601.189 1.082.549 1.442s.858.549 1.458.549m-.24.634c-.497 0-.926-.103-1.303-.326a2.3 2.3 0 0 1-.892-.926c-.206-.394-.309-.84-.309-1.355 0-.617.137-1.183.429-1.68.274-.516.669-.91 1.149-1.202a3 3 0 0 1 1.595-.446c.583 0 1.081.138 1.492.43.412.29.669.685.806 1.2l.807-4.014h.737l-1.646 8.25h-.738l.24-1.132a2.9 2.9 0 0 1-1.029.858c-.429.24-.875.343-1.338.343m-8.559-1.75a1.7 1.7 0 0 0-.051.412c0 .223.051.378.154.48q.154.155.463.155a2.25 2.25 0 0 0 1.029-.326l.155.6a2.73 2.73 0 0 1-1.355.43c-.378 0-.669-.104-.892-.31-.223-.205-.326-.497-.326-.874 0-.138.017-.31.051-.498l.686-3.43h-.84l.103-.583h.84l.309-1.493h.737l-.308 1.493h1.886l-.102.583h-1.887zm-4.734-3.533c-.6 0-1.115.189-1.561.55-.446.36-.72.84-.858 1.44h4.254c0-.618-.154-1.098-.48-1.458s-.772-.532-1.355-.532m-2.487 2.573v.034c0 .618.188 1.115.549 1.475.36.36.857.55 1.475.55.36 0 .686-.052 1.012-.172s.6-.292.84-.515l.36.498c-.291.274-.634.463-1.012.617a3.6 3.6 0 0 1-1.234.206c-.549 0-1.013-.103-1.424-.326a2.4 2.4 0 0 1-.961-.926 2.8 2.8 0 0 1-.343-1.39c0-.6.137-1.166.429-1.646.275-.498.669-.875 1.166-1.166a3.3 3.3 0 0 1 1.63-.43c.772 0 1.389.224 1.835.687q.669.694.669 1.852 0 .283-.051.67h-4.94zM350.596 69.296a2.3 2.3 0 0 0-.052.549c0 .291.069.497.189.617.137.12.343.155.617.138.532 0 1.184-.189 1.956-.55l.497 3.466a7.1 7.1 0 0 1-1.852.634 9.3 9.3 0 0 1-2.024.223q-1.905 0-3.036-.978-1.132-.977-1.132-2.675c0-.36.034-.72.102-1.047l1.184-5.883h-1.938l.6-3.087h1.955l.789-3.928h4.632l-.789 3.928h3.67l-.6 3.087h-3.688zm-16.673 1.475c.652 0 1.252-.189 1.801-.549.566-.36.995-.857 1.321-1.492s.48-1.32.48-2.075c0-.892-.24-1.596-.72-2.127-.48-.532-1.115-.807-1.921-.807q-.978.001-1.801.566a4 4 0 0 0-1.304 1.51 4.36 4.36 0 0 0-.48 2.041c0 .892.24 1.595.72 2.127.481.532 1.115.806 1.904.806m-1.801 3.585c-1.063 0-2.024-.257-2.847-.789a5.3 5.3 0 0 1-1.955-2.195c-.463-.944-.686-2.025-.686-3.242 0-1.544.325-2.933.977-4.185a7.8 7.8 0 0 1 2.693-2.985c1.149-.738 2.402-1.098 3.791-1.098 2.127 0 3.602.84 4.391 2.522l.463-2.35h4.631l-2.796 14.168h-4.665l.343-1.681c-1.235 1.218-2.693 1.835-4.34 1.835m-11.955-14.528c1.492 0 2.659.429 3.533 1.27.875.84 1.304 1.955 1.304 3.344 0 .515-.051.96-.137 1.355l-1.681 8.37h-4.666l1.544-7.701a3.2 3.2 0 0 0 .086-.686c0-.635-.189-1.115-.549-1.475s-.875-.532-1.527-.532c-.789 0-1.492.291-2.109.892-.618.6-1.029 1.355-1.218 2.298l-1.441 7.204h-4.665L311.436 60h4.666l-.36 1.887q1.749-2.058 4.425-2.058M298.229 70.77c.652 0 1.252-.189 1.801-.549.566-.36.995-.857 1.321-1.492s.48-1.32.48-2.075c0-.892-.24-1.596-.72-2.127-.481-.532-1.115-.807-1.921-.807a3.1 3.1 0 0 0-1.801.566 3.86 3.86 0 0 0-1.304 1.51 4.36 4.36 0 0 0-.48 2.041c0 .892.24 1.595.72 2.127s1.115.806 1.904.806m-1.801 3.585c-1.063 0-2.024-.257-2.847-.789a5.3 5.3 0 0 1-1.956-2.195c-.463-.944-.686-2.025-.686-3.242 0-1.544.326-2.933.978-4.185a7.8 7.8 0 0 1 2.693-2.985c1.149-.738 2.401-1.098 3.791-1.098 2.126 0 3.602.84 4.391 2.522l.463-2.35h4.631l-2.796 14.168h-4.665l.343-1.681c-1.235 1.218-2.676 1.835-4.34 1.835m-13.173 0c-1.355 0-2.676-.24-3.945-.72s-2.333-1.132-3.208-1.973l1.939-2.779a9 9 0 0 0 2.435 1.596c.892.394 1.715.6 2.487.6.481 0 .875-.086 1.132-.275a.89.89 0 0 0 .412-.771c0-.275-.172-.515-.497-.72-.326-.207-.858-.447-1.578-.721a20 20 0 0 1-2.093-.944 4 4 0 0 1-1.441-1.252c-.394-.532-.6-1.183-.6-1.955 0-.91.24-1.715.703-2.401.463-.704 1.132-1.235 1.973-1.63.84-.377 1.818-.583 2.916-.583q1.749 0 3.499.617c1.166.412 2.195.978 3.121 1.681l-2.041 2.779c-.806-.566-1.595-1.012-2.401-1.338-.789-.326-1.475-.497-2.024-.497-.377 0-.703.086-.961.274-.257.189-.394.412-.394.686s.171.532.514.738.875.446 1.578.737c.858.343 1.561.67 2.127.978a4.4 4.4 0 0 1 1.458 1.252c.412.532.618 1.184.618 1.973 0 .909-.24 1.715-.738 2.401-.48.703-1.166 1.235-2.041 1.63a7 7 0 0 1-2.95.617m-8.096-20.875q.952.001 1.492.566c.36.378.549.875.549 1.476 0 .823-.292 1.509-.875 2.075a2.97 2.97 0 0 1-2.127.858c-.617 0-1.097-.189-1.458-.566-.36-.378-.548-.875-.548-1.476 0-.823.291-1.509.874-2.075a2.86 2.86 0 0 1 2.093-.858M276.205 60l-2.796 14.168h-4.665L271.574 60zm-12.778 9.297a2.3 2.3 0 0 0-.052.549c0 .291.069.497.189.617.137.12.343.155.617.138.532 0 1.184-.189 1.956-.55l.497 3.466a7.1 7.1 0 0 1-1.852.634 9.3 9.3 0 0 1-2.024.223q-1.905 0-3.036-.978-1.132-.977-1.132-2.675c0-.36.034-.72.102-1.047l1.184-5.883h-1.938l.6-3.087h1.956l.789-3.928h4.631l-.789 3.928h3.67l-.6 3.087h-3.688zm-10.618-7.084c1.269-1.595 2.899-2.384 4.889-2.384l-.549 4.27a6 6 0 0 0-.686-.034c-1.15 0-2.162.31-3.019.91-.858.617-1.424 1.389-1.664 2.35l-1.355 6.826h-4.665l2.83-14.168h4.665zm-20.463 5.043h5.129l-1.441-6.655zm6.638 6.912-.703-3.242h-7.959l-1.801 3.242h-4.888l10.926-18.353h4.923l4.665 18.353zM301.576 21.27c-.687 0-1.338-.12-1.973-.361-.635-.24-1.166-.566-1.595-.995l.96-1.39c.361.327.772.601 1.218.807s.858.309 1.252.309c.241 0 .429-.052.566-.137a.44.44 0 0 0 .206-.395q0-.206-.257-.36a5 5 0 0 0-.789-.36 18 18 0 0 1-1.046-.464 2.5 2.5 0 0 1-.721-.617c-.206-.274-.309-.583-.309-.978 0-.446.121-.857.361-1.2s.566-.618.995-.806a3.6 3.6 0 0 1 1.457-.292q.876 0 1.75.309a5.5 5.5 0 0 1 1.561.84l-1.029 1.39a7 7 0 0 0-1.201-.67c-.394-.171-.737-.257-1.012-.257a.84.84 0 0 0-.48.137.38.38 0 0 0-.189.344q0 .206.257.36c.172.103.429.223.789.36.429.171.789.343 1.064.497.292.155.532.36.737.635.206.274.309.6.309.995 0 .446-.12.857-.36 1.2-.24.344-.583.618-1.029.807-.446.205-.944.291-1.492.291m-5.832-4.255c.017-.051.017-.137.017-.257 0-.326-.103-.6-.309-.789s-.463-.291-.806-.291c-.36 0-.703.12-.995.36-.291.24-.532.566-.686.96h2.779zm-1.235-2.984c.703 0 1.303.137 1.818.394a2.87 2.87 0 0 1 1.201 1.098c.274.48.411 1.03.411 1.664 0 .291-.051.652-.137 1.063h-5.008c.051.395.188.704.463.927.257.223.617.326 1.063.326a2.57 2.57 0 0 0 1.63-.584l1.166 1.27q-1.184 1.08-2.882 1.08c-.754 0-1.406-.137-1.955-.394a2.9 2.9 0 0 1-1.304-1.132c-.308-.48-.463-1.064-.463-1.698q0-1.132.515-2.059a3.64 3.64 0 0 1 1.441-1.44c.6-.344 1.286-.515 2.041-.515m-6.312 1.166c.634-.789 1.458-1.183 2.452-1.183l-.274 2.127c-.086-.017-.189-.017-.343-.017-.583 0-1.081.154-1.509.463q-.644.462-.824 1.183l-.686 3.413h-2.333l1.407-7.083h2.333zm-7.685.618c-.326 0-.617.085-.909.274a2.2 2.2 0 0 0-.669.755c-.154.309-.24.652-.24 1.029 0 .446.12.806.36 1.063.241.275.566.395.961.395.326 0 .617-.086.892-.274.274-.19.497-.43.652-.755.154-.309.24-.652.24-1.03q0-.668-.36-1.08c-.206-.24-.515-.377-.927-.377m.909-1.784a2.7 2.7 0 0 1 1.441.394c.412.258.738.635.961 1.098s.343 1.012.343 1.63c0 .771-.172 1.475-.498 2.11a3.67 3.67 0 0 1-1.355 1.492 3.46 3.46 0 0 1-1.886.549c-.532 0-.978-.103-1.338-.326-.378-.206-.652-.532-.858-.944l-.24 1.15h-2.316l1.921-9.709h2.333l-.686 3.482a3.5 3.5 0 0 1 1.012-.686c.36-.154.772-.24 1.166-.24m-8.919-.017c.738 0 1.338.206 1.767.634.429.43.652.978.652 1.664 0 .258-.018.48-.069.686l-.84 4.185h-2.316l.755-3.842c.034-.137.034-.257.034-.36 0-.309-.086-.549-.274-.72a1.07 1.07 0 0 0-.755-.275c-.378 0-.738.155-1.046.446a2.07 2.07 0 0 0-.601 1.15l-.72 3.601h-2.333l.772-3.842c.034-.12.034-.24.034-.343 0-.309-.086-.566-.274-.737a1.07 1.07 0 0 0-.755-.275c-.394 0-.737.155-1.046.446a2.07 2.07 0 0 0-.601 1.15l-.72 3.601h-2.333l1.407-7.083h2.333l-.189.943c.566-.686 1.303-1.03 2.195-1.03q.901 0 1.493.412.617.412.823 1.132c.686-1.029 1.561-1.543 2.607-1.543m-15.9 5.471c.326 0 .617-.085.909-.274.274-.189.497-.429.669-.755.154-.308.24-.652.24-1.029 0-.446-.12-.806-.36-1.063-.24-.275-.566-.395-.961-.395-.326 0-.617.086-.892.275a2 2 0 0 0-.652.754c-.154.309-.24.652-.24 1.03 0 .445.12.806.361 1.063.223.257.531.394.926.394m-.909 1.784a2.65 2.65 0 0 1-1.424-.394c-.412-.258-.738-.635-.978-1.098-.223-.463-.343-1.012-.343-1.63 0-.771.172-1.457.498-2.092a3.7 3.7 0 0 1 1.355-1.492c.566-.36 1.2-.55 1.887-.55 1.063 0 1.801.412 2.195 1.253l.24-1.184h2.316l-1.407 7.084H257.7l.171-.84c-.617.634-1.338.943-2.178.943m-5.969-7.255c.737 0 1.338.206 1.766.634.446.43.669.995.669 1.681 0 .189-.017.412-.068.652l-.858 4.185h-2.316l.755-3.842c.034-.12.034-.24.034-.343 0-.309-.085-.566-.274-.737a1.07 1.07 0 0 0-.755-.275c-.394 0-.737.155-1.046.446a2.07 2.07 0 0 0-.6 1.15l-.721 3.601h-2.332l1.903-9.708h2.35l-.703 3.568c.566-.67 1.304-1.012 2.196-1.012m-9.451-2.144c.686 0 1.337.137 1.972.429.635.291 1.167.668 1.578 1.166l-1.578 1.68a3 3 0 0 0-.96-.891 2.3 2.3 0 0 0-1.184-.326c-.497 0-.96.137-1.389.394-.429.258-.772.6-1.012 1.047a2.84 2.84 0 0 0-.378 1.458c0 .446.103.857.292 1.235a2.16 2.16 0 0 0 1.955 1.166c.378 0 .772-.103 1.218-.292a4.1 4.1 0 0 0 1.184-.788l1.252 1.509a6.2 6.2 0 0 1-1.904 1.252c-.721.309-1.407.463-2.076.463q-1.26 0-2.264-.566a3.93 3.93 0 0 1-1.543-1.544c-.361-.651-.549-1.406-.549-2.23q0-1.44.72-2.624a5.07 5.07 0 0 1 1.956-1.852c.823-.463 1.732-.686 2.71-.686"/></g><g fill="#a81b18" fill-rule="evenodd" class="logo_symbol" clip-rule="evenodd"><path d="M153.103 54.048h-25.008l-5.626 16.57s19.794 2.486 32.95-9.95zM106.312 44.614a49 49 0 0 0 3.723 18.748l21.749-61.544a48.53 48.53 0 0 0-25.472 42.796M166.876 5.9c-5.266-2.676-12.384-4.682-18.13-5.317h-.172l15.883 46.62c4.7-8.439 9.211-26.5 2.419-41.303M82.83 37.255c-.463 1.235-7.993 21.184-10.103 26.724 4.22-1.15 8.61-2.762 13.053-4.854-1.046-7.736-2.813-20.789-2.95-21.87m-28.748 28.25c4.237.618 9.09.412 14.305-.6L58.32 37.273c-.67 4.373-.91 6.226-4.237 28.232M50.978 22.967c-2.264 1.544-6.004 4.854-8.868 11.2-5.249 11.647-.36 21.647 2.573 26.09zM60.309 19.177c2.47 6.123 10.634 26.363 11.063 27.41.412-1.081 8.456-21.887 10.686-27.668-8.937-1.39-16.844-1.166-21.75.258M99.826 32.195c-1.458-5.608-4.22-9.382-9.674-11.097l4.872 32.315c6.672-6.38 6.26-15.626 4.802-21.218"/><path d="M105.934 83.5c-57.238 0-90.12-15.077-90.12-38.456 0-23.293 30.995-38.01 82.504-39.691 1.44-.052 3.465-.086 6.072-.12a1.995 1.995 0 0 0 1.973-2.024 2 2 0 0 0-.103-.618 3.785 3.785 0 0 0-3.654-2.573c-2.075.035-3.688.069-4.871.103C36.603 2.008 0 20.704 0 44.907 0 75.437 49.657 88.85 101.2 88.85c22.641 0 46.689-2.35 72.109-7.05a2.44 2.44 0 0 0 1.955-2.847c-.017-.12-.051-.223-.086-.343a3.205 3.205 0 0 0-3.653-2.127c-24.614 4.683-46.466 7.016-65.591 7.016"/><path d="M131.781 42.23h17.41l-8.645-26.724z"/></g></svg>