<svg xmlns="http://www.w3.org/2000/svg" width="123.052" height="80"><path fill="#003b89" d="M106.247 39.258v9.8h-1.641v3.875h1.641v9.8h16.78v-3.871h-13.039v-5.929h11.75v-3.875h-11.75v-5.93h13.063v-3.87z" data-name="Tracé 24465"/><path fill="#003b89" d="m102.561 49.33-.03-.271H94.47v3.874h4.264a7.82 7.82 0 0 1-2.4 4.184 7.62 7.62 0 0 1-10.783-.357 8.06 8.06 0 0 1-2.34-5.763 7.96 7.96 0 0 1 2.349-5.782 7.52 7.52 0 0 1 5.516-2.407 7.4 7.4 0 0 1 2.918.569 7.2 7.2 0 0 1 2.377 1.629l.218.222.215-.222 2.241-2.29.206-.208-.2-.21a10.63 10.63 0 0 0-7.97-3.359 10.98 10.98 0 0 0-8.212 3.584 11.96 11.96 0 0 0-3.4 8.488 13.3 13.3 0 0 0 .209 2.4 12.3 12.3 0 0 0 .642 2.211 12.1 12.1 0 0 0 2.563 3.908 11.28 11.28 0 0 0 16.271.116 11.85 11.85 0 0 0 3.517-8.652c0-.02-.08-1.333-.08-1.333l-.032-.333" data-name="Tracé 24466"/><path fill="#003b89" d="M77.131 46.094a6.78 6.78 0 0 0-1.924-4.8 6.2 6.2 0 0 0-4.653-2.03H59.575a29.03 29.03 0 0 0-.433-15.9 3.7 3.7 0 0 1-1.246.218c-.088 0-.175-.009-.262-.013a27.74 27.74 0 0 1 .755 14.155 29.3 29.3 0 0 0-4.132-5.319 14.6 14.6 0 0 0 1.386-3.088.867.867 0 0 0-.442-1.1 29 29 0 0 0 2.336-4.664 3.6 3.6 0 0 1-.944-.219 28.5 28.5 0 0 1-2.717 5.192 5 5 0 0 0-1.12 1.142q-.3.393-.632.764a29.2 29.2 0 0 0-7.9-4.713v-.072a28.86 28.86 0 0 0-7.791-19.742 3.5 3.5 0 0 1-.708.568 27.96 27.96 0 0 1 7.591 18.9 29.3 29.3 0 0 0-7.913-1.668 4.5 4.5 0 0 1 .058.69 4.6 4.6 0 0 1-.311 1.657 28 28 0 0 1 5.2 4.244 2.7 2.7 0 0 0-.225 2.109 2.79 2.79 0 0 0 1.727 1.8 27 27 0 0 1-1.637 3.727 19.9 19.9 0 0 0-4.111 3.073 26.4 26.4 0 0 1-4.614.656 27.88 27.88 0 0 1-17.664-5.429 2.7 2.7 0 0 1-.555.769 28.84 28.84 0 0 0 18.272 5.612 26 26 0 0 0 3.394-.4c-2.386 2.544-3.329 4.426-3.075 5.386a30.66 30.66 0 0 1-14.817 5.966 3 3 0 0 1 .128.831c0 .026-.007.048-.007.073a31.6 31.6 0 0 0 15.349-6.229 1.8 1.8 0 0 0 .5.075c1.689.018 5.2-6.606 8.083-6.2 2.731.382-3.366 12.721-5.483 17.323a28 28 0 0 1-4.37.346 27.55 27.55 0 0 1-14.4-4.046 3.1 3.1 0 0 1-.99 1.163 28.93 28.93 0 0 0 19.073 4.151c-1.5 4.2 1.449 3.343 3.8-.734a29 29 0 0 0 6.634-2.675c0 .916-.02 1.84-.08 2.732-.247 3.534 3.03 2.776 3.3-1.572.073-1.214.143-2.336.2-3.379a29.4 29.4 0 0 0 9.698-12.769v20.078h12.074a6.25 6.25 0 0 0 4.661-2.014 6.77 6.77 0 0 0 1.915-4.822 6.4 6.4 0 0 0-.66-2.829 6.6 6.6 0 0 0-1.476-2 7.1 7.1 0 0 0 1.487-2.129 6.8 6.8 0 0 0 .649-2.84M40.924 29.605a29 29 0 0 0-5.36-4.371 27.6 27.6 0 0 1 7.723 1.745 25 25 0 0 1-.172 1.881 3 3 0 0 0-1.052.1 2.9 2.9 0 0 0-1.139.646m.692 7.549a28 28 0 0 0 1.113-2.765 2.8 2.8 0 0 0 .829-.076c.318.486.624.966.909 1.464q-1.609.722-2.851 1.377m-1.88 21.3a95 95 0 0 0 4.151-9.246c.479-1.215 1.247 2.411 1.441 6.724a27.7 27.7 0 0 1-5.591 2.522m5.534-23.082q-.413-.708-.862-1.4a2.73 2.73 0 0 0 1.241-3.138 2.8 2.8 0 0 0-1.655-1.754c.077-.583.14-1.169.177-1.755a27.7 27.7 0 0 1 6.9 4.179 30.3 30.3 0 0 1-5.8 3.866m3.64 18.032c.47-8.348.466-10.457.466-10.457s-.72-3.271 2.825-7.5c.475-.6.879-1.175 1.246-1.719a27.6 27.6 0 0 1 4.3 5.88l.2-.113a27.74 27.74 0 0 1-9.042 13.912m13.316-10.278h8.331a2.66 2.66 0 0 1 2.006.868 2.92 2.92 0 0 1 .828 2.1 2.89 2.89 0 0 1-.848 2.091 2.65 2.65 0 0 1-1.986.874h-8.331zm10.375 14.86a2.8 2.8 0 0 1-2.044.873h-8.331v-5.928h8.331a2.76 2.76 0 0 1 2.06.863 2.97 2.97 0 0 1-.016 4.193" data-name="Tracé 24467"/><path fill="#003b89" d="M9.88 32.817a30.4 30.4 0 0 1-3.3-4.014 3.7 3.7 0 0 1-.695.668 31 31 0 0 0 3.316 4.015 2.7 2.7 0 0 1 .679-.67" data-name="Tracé 24468"/><path fill="#003b89" d="M10.541 37.609a2.7 2.7 0 0 1-1.234-.857 28.6 28.6 0 0 0-2.925 5.9 2.54 2.54 0 0 1 1.437.454 27.3 27.3 0 0 1 2.722-5.495" data-name="Tracé 24469"/><path fill="#003b89" d="M6.84 24.582a3.6 3.6 0 0 1 .374.818 32.9 32.9 0 0 1 12.944-3.436 23.8 23.8 0 0 1 6.5.544 4.5 4.5 0 0 1 .469-.81 24.9 24.9 0 0 0-7.019-.642 33.9 33.9 0 0 0-13.272 3.525" data-name="Tracé 24470"/><path fill="#003b89" d="M6.571 47.705a29.4 29.4 0 0 0 4.68 5.654 3.05 3.05 0 0 1 .872-1.263 27.8 27.8 0 0 1-4.125-4.974 2.5 2.5 0 0 1-1.426.58" data-name="Tracé 24471"/><path fill="#003b89" d="M54.887 17.624a3.8 3.8 0 0 1 1.147-1.03A29.34 29.34 0 0 0 37.397 3.482v.013a3.5 3.5 0 0 1-.33 1.466 27.8 27.8 0 0 1 17.82 12.663" data-name="Tracé 24472"/><path fill="#003b89" d="M5.032 23.07A27.77 27.77 0 0 1 30.525 4.353a3.6 3.6 0 0 1-.111-.858 3.5 3.5 0 0 1 .064-.651 29.27 29.27 0 0 0-26.95 19.98c.058 0 .112-.008.168-.008a3.7 3.7 0 0 1 1.339.254" data-name="Tracé 24473"/><path fill="#003b89" d="M26.554 26.018a4.6 4.6 0 0 1-.293-1.488 28.64 28.64 0 0 0-13.707 8.087 2.7 2.7 0 0 1 1.129.995 27.13 27.13 0 0 1 12.871-7.594" data-name="Tracé 24474"/><path fill="#003b89" d="M3.594 30.192a3.65 3.65 0 0 1-1.481-.353 29 29 0 0 0-.1 2.222 29.1 29.1 0 0 0 2.384 11.55 2.53 2.53 0 0 1 1.289-.857 27.5 27.5 0 0 1-2.164-10.693c0-.629.03-1.251.072-1.869" data-name="Tracé 24475"/><path fill="#dd1a1d" d="M10.38 70.363 8.74 74.22h1.853zm-3.23 7.3H5.938l4.159-8.919h1.144l.912 8.919h-1.214l-.228-2.342H8.234z" data-name="Tracé 24476"/><path fill="#dd1a1d" d="M17.224 74.327c.277-1.491-.008-2.41-.883-2.41a1.35 1.35 0 0 0-1.064.588 3.73 3.73 0 0 0-.692 1.834 3.04 3.04 0 0 0 .013 1.834.865.865 0 0 0 .847.589c.874 0 1.5-.92 1.777-2.423zm-3.085-3.311h.98c-.075.4-.135.726-.208 1.063a2.04 2.04 0 0 1 1.827-1.213c1.287 0 1.952 1.281 1.545 3.479-.389 2.1-1.448 3.469-2.831 3.469a1.27 1.27 0 0 1-1.311-1.131c-.038.258-.089.541-.171.982l-.434 2.342h-1.061z" data-name="Tracé 24477"/><path fill="#dd1a1d" d="M23.168 74.327c.277-1.491-.008-2.41-.883-2.41a1.35 1.35 0 0 0-1.064.588 3.73 3.73 0 0 0-.69 1.83 3.04 3.04 0 0 0 .013 1.834.865.865 0 0 0 .847.589c.874 0 1.5-.92 1.777-2.423zm-3.085-3.311h.98c-.075.4-.135.726-.208 1.063a2.04 2.04 0 0 1 1.827-1.213c1.287 0 1.952 1.281 1.545 3.479-.389 2.1-1.448 3.469-2.831 3.469a1.27 1.27 0 0 1-1.311-1.131c-.038.258-.089.541-.171.982l-.434 2.342h-1.061z" data-name="Tracé 24478"/><path fill="#dd1a1d" d="M29.272 77.659h-.973c.062-.335.121-.655.2-1.015a2.05 2.05 0 0 1-1.912 1.165c-1.11 0-1.727-.634-1.445-2.156l.859-4.642h1.062l-.795 4.294c-.112.605-.171 1.452.8 1.452.782 0 1.4-.525 1.607-1.646l.758-4.1h1.062z" data-name="Tracé 24479"/><path fill="#dd1a1d" d="M32.568 68.739h1.062l-.229 1.235H32.34zm-.42 2.272h1.062l-1.231 6.652h-1.061z" data-name="Tracé 24480"/><path fill="#dd1a1d" d="M38.007 74.347c-.276 1.491.022 2.41.883 2.41a1.36 1.36 0 0 0 1.092-.589 3.8 3.8 0 0 0 .664-1.834 3.1 3.1 0 0 0 .014-1.834.874.874 0 0 0-.874-.589c-.861 0-1.5.919-1.777 2.423zm3.086 3.312h-.98c.086-.467.144-.779.208-1.063a2.07 2.07 0 0 1-1.828 1.213c-1.287 0-1.95-1.286-1.547-3.469.392-2.116 1.45-3.479 2.833-3.479a1.283 1.283 0 0 1 1.373 1.24c.055-.35.115-.679.191-1.09h.98z" data-name="Tracé 24481"/><path fill="#dd1a1d" d="M47.094 77.659h-.973c.062-.335.121-.655.2-1.015a2.05 2.05 0 0 1-1.912 1.165c-1.11 0-1.727-.634-1.445-2.156l.859-4.642h1.062l-.795 4.294c-.112.605-.171 1.452.8 1.452.782 0 1.4-.525 1.607-1.646l.758-4.1h1.062z" data-name="Tracé 24482"/><path fill="#dd1a1d" d="m50.365 74.248-1.119-3.237h1.229l.677 2.426 1.6-2.426h1.2l-2.312 3.237 1.218 3.411h-1.24l-.768-2.6-1.7 2.6h-1.241z" data-name="Tracé 24483"/><path fill="#dd1a1d" d="M61.01 73.764c.176-1.062-.052-2.015-.979-2.015-.832 0-1.528.816-1.765 2.015zm-2.914.915c-.213 1.15.042 2.134 1.032 2.134a1.63 1.63 0 0 0 1.485-1.157h1.046a3.35 3.35 0 0 1-1.176 1.661 2.7 2.7 0 0 1-1.539.493c-1.806 0-2.243-1.69-1.915-3.469.374-2.018 1.561-3.479 3.179-3.479a1.67 1.67 0 0 1 1.651.977 4.78 4.78 0 0 1 .044 2.841z" data-name="Tracé 24484"/><path fill="#dd1a1d" d="M63.797 71.011h.938c-.059.321-.115.627-.2.974a2.14 2.14 0 0 1 1.938-1.125c1.111 0 1.727.634 1.446 2.156l-.859 4.642h-1.058l.8-4.294c.112-.606.17-1.452-.8-1.452-.782 0-1.4.525-1.608 1.646l-.759 4.1h-1.061z" data-name="Tracé 24485"/><path fill="#dd1a1d" d="M69.881 72.007h-.853l.185-1h.853l.339-1.834h1.063l-.34 1.834h.854l-.184 1h-.853l-1.047 5.651h-1.061z" data-name="Tracé 24486"/><path fill="#dd1a1d" d="M72.919 71.011h.98a32 32 0 0 1-.242 1.226 2.05 2.05 0 0 1 2-1.376l-.234 1.264a.66.66 0 0 0-.407-.116c-.566 0-1.33.626-1.581 1.983l-.678 3.667h-1.063z" data-name="Tracé 24487"/><path fill="#dd1a1d" d="M79.532 73.764c.175-1.062-.053-2.015-.979-2.015-.833 0-1.529.816-1.766 2.015zm-2.914.915c-.213 1.15.042 2.134 1.032 2.134a1.63 1.63 0 0 0 1.486-1.157h1.045a3.35 3.35 0 0 1-1.176 1.661 2.7 2.7 0 0 1-1.54.493c-1.806 0-2.243-1.69-1.914-3.469.373-2.018 1.561-3.479 3.179-3.479a1.67 1.67 0 0 1 1.651.977 4.77 4.77 0 0 1 .044 2.841z" data-name="Tracé 24488"/><path fill="#dd1a1d" d="M85.404 74.327c.276-1.491-.008-2.41-.883-2.41a1.35 1.35 0 0 0-1.064.588 3.7 3.7 0 0 0-.692 1.834 3.05 3.05 0 0 0 .013 1.834.865.865 0 0 0 .848.589c.874 0 1.5-.92 1.777-2.423zm-3.085-3.311h.98c-.075.4-.135.726-.208 1.063a2.04 2.04 0 0 1 1.828-1.213c1.287 0 1.951 1.281 1.544 3.479-.389 2.1-1.448 3.469-2.831 3.469a1.27 1.27 0 0 1-1.311-1.131c-.038.258-.089.541-.171.982l-.434 2.342h-1.061z" data-name="Tracé 24489"/><path fill="#dd1a1d" d="M88.262 71.011h.98c-.095.509-.159.856-.243 1.226a2.05 2.05 0 0 1 2-1.376l-.234 1.264a.66.66 0 0 0-.407-.116c-.566 0-1.33.626-1.581 1.983l-.679 3.667h-1.061z" data-name="Tracé 24490"/><path fill="#dd1a1d" d="M94.874 73.764c.175-1.062-.053-2.015-.979-2.015-.833 0-1.529.816-1.766 2.015zm-2.914.915c-.213 1.15.042 2.134 1.032 2.134a1.63 1.63 0 0 0 1.486-1.157h1.045a3.35 3.35 0 0 1-1.176 1.661 2.7 2.7 0 0 1-1.54.493c-1.806 0-2.243-1.69-1.914-3.469.373-2.018 1.561-3.479 3.179-3.479a1.67 1.67 0 0 1 1.651.977 4.77 4.77 0 0 1 .044 2.841z" data-name="Tracé 24491"/><path fill="#dd1a1d" d="M97.661 71.011h.938c-.059.321-.115.627-.2.974a2.15 2.15 0 0 1 1.939-1.125c1.11 0 1.727.634 1.445 2.156l-.859 4.642h-1.058l.8-4.294c.113-.606.171-1.452-.8-1.452-.782 0-1.4.525-1.608 1.646l-.758 4.1h-1.063z" data-name="Tracé 24492"/><path fill="#dd1a1d" d="M106.719 73.764c.176-1.062-.052-2.015-.979-2.015-.832 0-1.528.816-1.765 2.015zm-2.914.915c-.213 1.15.041 2.134 1.031 2.134a1.63 1.63 0 0 0 1.485-1.157h1.045a3.35 3.35 0 0 1-1.175 1.661 2.7 2.7 0 0 1-1.539.493c-1.807 0-2.244-1.69-1.915-3.469.374-2.018 1.561-3.479 3.179-3.479a1.67 1.67 0 0 1 1.652.977 4.8 4.8 0 0 1 .044 2.841z" data-name="Tracé 24493"/><path fill="#dd1a1d" d="M112.752 77.659h-.974c.062-.335.121-.655.2-1.015a2.05 2.05 0 0 1-1.911 1.165c-1.11 0-1.728-.634-1.446-2.156l.859-4.642h1.061l-.795 4.294c-.112.605-.17 1.452.8 1.452.782 0 1.4-.525 1.606-1.646l.759-4.1h1.061z" data-name="Tracé 24494"/><path fill="#dd1a1d" d="M115.508 71.011h.98c-.095.509-.159.856-.243 1.226a2.05 2.05 0 0 1 2-1.376l-.234 1.264a.66.66 0 0 0-.407-.116c-.566 0-1.33.626-1.581 1.983l-.679 3.667h-1.061z" data-name="Tracé 24495"/><path fill="#dd1a1d" d="M121.355 72.811c.122-.73-.186-1.022-.764-1.022a1 1 0 0 0-.995.838c-.127.688.5.883 1.247 1.123a1.563 1.563 0 0 1 1.185 2.014 2.51 2.51 0 0 1-2.482 2.044c-1.231 0-1.968-.713-1.782-2.16h1.051c-.13.774.266 1.191.927 1.191a1.145 1.145 0 0 0 1.157-1.005c.135-.732-.448-.959-1.236-1.233a1.52 1.52 0 0 1-1.19-1.934 2.23 2.23 0 0 1 2.323-1.806c1.246 0 1.787.7 1.611 1.95z" data-name="Tracé 24496"/><path fill="#ffc700" d="M7.385 26.509a3.693 3.693 0 1 1-3.693-3.693 3.693 3.693 0 0 1 3.693 3.693" data-name="Tracé 24497"/><path fill="#7dad14" d="M61.633 19.838a3.738 3.738 0 1 1-3.74-3.744 3.74 3.74 0 0 1 3.74 3.744" data-name="Tracé 24498"/><path fill="#f07500" d="M14.109 35.056a2.708 2.708 0 1 1-2.71-2.707 2.71 2.71 0 0 1 2.71 2.707" data-name="Tracé 24499"/><path fill="#f07500" d="M37.4 3.494A3.495 3.495 0 1 1 33.905 0 3.5 3.5 0 0 1 37.4 3.494" data-name="Tracé 24500"/><path fill="#0090df" d="M8.912 45.188a2.539 2.539 0 1 1-2.537-2.54 2.54 2.54 0 0 1 2.537 2.54" data-name="Tracé 24501"/><path fill="#0090df" d="M35.462 24.393a4.6 4.6 0 1 1-4.6-4.6 4.6 4.6 0 0 1 4.6 4.6" data-name="Tracé 24502"/><path fill="#dd1a1d" d="M17.172 54.395a3.055 3.055 0 1 1-3.055-3.053 3.055 3.055 0 0 1 3.055 3.054" data-name="Tracé 24503"/></svg>