<svg xmlns="http://www.w3.org/2000/svg" width="1327.72" height="870.333"><path fill="#1e4292" d="M911.896 467.056v-330.29s6.907-107.57-111.95-107.57h2.78-131.831s56.606 53.741 57.62 136.293c0 0 7.494 94.599-104.539 142.698 0 0-126.103 44.054-168.307 143.372L54.534 609.5 663.82 849.577l609.367-240.076z"/><path fill="#fff" d="M911.65 487.505v20.032l259.96 102.346L663.665 809.86 155.716 609.883 443.053 496.76a162.5 162.5 0 0 1 4.284-21.717l-342.422 134.86L663.573 829.93l558.575-220.028z"/><path fill="#c8c7c7" d="m663.664 809.86 507.947-199.977-259.962-102.346v37.335H443.545c-2.365-17.075-2.421-33.048-.492-48.112L155.716 609.883z"/><path fill="#1e4292" d="M406.495 160.81c0 78.002 63.934 140.76 142.697 140.76 79.181 0 143.117-62.758 143.117-140.76 0-77.331-63.936-140.086-143.117-140.086-78.763 0-142.697 62.755-142.697 140.085"/><path fill="#1e4292" stroke="#1e4292" stroke-width=".133" d="m467.277 586.404-4.393-12.725c-.919-2.884-1.575-5.51-2.23-8.066h-.198a105 105 0 0 1-2.164 8.002l-4.328 12.789zm-14.494 4.46-4.591 13.908h-5.904l15.02-44.21h6.887l15.086 44.21h-6.1l-4.722-13.908h-15.676"/><path fill="#1e4292" stroke="#1e4292" stroke-width="1.333" d="m467.277 586.404-4.393-12.725c-.919-2.884-1.575-5.51-2.23-8.066h-.198a105 105 0 0 1-2.164 8.002l-4.328 12.789zm-14.494 4.46-4.591 13.908h-5.904l15.02-44.21h6.887l15.086 44.21h-6.1l-4.722-13.908z"/><path fill="#1e4292" stroke="#1e4292" stroke-width=".133" d="M532.073 581.287h5.839c6.099 0 9.97-3.343 9.97-8.395 0-5.705-4.133-8.197-10.167-8.197-2.755 0-4.658.261-5.642.525zm-5.706-20.068c2.885-.592 7.084-.986 10.954-.986 6.1 0 10.1 1.182 12.856 3.674 2.164 1.904 3.476 4.92 3.476 8.394 0 5.774-3.738 9.644-8.329 11.218v.197c3.344 1.181 5.377 4.33 6.493 8.92 1.443 6.165 2.492 10.43 3.346 12.136h-5.904c-.722-1.248-1.706-5.05-2.887-10.561-1.312-6.1-3.739-8.395-8.92-8.592h-5.379v19.153h-5.706v-43.553"/><path fill="#1e4292" stroke="#1e4292" stroke-width="1.333" d="M532.073 581.287h5.839c6.099 0 9.97-3.343 9.97-8.395 0-5.705-4.133-8.197-10.167-8.197-2.755 0-4.658.261-5.642.525zm-5.706-20.068c2.885-.592 7.084-.986 10.954-.986 6.1 0 10.1 1.182 12.856 3.674 2.164 1.904 3.476 4.92 3.476 8.394 0 5.774-3.738 9.644-8.329 11.218v.197c3.344 1.181 5.377 4.33 6.493 8.92 1.443 6.165 2.492 10.43 3.346 12.136h-5.904c-.722-1.248-1.706-5.05-2.887-10.561-1.312-6.1-3.739-8.395-8.92-8.592h-5.379v19.153h-5.706z"/><path fill="#1e4292" stroke="#1e4292" stroke-width=".133" d="M612.92 565.416h-13.447v-4.855h32.731v4.855h-13.512v39.356h-5.772v-39.356"/><path fill="#1e4292" stroke="#1e4292" stroke-width="1.333" d="M612.92 565.416h-13.447v-4.855h32.731v4.855h-13.512v39.356h-5.772z"/><path fill="#1e4292" stroke="#1e4292" stroke-width=".133" d="M685.37 560.561v44.211h-5.77v-44.21h5.77"/><path fill="#1e4292" stroke="#1e4292" stroke-width="1.333" d="M685.37 560.561v44.211h-5.77v-44.21z"/><path fill="#1e4292" stroke="#1e4292" stroke-width=".133" d="M733.264 597.817c2.559 1.64 6.232 2.887 10.165 2.887 5.839 0 9.25-3.017 9.25-7.541 0-4.07-2.362-6.495-8.332-8.726-7.214-2.622-11.674-6.429-11.674-12.594 0-6.887 5.707-12.003 14.299-12.003 4.46 0 7.805 1.05 9.707 2.165l-1.572 4.658c-1.38-.852-4.33-2.1-8.331-2.1-6.036 0-8.332 3.606-8.332 6.625 0 4.13 2.69 6.165 8.79 8.527 7.478 2.953 11.217 6.494 11.217 12.986 0 6.822-4.984 12.792-15.415 12.792-4.263 0-8.921-1.313-11.281-2.886l1.509-4.79"/><path fill="#1e4292" stroke="#1e4292" stroke-width="1.333" d="M733.264 597.817c2.559 1.64 6.232 2.887 10.165 2.887 5.839 0 9.25-3.017 9.25-7.541 0-4.07-2.362-6.495-8.332-8.726-7.214-2.622-11.674-6.429-11.674-12.594 0-6.887 5.707-12.003 14.299-12.003 4.46 0 7.805 1.05 9.707 2.165l-1.572 4.658c-1.38-.852-4.33-2.1-8.331-2.1-6.036 0-8.332 3.606-8.332 6.625 0 4.13 2.69 6.165 8.79 8.527 7.478 2.953 11.217 6.494 11.217 12.986 0 6.822-4.984 12.792-15.415 12.792-4.263 0-8.921-1.313-11.281-2.886z"/><path fill="#1e4292" stroke="#1e4292" stroke-width=".133" d="m826.608 586.404-4.395-12.725c-.918-2.884-1.573-5.51-2.23-8.066h-.196c-.59 2.556-1.311 5.314-2.166 8.002l-4.329 12.789zm-14.497 4.46-4.59 13.908h-5.904l15.022-44.21h6.885l15.087 44.21h-6.1l-4.722-13.908h-15.678"/><path fill="#1e4292" stroke="#1e4292" stroke-width="1.333" d="m826.608 586.404-4.395-12.725c-.918-2.884-1.573-5.51-2.23-8.066h-.196c-.59 2.556-1.311 5.314-2.166 8.002l-4.329 12.789zm-14.497 4.46-4.59 13.908h-5.904l15.022-44.21h6.885l15.087 44.21h-6.1l-4.722-13.908z"/><path fill="#1e4292" stroke="#1e4292" stroke-width=".133" d="M877.901 604.772v-44.21h6.296l14.104 22.367c3.214 5.182 5.838 9.772 7.87 14.364l.197-.065c-.524-5.901-.655-11.281-.655-18.104v-18.563h5.378v44.211h-5.772l-14.036-22.433c-3.083-4.92-6.036-9.97-8.2-14.758l-.196.066c.328 5.574.393 10.888.393 18.234v18.891h-5.379"/><path fill="#1e4292" stroke="#1e4292" stroke-width="1.333" d="M877.901 604.772v-44.21h6.296l14.104 22.367c3.214 5.182 5.838 9.772 7.87 14.364l.197-.065c-.524-5.901-.655-11.281-.655-18.104v-18.563h5.378v44.211h-5.772l-14.036-22.433c-3.083-4.92-6.036-9.97-8.2-14.758l-.196.066c.328 5.574.393 10.888.393 18.234v18.891Z"/></svg>