<svg xmlns="http://www.w3.org/2000/svg" xml:space="preserve" width="348.743" height="234.279" viewBox="0 0 92.271 61.986"><path fill="#146ed0" d="M66.826 42.216c-.158-.256.37-23.502-.157-23.757L40.023 5.59 0 23.157 40.028 0l29.025 16.694-.002 24.53c0 .324-2.003 1.35-2.224.992z"/><path fill="#4e7a32" d="m11.105 45.07-.032-24.347c.072-.087.551-.364 1.065-.616.513-.251.977-.43 1.031-.397.192.12-.129 23.334.125 23.813 8.112 4.478 26.667 13.019 26.835 12.939l52.142-24.799-52.25 30.323c-.275-.003-28.914-15.617-28.916-16.916"/><path fill="#494949" d="M63.007 187.958q-.049 0-.088-.03-.03-.038-.03-.087v-6.607q0-.048.03-.078.04-.039.088-.039h1.769q.89 0 1.427.518t.537 1.378v3.049q0 .86-.537 1.378-.538.518-1.427.518zm1.26-1.231q0 .049.05.049l.44-.01q.263-.01.43-.225t.175-.567v-2.873q0-.371-.166-.586t-.45-.215h-.43q-.048 0-.048.048zm6.832-4.545q0 .05-.04.088-.029.03-.077.03h-2.043q-.049 0-.049.049v1.544q0 .048.05.048h1.172q.049 0 .078.04.039.029.039.078v.948q0 .049-.04.088-.028.029-.077.029h-1.173q-.049 0-.049.049v1.554q0 .049.05.049h2.042q.048 0 .078.039.039.029.039.078v.948q0 .049-.04.088-.029.03-.077.03H67.63q-.05 0-.088-.03-.03-.04-.03-.088v-6.606q0-.05.03-.079.039-.039.088-.039h3.352q.048 0 .078.04.039.029.039.078zm2.54 5.854q-.879 0-1.416-.518-.528-.528-.528-1.407v-3.166q0-.87.528-1.388.537-.518 1.417-.518.889 0 1.417.518.537.518.537 1.388v.107q0 .05-.039.088-.03.03-.078.03l-1.144.048q-.117 0-.117-.107v-.254q0-.284-.156-.46-.157-.175-.42-.175-.254 0-.41.175-.157.176-.157.46v3.371q0 .284.156.46.157.166.41.166.264 0 .42-.166.157-.176.157-.46v-.264q0-.048.03-.078.039-.039.087-.039l1.144.049q.049 0 .078.04.04.028.04.077v.098q0 .88-.538 1.407-.538.518-1.417.518m6.275-5.854q0 .05-.04.088-.029.03-.078.03h-2.042q-.049 0-.049.049v1.544q0 .048.049.048h1.173q.048 0 .078.04.039.029.039.078v.948q0 .049-.04.088-.029.029-.077.029h-1.173q-.049 0-.049.049v1.554q0 .049.049.049h2.042q.05 0 .078.039.04.029.04.078v.948q0 .049-.04.088-.029.03-.078.03h-3.352q-.049 0-.088-.03-.029-.04-.029-.088v-6.606q0-.05.03-.079.038-.039.087-.039h3.352q.05 0 .078.04.04.029.04.078zm3.488-.947q0-.05.03-.079.039-.039.088-.039h1.133q.049 0 .078.04.04.029.04.077v6.607q0 .049-.04.088-.029.029-.078.029h-1.29q-.098 0-.127-.098l-1.212-3.782q-.01-.029-.039-.02-.02 0-.02.03l.01 3.753q0 .049-.039.088-.029.03-.078.03h-1.133q-.05 0-.088-.03-.03-.04-.03-.088v-6.606q0-.05.03-.079.039-.039.088-.039h1.28q.098 0 .127.098l1.221 3.782q.01.03.03.03.03-.01.03-.04zm5.023 0q0-.05.03-.079.039-.039.088-.039h1.133q.05 0 .078.04.04.029.04.077v6.607q0 .049-.04.088-.029.029-.078.029h-1.29q-.097 0-.127-.098l-1.212-3.782q-.01-.029-.039-.02-.02 0-.02.03l.01 3.753q0 .049-.039.088-.029.03-.078.03h-1.133q-.05 0-.088-.03-.03-.04-.03-.088v-6.606q0-.05.03-.079.039-.039.088-.039h1.28q.098 0 .127.098l1.221 3.782q.01.03.03.03.03-.01.03-.04zm5.102 6.723q-.118 0-.127-.108l-.157-.938q0-.049-.058-.049h-1.242q-.058 0-.058.05l-.157.937q-.01.108-.127.108h-1.143q-.127 0-.098-.127l1.437-6.606q.02-.108.127-.108h1.32q.107 0 .126.108l1.427 6.606.01.039q0 .088-.108.088zm-1.447-2.209q0 .05.04.05h.879q.049 0 .039-.05l-.46-2.668q-.01-.029-.029-.029t-.029.03zm3.401 2.209q-.049 0-.088-.03-.03-.038-.03-.087v-6.607q0-.048.03-.078.04-.039.088-.039h1.143q.05 0 .079.04.039.029.039.077v5.493q0 .048.049.048h2.052q.049 0 .078.04.039.029.039.078v.948q0 .049-.04.088-.028.029-.077.029zm7.632-5.776q0 .05-.039.088-.03.03-.078.03h-2.042q-.05 0-.05.049v1.544q0 .048.05.048h1.172q.05 0 .078.04.04.029.04.078v.948q0 .049-.04.088-.029.029-.078.029h-1.172q-.05 0-.05.049v1.554q0 .049.05.049h2.042q.049 0 .078.039.04.029.04.078v.948q0 .049-.04.088-.03.03-.078.03h-3.352q-.049 0-.088-.03-.03-.04-.03-.088v-6.606q0-.05.03-.079.04-.039.088-.039h3.352q.049 0 .078.04.04.029.04.078z" aria-label="DECENNALE" font-family="Barlow Condensed" font-size="9.772" font-stretch="condensed" font-weight="700" style="line-height:1.2;-inkscape-font-specification:&quot;Barlow Condensed, Bold Condensed&quot;" transform="matrix(1.1919 0 0 .839 -58.864 -117.507)"/><path fill="#f57d26" d="M72.453 158.477q-1.156 0-1.862-.655-.693-.667-.693-1.771v-4.339q0-1.104.693-1.759.706-.667 1.862-.667 1.155 0 1.861.667.706.668.706 1.772v.488q0 .064-.051.115-.039.039-.103.039h-1.502q-.064 0-.115-.039-.039-.051-.039-.115v-.514q0-.385-.205-.616-.206-.244-.552-.244-.334 0-.54.244-.205.231-.205.616v4.365q0 .385.206.629.205.23.539.23.346 0 .552-.23.205-.244.205-.63v-1.026q0-.065-.064-.065h-.565q-.064 0-.115-.038-.039-.051-.039-.116v-1.142q0-.064.039-.103.05-.051.115-.051h2.285q.064 0 .103.051.051.039.051.103v2.375q0 1.104-.706 1.771-.706.655-1.861.655m7.214-.103q-.154 0-.167-.141L79.295 157q0-.065-.077-.065h-1.63q-.078 0-.078.065l-.205 1.232q-.013.141-.167.141h-1.502q-.167 0-.128-.167l1.887-8.677q.025-.141.167-.141h1.733q.14 0 .166.14l1.875 8.678.012.052q0 .115-.14.115zm-1.9-2.9q0 .063.051.063h1.156q.064 0 .051-.064l-.603-3.504q-.013-.039-.039-.039-.025 0-.038.039zm7.856 2.9q-.141 0-.18-.128l-.988-3.543q-.026-.051-.064-.051h-.437q-.064 0-.064.064v3.504q0 .064-.051.116-.039.038-.103.038h-1.502q-.064 0-.115-.038-.039-.052-.039-.116v-8.677q0-.065.039-.103.051-.051.115-.051h2.593q.706 0 1.258.346.552.334.847.95.308.616.308 1.412 0 .757-.295 1.335-.282.578-.796.899-.025.012-.038.038-.013.013 0 .039l1.18 3.786.014.052q0 .128-.142.128zm-1.669-7.432q-.064 0-.064.064v2.195q0 .064.064.064h.578q.398 0 .642-.308.256-.32.256-.847 0-.54-.256-.847-.244-.321-.642-.321zm8.01 7.432q-.154 0-.167-.141L91.592 157q0-.065-.077-.065h-1.63q-.077 0-.077.065l-.206 1.232q-.013.141-.167.141h-1.501q-.167 0-.129-.167l1.887-8.677q.026-.141.167-.141h1.733q.141 0 .167.14l1.874 8.678.013.052q0 .115-.141.115zm-1.9-2.9q0 .063.052.063h1.155q.064 0 .051-.064l-.603-3.504q-.013-.039-.038-.039t-.039.039zm7.985-5.931q0-.065.038-.103.052-.051.116-.051h1.489q.064 0 .102.05.052.04.052.104v8.677q0 .064-.052.116-.038.038-.102.038h-1.695q-.128 0-.166-.128l-1.592-4.968q-.013-.038-.052-.026-.025 0-.025.039l.013 4.93q0 .063-.052.115-.038.038-.102.038h-1.49q-.064 0-.115-.038-.039-.052-.039-.116v-8.677q0-.065.039-.103.051-.051.116-.051h1.681q.128 0 .167.128l1.605 4.968q.012.038.038.038.039-.013.039-.051zm7.907-.154q.064 0 .103.05.051.04.051.104v1.245q0 .064-.051.115-.039.039-.103.039h-1.605q-.064 0-.064.064v7.214q0 .064-.051.116-.039.038-.103.038h-1.502q-.064 0-.115-.038-.039-.052-.039-.116v-7.214q0-.064-.064-.064h-1.54q-.064 0-.116-.039-.038-.051-.038-.115v-1.245q0-.065.038-.103.052-.051.116-.051zm1.181 8.985q-.064 0-.116-.038-.038-.052-.038-.116v-8.677q0-.065.038-.103.052-.051.116-.051h1.502q.064 0 .103.051.05.038.05.103v8.677q0 .064-.05.116-.039.038-.103.038zm7.51-7.586q0 .064-.052.115-.038.039-.103.039h-2.682q-.065 0-.065.064v2.028q0 .064.065.064h1.54q.064 0 .103.052.05.038.05.102v1.246q0 .064-.05.115-.039.039-.103.039h-1.54q-.065 0-.065.064v2.04q0 .065.065.065h2.682q.065 0 .103.051.051.039.051.103v1.245q0 .064-.051.116-.038.038-.103.038h-4.403q-.064 0-.115-.038-.039-.052-.039-.116v-8.677q0-.065.039-.103.051-.051.115-.051h4.403q.065 0 .103.05.051.04.051.104z" aria-label="GARANTIE" font-family="Barlow Condensed" font-size="12.836" font-stretch="condensed" font-weight="700" style="line-height:1.2;-inkscape-font-specification:&quot;Barlow Condensed, Bold Condensed&quot;" transform="matrix(1.07215 0 0 .9327 -58.864 -117.507)"/></svg>