<svg xmlns="http://www.w3.org/2000/svg" width="1024" height="391" version="1.0" viewBox="-1.6 -1.6 148.112 56.517"><path fill="#2a3e87" d="M144.912 38.791V7.84C144.912 3.15 141 0 137.15 0H0v38.791h144.912"/><path fill="#3398cc" d="M0 45.472c0 5.227 4.362 7.846 7.787 7.846h137.125v-12.93H0v5.084"/><path fill="#fff" d="M0 40.389h144.912v-1.6H0v1.6zM60.7 44.803h2.95v.618h-2.237v1.073h2.062v.585h-2.063v1.199h2.276v.62H60.7v-4.096M65.05 44.803h.725v3.475h2.075v.62h-2.8v-4.096M69.088 44.803h2.95v.618H69.8v1.073h2.063v.585H69.8v1.199h2.275v.62h-2.987v-4.096M76.2 46.104c-.112-.47-.425-.814-1.013-.814-.887 0-1.25.774-1.25 1.56 0 .785.363 1.56 1.25 1.56.638 0 .988-.476 1.038-1.072h.7c-.063.98-.75 1.657-1.737 1.657-1.238 0-1.963-.975-1.963-2.145s.725-2.146 1.963-2.146c.912.006 1.65.517 1.737 1.4H76.2M77.925 44.803h3.325v.618h-1.313v3.477h-.712V45.42h-1.3v-.618M83.175 45.388h1.163c.375 0 .712.102.712.625 0 .43-.237.653-.7.653h-1.175v-1.278zm-.712 3.51h.712V47.21h1.063c.65 0 .812.333.812 1.084 0 .201 0 .425.112.602h.763c-.15-.166-.225-.602-.225-1.078 0-.648-.362-.832-.6-.867v-.01c.125-.047.675-.247.675-1.033 0-.694-.463-1.106-1.363-1.106h-1.95v4.095M87.237 48.898h.713v-4.096h-.713v4.096zM92.338 46.104c-.125-.47-.425-.814-1.025-.814-.876 0-1.238.774-1.238 1.56 0 .785.362 1.56 1.237 1.56.638 0 .988-.476 1.05-1.072h.7c-.062.98-.75 1.657-1.75 1.657-1.224 0-1.962-.975-1.962-2.145s.738-2.146 1.963-2.146c.924.006 1.662.517 1.737 1.4h-.712M95.912 45.508h.025l.613 1.76H95.3l.612-1.76zm-1.937 3.39h.75l.375-1.084h1.638l.387 1.084h.763l-1.576-4.096h-.762l-1.575 4.096M99.025 44.803h.712v3.475h2.088v.62h-2.8v-4.096M105.862 47.532c0 .632.463.878 1.038.878.625 0 .862-.31.862-.62 0-.315-.174-.441-.337-.505-.287-.109-.662-.182-1.225-.337-.7-.19-.9-.614-.9-1.04 0-.82.75-1.204 1.487-1.204.863 0 1.575.453 1.575 1.309h-.712c-.038-.528-.388-.723-.888-.723-.325 0-.75.12-.75.532 0 .288.2.448.488.53.063.016.975.252 1.188.314.537.162.787.619.787 1.044 0 .917-.813 1.285-1.625 1.285-.938 0-1.688-.447-1.712-1.462h.724M109.8 44.803h.713v2.386c0 .55.037 1.186.962 1.186.938 0 .963-.636.963-1.186v-2.386h.724v2.62c0 1.05-.675 1.572-1.687 1.572-1 0-1.675-.523-1.675-1.571v-2.621M115.438 45.388h1.062c.388 0 .713.137.713.676 0 .516-.4.677-.725.677h-1.05v-1.353zm-.713 3.51h.713v-1.572h1.1c1.162.005 1.387-.751 1.387-1.256 0-.511-.225-1.267-1.388-1.267h-1.812v4.095M120.013 45.388h1.062c.375 0 .7.137.7.676 0 .516-.4.677-.713.677h-1.05v-1.353zm-.726 3.51h.725v-1.572h1.088c1.163.005 1.388-.751 1.388-1.256 0-.511-.225-1.267-1.388-1.267h-1.813v4.095M123.862 44.803h.713v3.475h2.087v.62h-2.8v-4.096M127.888 48.898h.725v-4.096h-.725v4.096zM130.225 44.803h2.95v.618h-2.238v1.073H133v.585h-2.063v1.199h2.275v.62h-2.987v-4.096M135.05 47.532c0 .632.462.878 1.037.878.626 0 .863-.31.863-.62 0-.315-.175-.441-.337-.505-.288-.109-.663-.182-1.226-.337-.7-.19-.9-.614-.9-1.04 0-.82.75-1.204 1.5-1.204.85 0 1.563.453 1.563 1.309h-.713c-.037-.528-.387-.723-.887-.723-.325 0-.75.12-.75.532 0 .288.2.448.488.53.062.016.975.252 1.187.314.537.162.8.619.8 1.044 0 .917-.825 1.285-1.638 1.285-.937 0-1.687-.447-1.712-1.462h.725M105.838 23.034c0 .864.425 1.23 1.237 1.23h8.837v1.599h-9.437c-3.412 0-5.063-1.165-5.063-3.618v-9.313h4.425v10.102M78.75 12.616v-.545c-4.625 0-7.787 2.097-11.05 5.138-1.463-1.28-2.588-2.26-2.888-2.521-1.537-1.333-1.7-1.756-3.874-1.756h-3.675l7.9 6.927C62 23.014 57.8 27.87 53.487 27.642v.458c3.862.362 8.1-1.289 13.412-6.713 1.987 1.738 2.325 2.02 3.087 2.64 2.1 1.704 1.763 1.835 4.15 1.835h3.513l-8.313-7.227c2.5-2.813 5.8-6.019 9.413-6.019M40.337 18.329c.088-3.517 1.038-4.171 3.188-4.171h2.7c2.15 0 3.1.655 3.188 4.17h-9.075zM54.013 19.8c.013-.191.013-.388.013-.591 0-5.51-3.938-6.584-9.012-6.584h-.388c-4.038 0-8.9 1.074-8.9 6.584 0 5.605 4.038 6.652 6.637 6.652h10.513v-1.58h-9.35c-2.837 0-3.15-1.092-3.188-4.483l13.675.002M84.225 18.329c.1-3.517 1.038-4.171 3.188-4.171h2.7c2.15 0 3.1.655 3.187 4.17h-9.075zM97.9 19.8c.012-.191.012-.388.012-.591 0-5.51-3.937-6.584-9-6.584h-.4c-4.025 0-8.9 1.074-8.9 6.584 0 5.605 4.038 6.652 6.638 6.652h10.513v-1.58h-9.35c-2.838 0-3.15-1.092-3.188-4.483L97.9 19.8M28.938 20.391c1.837-.555 2.912-1.8 2.912-3.821 0-2.946-2.5-3.639-5.188-3.639H14.5v12.93h4.45v-4.935l5.488.003c1.912 0 3.125.151 3.125 4.934h4.475c0-3.005-1.263-4.616-3.1-5.472zM18.95 14.35h6.7c2.325 0 2.088 5.08-.35 5.08h-6.35v-5.08"/></svg>