<svg version="1.1" id="Layer_1" xmlns:x="ns_extend;" xmlns:i="ns_ai;" xmlns:graph="ns_graphs;" xmlns="http://www.w3.org/2000/svg" xmlns:xlink="http://www.w3.org/1999/xlink" x="0px" y="0px" viewBox="0 0 399.7 93" style="enable-background:new 0 0 399.7 93;" xml:space="preserve">
 <style type="text/css">
  .st0{fill:#00AEEF;}
	.st1{fill:#223F9A;}
 </style>
 <metadata>
  <sfw xmlns="ns_sfw;">
   <slices>
   </slices>
   <sliceSourceBounds bottomLeftOrigin="true" height="93" width="399.7" x="0.4" y="-246.7">
   </sliceSourceBounds>
  </sfw>
 </metadata>
 <g>
  <path class="st0" d="M161.3,80.7c1.8,0,3.3-0.4,4.2-1.3c1-0.9,1.5-2.1,1.5-3.7c0-1.5-0.5-2.7-1.5-3.6c-1-0.9-2.4-1.4-4.2-1.4h-6V87
		h2.2v-6.4 M157.5,72.5h4c1.1,0,1.9,0.3,2.5,0.9c0.6,0.6,0.9,1.4,0.9,2.3c0,1-0.3,1.8-0.9,2.4c-0.6,0.5-1.5,0.8-2.6,0.8h-3.9V72.5z
		 M168.8,81c0,1.9,0.5,3.4,1.5,4.5c1,1.1,2.4,1.7,4,1.7c1.1,0,2.1-0.3,2.9-0.8c0.8-0.5,1.5-1.3,1.9-2.2c0.5-0.9,0.7-2,0.7-3.2V81
		c0-1.9-0.5-3.4-1.5-4.6c-1-1.1-2.4-1.7-4-1.7c-1.1,0-2,0.3-2.8,0.8c-0.8,0.5-1.5,1.2-1.9,2.2c-0.5,1-0.7,2-0.7,3.2V81z M171.8,77.6
		c0.6-0.8,1.5-1.2,2.5-1.2c1,0,1.9,0.4,2.5,1.2c0.6,0.8,0.9,1.9,0.9,3.2c0,1.5-0.3,2.6-0.9,3.5c-0.6,0.8-1.5,1.2-2.5,1.2
		c-1,0-1.9-0.4-2.5-1.2c-0.6-0.8-0.9-1.9-0.9-3.2C170.9,79.6,171.2,78.4,171.8,77.6 M190.3,74.9h-1.7l-2.8,9.1l-2.4-9.1h-2.1
		l3.5,12.1h1.7l2.9-9.2l2.9,9.2h1.7l3.5-12.1h-2.1l-2.3,9.3L190.3,74.9z M209.3,84.9l-1.3-1c-0.4,0.5-0.8,0.9-1.3,1.2
		c-0.5,0.3-1.1,0.4-1.9,0.4c-1,0-1.9-0.4-2.5-1.1c-0.7-0.7-1-1.7-1-2.9h8.2v-0.9c0-1.9-0.4-3.4-1.3-4.5c-0.9-1-2.1-1.6-3.7-1.6
		c-1,0-1.9,0.3-2.7,0.8c-0.8,0.5-1.5,1.3-1.9,2.2c-0.5,0.9-0.7,2-0.7,3.2v0.4c0,1.8,0.5,3.2,1.5,4.3c1,1.1,2.4,1.6,4,1.6
		C206.7,87.3,208.2,86.5,209.3,84.9 M206.5,77.3c0.5,0.6,0.8,1.4,0.9,2.4v0.2h-6.1c0.1-1.1,0.5-1.9,1.1-2.6c0.6-0.6,1.3-0.9,2.1-0.9
		C205.3,76.4,206,76.7,206.5,77.3 M217.7,74.9c-0.2-0.1-0.5-0.2-0.9-0.2c-1.2,0-2.2,0.5-2.9,1.6l0-1.4h-2V87h2.1v-8.6
		c0.5-1.2,1.4-1.7,2.8-1.7c0.4,0,0.7,0,1,0.1V74.9z M229,84.9l-1.3-1c-0.4,0.5-0.8,0.9-1.3,1.2c-0.5,0.3-1.1,0.4-1.9,0.4
		c-1,0-1.9-0.4-2.5-1.1c-0.7-0.7-1-1.7-1-2.9h8.2v-0.9c0-1.9-0.4-3.4-1.3-4.5c-0.9-1-2.1-1.6-3.7-1.6c-1,0-1.9,0.3-2.7,0.8
		c-0.8,0.5-1.5,1.3-1.9,2.2c-0.5,0.9-0.7,2-0.7,3.2v0.4c0,1.8,0.5,3.2,1.5,4.3c1,1.1,2.4,1.6,4,1.6C226.4,87.3,227.9,86.5,229,84.9
		 M226.2,77.3c0.5,0.6,0.8,1.4,0.8,2.4v0.2H221c0.1-1.1,0.5-1.9,1.1-2.6c0.6-0.6,1.3-0.9,2.1-0.9C225,76.4,225.7,76.7,226.2,77.3
		 M231,81c0,1.9,0.4,3.4,1.3,4.5c0.9,1.2,2,1.7,3.4,1.7c1.5,0,2.6-0.5,3.5-1.5l0.1,1.3h1.9V69.8h-2.1v6.3c-0.8-1-2-1.5-3.4-1.5
		c-1.4,0-2.6,0.6-3.5,1.7c-0.9,1.1-1.3,2.6-1.3,4.5V81z M233.9,77.6c0.6-0.8,1.4-1.2,2.4-1.2c1.3,0,2.2,0.6,2.9,1.7v5.6
		c-0.6,1.2-1.6,1.8-2.9,1.8c-1,0-1.8-0.4-2.4-1.2c-0.6-0.8-0.8-1.9-0.8-3.2C233.1,79.6,233.4,78.4,233.9,77.6 M256.1,68l-4.4,0.2
		l-0.2,0.7c1.2,0,1.8,0.3,1.8,0.8c0,0.1,0,0.3-0.1,0.6c-0.1,0.3-0.2,0.6-0.2,0.8l-2.8,8.9c-0.3,1-0.6,1.9-0.7,2.6
		c-0.2,0.7-0.3,1.3-0.3,1.7c0,0.8,0.3,1.5,0.8,2.1c0.6,0.5,1.3,0.8,2.1,0.8c0.6,0,1.2-0.1,1.9-0.4c0.6-0.3,1.2-0.6,1.8-1.1
		c0.6-0.5,1.1-1,1.6-1.6c0.5-0.6,0.9-1.3,1.3-1.9c0.4-0.7,0.7-1.4,0.9-2.2c0.2-0.7,0.3-1.5,0.3-2.2c0-1-0.3-1.8-0.8-2.4
		c-0.5-0.6-1.2-0.9-2.2-0.9c-0.7,0-1.5,0.2-2.1,0.6c-0.7,0.4-1.2,0.9-1.7,1.6l-0.1,0L256.1,68z M251.4,84.2c0-0.6,0.1-1.2,0.2-1.8
		c0.2-0.6,0.4-1.2,0.6-1.9c0.3-0.6,0.6-1.2,0.9-1.8c0.3-0.6,0.7-1.1,1.1-1.5c0.4-0.4,0.8-0.8,1.1-1c0.4-0.3,0.8-0.4,1.1-0.4
		c0.4,0,0.7,0.2,0.9,0.5c0.2,0.4,0.4,0.8,0.4,1.3c0,0.6-0.1,1.2-0.2,1.8c-0.2,0.6-0.4,1.3-0.6,1.9c-0.3,0.6-0.6,1.2-0.9,1.8
		c-0.4,0.6-0.7,1.1-1.1,1.5c-0.4,0.4-0.8,0.8-1.2,1c-0.4,0.3-0.8,0.4-1.1,0.4C251.8,86.1,251.4,85.5,251.4,84.2 M265.7,86.8
		c-0.2,0.5-0.4,1-0.8,1.6c-0.4,0.6-0.8,1.1-1.2,1.6c-0.4,0.5-0.9,0.9-1.3,1.2c-0.4,0.3-0.8,0.5-1.1,0.5c-0.2,0-0.4-0.1-0.5-0.3
		c-0.1-0.2-0.2-0.4-0.3-0.6c-0.1-0.2-0.2-0.4-0.4-0.6c-0.1-0.2-0.4-0.3-0.7-0.3c-0.3,0-0.6,0.1-0.8,0.4c-0.2,0.2-0.3,0.5-0.3,0.9
		c0,0.5,0.2,0.9,0.6,1.3c0.4,0.3,0.9,0.5,1.5,0.5c0.9,0,1.8-0.4,2.8-1.1c1-0.7,2.1-1.8,3.2-3.4c0.8-1,1.5-2.1,2.2-3.2
		c0.7-1.2,1.4-2.3,1.9-3.4c0.5-1.1,1-2.2,1.3-3.2c0.3-1,0.5-1.8,0.5-2.4c0-0.4-0.1-0.8-0.3-1.2c-0.2-0.3-0.5-0.5-0.9-0.5
		c-0.3,0-0.6,0.1-0.9,0.4c-0.3,0.3-0.4,0.7-0.4,1.2c0,0.1,0,0.3,0,0.5c0,0.2,0,0.5,0.1,0.7c0,0.2,0,0.5,0.1,0.7c0,0.2,0,0.4,0,0.6
		c0,0.5-0.1,1-0.2,1.5c-0.2,0.5-0.4,1-0.6,1.6c-0.2,0.5-0.5,1-0.8,1.5c-0.3,0.5-0.6,0.9-0.9,1.2h-0.1l-0.8-3.7c-0.2-1-0.4-2-0.7-2.8
		c-0.2-0.8-0.4-1.4-0.6-1.9c-0.2-0.6-0.4-1-0.6-1.2c-0.2-0.2-0.5-0.3-0.7-0.3c-0.3,0-0.7,0.1-1,0.4c-0.3,0.2-0.7,0.6-1,1
		c-0.3,0.4-0.6,1-0.8,1.5c-0.3,0.6-0.5,1.2-0.6,1.9l0.8,0.2c0.2-0.9,0.5-1.6,0.7-2.1c0.2-0.4,0.5-0.7,0.8-0.7c0.3,0,0.5,0.2,0.8,0.7
		c0.3,0.5,0.5,1.4,0.7,2.6L265.7,86.8z M284.8,87c1.4,0,2.7-0.3,3.8-1c1.1-0.7,2-1.6,2.6-2.7c0.6-1.2,0.9-2.5,0.9-4v-0.8
		c0-1.5-0.3-2.9-1-4.1c-0.6-1.2-1.5-2.1-2.6-2.8c-1.1-0.6-2.4-1-3.8-1h-5V87H284.8z M284.8,73.5c1.3,0,2.3,0.4,3,1.3
		c0.7,0.9,1,2.1,1,3.8v0.9c0,1.6-0.4,2.8-1.1,3.7c-0.7,0.9-1.7,1.3-3,1.3h-1.6V73.5H284.8z M297.9,74.9h-3.2V87h3.2V74.9z M294.9,73
		c0.3,0.3,0.8,0.5,1.3,0.5c0.5,0,1-0.2,1.3-0.5c0.3-0.3,0.5-0.7,0.5-1.2c0-0.5-0.2-0.9-0.5-1.2c-0.3-0.3-0.8-0.5-1.3-0.5
		c-0.6,0-1,0.2-1.3,0.5c-0.3,0.3-0.5,0.7-0.5,1.2C294.4,72.3,294.6,72.7,294.9,73 M304.7,87v-9.7h2.4v-2.4h-2.4v-1
		c0-1.1,0.6-1.7,1.8-1.7c0.4,0,0.7,0,1,0.1l0-2.5c-0.7-0.1-1.2-0.2-1.6-0.2c-1.4,0-2.5,0.4-3.3,1.1c-0.8,0.8-1.2,1.8-1.2,3.2v1h-1.8
		v2.4h1.8V87H304.7z M312.9,87v-9.7h2.4v-2.4h-2.4v-1c0-1.1,0.6-1.7,1.8-1.7c0.4,0,0.7,0,1,0.1l0-2.5c-0.6-0.1-1.2-0.2-1.6-0.2
		c-1.4,0-2.5,0.4-3.3,1.1c-0.8,0.8-1.2,1.8-1.2,3.2v1h-1.8v2.4h1.8V87H312.9z M325,86.7c0.8-0.4,1.5-0.9,2-1.6l-1.6-1.8
		c-0.7,0.9-1.7,1.4-2.9,1.4c-0.8,0-1.5-0.2-2-0.7c-0.5-0.5-0.8-1.1-0.9-1.9h7.7v-1.3c0-1.9-0.5-3.4-1.4-4.4c-1-1-2.3-1.6-3.9-1.6
		c-1.1,0-2.1,0.3-3,0.8c-0.9,0.5-1.5,1.3-2,2.2c-0.5,1-0.7,2-0.7,3.3v0.3c0,1.8,0.6,3.3,1.7,4.4c1.1,1.1,2.6,1.6,4.3,1.6
		C323.3,87.3,324.2,87.1,325,86.7 M323.5,77.9c0.4,0.4,0.6,0.9,0.6,1.7v0.3h-4.5c0.1-0.8,0.4-1.4,0.8-1.9c0.4-0.4,0.9-0.7,1.6-0.7
		C322.6,77.3,323.1,77.5,323.5,77.9 M336,74.8c-0.3-0.1-0.7-0.1-1-0.1c-1.2,0-2,0.6-2.7,1.7l-0.1-1.4h-3.1V87h3.2v-7.9
		c0.4-0.8,1.2-1.2,2.4-1.2c0.3,0,0.7,0,1.2,0.1L336,74.8z M345.6,86.7c0.8-0.4,1.5-0.9,2-1.6l-1.6-1.8c-0.7,0.9-1.7,1.4-2.9,1.4
		c-0.8,0-1.5-0.2-2-0.7c-0.5-0.5-0.8-1.1-0.9-1.9h7.7v-1.3c0-1.9-0.5-3.4-1.4-4.4c-1-1-2.3-1.6-3.9-1.6c-1.1,0-2.1,0.3-3,0.8
		c-0.9,0.5-1.5,1.3-2,2.2c-0.5,1-0.7,2-0.7,3.3v0.3c0,1.8,0.6,3.3,1.7,4.4c1.1,1.1,2.6,1.6,4.3,1.6
		C343.8,87.3,344.8,87.1,345.6,86.7 M344.1,77.9c0.4,0.4,0.6,0.9,0.6,1.7v0.3h-4.5c0.1-0.8,0.4-1.4,0.8-1.9c0.4-0.4,0.9-0.7,1.6-0.7
		C343.2,77.3,343.7,77.5,344.1,77.9 M349.6,74.9V87h3.2v-8.5c0.5-0.8,1.1-1.2,2-1.2c0.7,0,1.2,0.2,1.5,0.5c0.3,0.3,0.4,0.8,0.4,1.5
		V87h3.2v-7.8c0-1.5-0.3-2.6-1-3.4c-0.6-0.8-1.6-1.1-2.9-1.1c-1.5,0-2.6,0.5-3.5,1.6l-0.1-1.4H349.6z M365.8,83.8
		c-0.4-0.5-0.6-1.4-0.6-2.7v-0.3c0-1.2,0.2-2.1,0.6-2.7c0.4-0.5,1-0.8,1.7-0.8c0.6,0,1.1,0.2,1.5,0.6c0.4,0.4,0.6,0.9,0.6,1.5h3
		c0-1.4-0.5-2.6-1.4-3.4c-0.9-0.9-2.1-1.3-3.6-1.3c-1.7,0-3.1,0.6-4.1,1.7c-1,1.1-1.5,2.6-1.5,4.5V81c0,1.9,0.5,3.5,1.5,4.6
		c1,1.1,2.4,1.7,4.1,1.7c0.9,0,1.8-0.2,2.5-0.6c0.8-0.4,1.4-0.9,1.8-1.6c0.4-0.7,0.7-1.4,0.7-2.3h-3c0,0.5-0.2,1-0.6,1.3
		c-0.4,0.3-0.9,0.5-1.5,0.5C366.8,84.7,366.2,84.4,365.8,83.8 M382.8,86.7c0.8-0.4,1.5-0.9,2-1.6l-1.6-1.8c-0.7,0.9-1.7,1.4-2.9,1.4
		c-0.8,0-1.5-0.2-2-0.7c-0.5-0.5-0.8-1.1-0.9-1.9h7.7v-1.3c0-1.9-0.5-3.4-1.4-4.4c-1-1-2.3-1.6-3.9-1.6c-1.1,0-2.1,0.3-3,0.8
		c-0.9,0.5-1.5,1.3-2,2.2c-0.5,1-0.7,2-0.7,3.3v0.3c0,1.8,0.6,3.3,1.7,4.4c1.1,1.1,2.6,1.6,4.3,1.6C381,87.3,382,87.1,382.8,86.7
		 M381.3,77.9c0.4,0.4,0.6,0.9,0.6,1.7v0.3h-4.5c0.1-0.8,0.4-1.4,0.8-1.9c0.4-0.4,0.9-0.7,1.6-0.7C380.4,77.3,380.9,77.5,381.3,77.9
		">
  </path>
  <path class="st0" d="M80.8,29.1c-0.1-0.3-0.2-0.6-0.3-0.9c-0.2-0.6-0.5-1.2-0.9-1.7c-0.3-0.4-0.6-0.8-0.9-1.3
		c-0.5-0.6-1-1.1-1.5-1.6c-0.4-0.4-0.9-0.8-1.4-1.2c-0.5-0.4-1-0.7-1.6-1.1l-0.3-0.2c-0.4-0.3-0.9-0.1-1.1,0.4
		c-1,2.6-2.4,5.8-4.3,8.7c-0.3,0.4-0.4,0.8-0.4,1.3v0c0,5.1-4.7,9.6-11.8,12.3c-1.2,0.5-2.5,0.9-3.8,1.2h0c-1.8,0.5-3.8,0.9-5.9,1.1
		h0c-1.2,0.1-2.3,0.2-3.5,0.3c-0.8,0-1.7,0.1-2.5,0.1c-7.1,0-13.7-1.5-18.6-3.9c-0.4-0.2-0.9,0.1-0.9,0.6c0,0.6,0.1,1.2,0.1,1.8
		c0.2,1.5,1.4,2.7,2.9,3c4.2,0.8,8.9,1.4,13.7,1.5c0.9,0,1.8,0,2.7,0c0.4,0,0.8,0,1.1,0h0c2.1,0,4.2-0.1,6.2-0.3
		c1.1-0.1,2.1-0.2,3.2-0.3c17.3-2.1,30.1-9.1,30.1-17.4C81.1,30.6,81,29.9,80.8,29.1">
  </path>
  <path class="st0" d="M12.6,33.3c0.3-0.6,0.5-1.3,0.5-1.9v0c0-0.3,0-0.5,0-0.8c0-0.3,0.1-0.5,0.1-0.8c0.1-0.6,0.3-1.3,0.6-1.9
		c0.1-0.2,0.2-0.5,0.3-0.7l0.2-0.4c0.1-0.2,0.3-0.5,0.4-0.7l0.2-0.3c0.5-0.7,1.1-1.3,1.7-2l0.3-0.3c0.8-0.7,1.7-1.4,2.7-2l0.4-0.3
		c0.3-0.2,0.6-0.4,0.9-0.5c1.1-0.6,2.4-1.2,3.7-1.7c1.2-0.5,2.5-0.9,3.8-1.2l0,0c1.8-0.5,3.8-0.9,5.9-1.1h0c1.2-0.1,2.3-0.2,3.5-0.3
		c0.8,0,1.7-0.1,2.5-0.1c6.9,0,13.3,1.4,18.1,3.7c0.4,0.2,1-0.1,1-0.6c0-1-0.1-2.1-0.4-3.2c-0.1-0.6-0.6-1-1.1-1.1l0,0
		c-4.5-1-9.5-1.6-14.8-1.7c-0.9,0-1.8,0-2.7,0c-0.4,0-0.8,0-1.1,0h0c-2.1,0-4.2,0.1-6.2,0.3c-1.1,0.1-2.1,0.2-3.2,0.3
		c-2.5,0.3-4.8,0.7-7.1,1.2c-0.6,0.1-1.2,0.3-1.7,0.4c-0.9,0.2-1.7,0.4-2.5,0.7c-0.5,0.2-1.1,0.3-1.6,0.5c-1.3,0.4-2.6,0.9-3.8,1.4
		c-0.5,0.2-1,0.4-1.4,0.6c-0.7,0.3-1.4,0.6-2,1c-0.4,0.2-0.8,0.4-1.2,0.7l-0.6,0.3c-0.4,0.2-0.8,0.5-1.1,0.7
		c-0.5,0.4-1.1,0.7-1.6,1.1c-0.5,0.4-0.9,0.8-1.4,1.2c-0.6,0.5-1.1,1.1-1.5,1.6c-0.3,0.4-0.6,0.8-0.9,1.3c-0.4,0.6-0.7,1.2-0.9,1.7
		c-0.1,0.3-0.2,0.6-0.3,0.9C0.1,29.9,0,30.6,0,31.4c0,4,3,7.7,7.9,10.7c0.3,0.2,0.7,0,0.8-0.3C9.3,40.3,10.9,36.2,12.6,33.3">
  </path>
  <path class="st0" d="M45.6,10.5l0.2-0.1c0.3-0.1,0.6-0.2,0.9-0.3l0.3-0.1c0.2-0.1,0.5-0.1,0.7-0.2l0.2-0.1c0.3-0.1,0.6-0.1,0.9-0.2
		l0.2,0c0.2,0,0.5-0.1,0.7-0.1l0.2,0c0.3,0,0.6-0.1,0.8-0.1l0.2,0c0.2,0,0.5,0,0.7-0.1l0.2,0c0.3,0,0.5,0,0.8,0h0l0.1,0
		c0.2,0,0.5,0,0.7,0l0.2,0c0.3,0,0.5,0,0.8,0.1l0.1,0c0.2,0,0.5,0.1,0.7,0.1l0.1,0c0.2,0,0.5,0.1,0.7,0.2l0.1,0
		c0.2,0.1,0.5,0.1,0.7,0.2l0,0c0.2,0.1,0.4,0.2,0.6,0.3l0.1,0.1c0.7,0.3,1.4,0.7,2,1.3L60,12c0.6,0.6,1.1,1.3,1.5,2.1
		c0.3,0.7,0.6,1.4,0.8,2.1c0.3,1.3,0.4,2.6,0.4,4.1c0,0.6-0.1,1.2-0.2,1.9l0,0.1c-0.1,0.6-0.2,1.2-0.4,1.8l0,0.2
		c-0.9,3.6-2.8,7.6-5.6,11.5c-0.5,0.7-1,1.4-1.6,2.1c-0.3,0.4-0.6,0.7-0.9,1.1c-0.9,1-1.8,2.1-2.8,3.1l0,0l0,0
		c-0.2,0.2,0,0.5,0.2,0.4c0.8-0.2,1.8-0.5,2.9-0.8c1.3-0.4,2.4-1.1,3.2-2.1l0,0c0.2-0.3,0.4-0.5,0.7-0.8c1.3-1.5,2.5-3.1,3.7-4.6
		c0.4-0.5,0.7-1,1.1-1.5c1-1.4,1.9-2.7,2.7-4.1c0.4-0.6,0.7-1.3,1.1-1.9c0.4-0.8,0.8-1.5,1.2-2.3c0.5-1,0.9-2,1.3-2.9
		c0.2-0.5,0.4-0.9,0.6-1.4c0.1-0.2,0.2-0.5,0.3-0.7l0.1-0.3c0.1-0.4,0.2-0.7,0.4-1.1c0.1-0.2,0.2-0.5,0.2-0.7
		c0.1-0.4,0.3-0.9,0.4-1.3c0.2-0.7,0.3-1.3,0.4-1.9c0.1-0.4,0.1-0.8,0.2-1.2c0.1-0.4,0.1-0.8,0.1-1.2c0-0.4,0-0.8,0-1.2
		c0-0.4,0-0.8,0-1.1l0-0.5c0-0.4-0.1-0.7-0.1-1c-0.4-2-1.2-3.8-2.5-5.1l-0.3-0.3c-2-1.7-4.5-2.4-7.1-2.4l-0.2,0c-0.2,0-0.5,0-0.7,0
		l-0.2,0c-0.2,0-0.4,0-0.6,0l-0.2,0c-0.3,0-0.5,0.1-0.8,0.1l-0.1,0c-0.2,0-0.5,0.1-0.7,0.1l-0.2,0c-0.3,0-0.5,0.1-0.8,0.2l-0.1,0
		c-0.2,0.1-0.5,0.1-0.7,0.2l-0.2,0.1c-0.3,0.1-0.6,0.1-0.9,0.2l-0.1,0c-0.3,0.1-0.5,0.2-0.8,0.2l-0.2,0.1c-0.3,0.1-0.6,0.2-0.9,0.3
		l0,0c-0.3,0.1-0.6,0.2-0.9,0.3L52.1,2c-0.3,0.1-0.6,0.2-0.9,0.4l0,0c-0.3,0.1-0.6,0.3-0.9,0.4l-0.2,0.1c-0.3,0.1-0.6,0.3-0.9,0.4
		l-0.1,0c-0.3,0.1-0.6,0.3-1,0.5l-0.2,0.1C47.5,4,47.2,4.2,47,4.3l-0.1,0.1c-0.3,0.2-0.6,0.3-1,0.5L45.6,5c-0.3,0.2-0.6,0.3-0.8,0.5
		l-0.2,0.1c-0.3,0.2-0.7,0.4-1,0.6l-0.2,0.1c-0.3,0.2-0.6,0.3-0.8,0.5l-0.2,0.1c-0.3,0.2-0.7,0.4-1,0.6l-0.2,0.2
		c-0.3,0.2-0.6,0.4-0.8,0.6l-0.2,0.1c-0.3,0.2-0.7,0.5-1,0.7l-0.2,0.2c-0.3,0.2-0.6,0.4-0.8,0.6L37.8,10c-0.3,0.2-0.7,0.5-1,0.7l0,0
		c3,0,6.9-0.1,8.4-0.1L45.6,10.5">
  </path>
  <path class="st0" d="M36.8,52.1c-0.5,0-0.9,0.1-1.3,0.2l0,0l-0.2,0.1c-0.3,0.1-0.6,0.2-0.9,0.3l-0.2,0.1c-0.2,0.1-0.5,0.1-0.7,0.2
		l-0.2,0c-0.3,0.1-0.6,0.1-0.9,0.2l-0.2,0c-0.2,0-0.5,0.1-0.7,0.1l-0.2,0c-0.3,0-0.6,0.1-0.8,0.1l-0.2,0c-0.2,0-0.5,0-0.7,0.1
		l-0.2,0c-0.3,0-0.5,0-0.8,0h0l-0.1,0c-0.2,0-0.5,0-0.7,0l-0.2,0c-0.3,0-0.5,0-0.7-0.1l-0.1,0c-0.2,0-0.5-0.1-0.7-0.1l-0.1,0
		c-0.2,0-0.5-0.1-0.7-0.2l-0.2,0c-0.2-0.1-0.5-0.1-0.7-0.2l0,0c-0.2-0.1-0.4-0.2-0.6-0.3l-0.1-0.1c-0.7-0.3-1.4-0.7-2-1.3l-0.5-0.5
		c-0.6-0.6-1.1-1.3-1.5-2.1c-0.3-0.7-0.6-1.4-0.8-2.1L18.6,46c-0.1-0.5-0.2-1.1-0.2-1.7c0-0.6,0-1.2,0-1.8c0-0.6,0.1-1.2,0.2-1.9
		l0-0.1c0.1-0.6,0.2-1.2,0.4-1.8l0-0.2c0.2-0.6,0.3-1.2,0.6-1.9c0.3-1,0.8-2.1,1.3-3.1c0.3-0.7,0.7-1.4,1.1-2.1
		c0.4-0.7,0.8-1.4,1.3-2.1c0.4-0.7,0.9-1.4,1.4-2.1c0.5-0.7,1-1.4,1.6-2.1c1.1-1.4,2.4-2.8,3.7-4.1l0,0l-0.2-0.3
		c-0.5,0.1-1,0.2-1.5,0.4c-2.4,0.7-4.5,2-6,3.9c-2.6,3.1-4.9,6.3-6.7,9.4c-0.4,0.6-0.7,1.3-1.1,1.9l0,0.1c-0.3,0.5-0.5,1-0.8,1.5
		c-0.3,0.5-0.5,1-0.7,1.5c-0.2,0.5-0.5,1-0.7,1.5c-0.2,0.5-0.4,1-0.6,1.4c-0.2,0.5-0.4,0.9-0.5,1.4l-0.1,0.3
		c-0.2,0.6-0.4,1.2-0.6,1.8c-0.4,1.3-0.7,2.6-0.9,3.9c-0.1,0.4-0.1,0.8-0.2,1.2c0,0.4-0.1,0.8-0.1,1.2l0,0.6l0,0.6
		c0,0.4,0,0.7,0.1,1.1c0.1,0.5,0.1,1,0.2,1.5c0.2,1,0.6,1.9,1,2.7c0.2,0.4,0.5,0.8,0.8,1.2c0.2,0.2,0.4,0.5,0.6,0.7l0,0
		c2,2,4.7,2.7,7.4,2.7l0.2,0c0.2,0,0.5,0,0.7,0l0.2,0c0.2,0,0.4,0,0.6,0l0.2,0c0.3,0,0.5-0.1,0.8-0.1l0.1,0c0.2,0,0.5-0.1,0.7-0.1
		l0.2,0c0.3,0,0.5-0.1,0.8-0.2l0.1,0c0.2-0.1,0.5-0.1,0.7-0.2l0.2-0.1c0.3-0.1,0.6-0.1,0.9-0.2l0.1,0c0.3-0.1,0.5-0.2,0.8-0.2
		l0.2-0.1c0.3-0.1,0.6-0.2,0.9-0.3l0.1,0c0.3-0.1,0.6-0.2,0.9-0.3l0.2-0.1c0.3-0.1,0.6-0.2,0.9-0.3l0,0c0.3-0.1,0.6-0.3,0.9-0.4
		l0.2-0.1c0.3-0.1,0.6-0.3,0.9-0.4l0.1,0c0.3-0.1,0.6-0.3,1-0.5l0.2-0.1c0.3-0.1,0.6-0.3,0.8-0.4l0.1-0.1c0.3-0.2,0.6-0.3,1-0.5
		l0.2-0.1c0.3-0.2,0.6-0.3,0.8-0.5l0.2-0.1c0.3-0.2,0.7-0.4,1-0.6l0.2-0.1c0.3-0.2,0.6-0.3,0.8-0.5l0.2-0.1c0.3-0.2,0.7-0.4,1-0.6
		l0.2-0.2c0.3-0.2,0.6-0.4,0.8-0.6l0.2-0.1c0.3-0.2,0.7-0.5,1-0.7l0.2-0.2c0.3-0.2,0.6-0.4,0.8-0.6l0.2-0.2l0.4-0.3
		c0.2-0.1,0.1-0.5-0.2-0.4C41.2,52.1,38.2,52.1,36.8,52.1">
  </path>
  <path class="st1" d="M95.2,45.1l2.6-3.9c0.4-0.7,1.3-0.8,2-0.4c4,2.7,8.3,4.2,12.1,4.2c4,0,6.3-1.7,6.3-4.4v-0.2
		c0-3.1-4.3-4.2-9-5.7c-6-1.7-12.6-4.1-12.6-11.9v-0.2c0-7.7,6.4-12.3,14.4-12.3c4.6,0,9.6,1.5,13.7,3.9c0.7,0.4,0.9,1.2,0.5,1.9
		l-2.3,4.2c-0.4,0.7-1.2,0.9-1.9,0.6c-3.5-2-7.2-3.1-10.2-3.1c-3.6,0-5.7,1.7-5.7,4.1V22c0,2.9,4.4,4.1,9.1,5.7
		c5.9,1.8,12.5,4.5,12.5,11.8v0.2c0,8.5-6.6,12.7-15,12.7c-5.3,0-11.2-1.8-16.1-5.2C94.9,46.6,94.8,45.8,95.2,45.1">
  </path>
  <path class="st1" d="M167.6,31.6v-0.2c0-7.1-5.1-13-12.4-13c-7.4,0-12.2,5.8-12.2,12.9v0.2c0,7,5.1,13,12.3,13
		C162.9,44.4,167.6,38.5,167.6,31.6 M133.8,31.6v-0.2c0-11.6,9.2-21.1,21.6-21.1c12.4,0,21.5,9.4,21.5,21v0.2c0,11.5-9.2,21-21.7,21
		C142.9,52.4,133.8,43,133.8,31.6">
  </path>
  <path class="st1" d="M187.7,11.1h6.4c0.8,0,1.4,0.6,1.4,1.4v4.9c2.6-3.8,6.4-7.1,12.6-7.1c9.1,0,14.4,6.1,14.4,15.5v24.3
		c0,0.8-0.6,1.4-1.4,1.4h-6.4c-0.8,0-1.4-0.6-1.4-1.4V28.6c0-6.3-3.1-9.9-8.6-9.9c-5.4,0-9.1,3.8-9.1,10v21.4c0,0.8-0.6,1.4-1.4,1.4
		h-6.4c-0.8,0-1.4-0.6-1.4-1.4V12.5C186.3,11.8,186.9,11.1,187.7,11.1">
  </path>
  <path class="st1" d="M261.4,28.5c-0.6-6-4.1-10.6-10.3-10.6c-5.7,0-9.6,4.4-10.5,10.6 M231.5,31.5v-1.2c0-11,8.9-20.1,20-20
		c12.7,0.1,19.1,10.2,19.1,21.7c0,0.4,0,0.9,0,1.3c0,0.7-0.7,1.3-1.4,1.3h-28.4c1,6.6,5.7,10.3,11.6,10.3c4.1,0,7.1-1.4,10-4
		c0.5-0.5,1.3-0.5,1.9,0l3.4,3c0.6,0.5,0.6,1.4,0.1,2c-3.7,4-8.7,6.5-15.6,6.5C240.6,52.4,231.5,44,231.5,31.5">
  </path>
  <path class="st1" d="M312.3,31.4v-0.2c0-7.8-5.3-12.9-11.6-12.9S289,23.5,289,31.2v0.2c0,7.8,5.5,12.9,11.8,12.9
		C307.1,44.3,312.3,39.4,312.3,31.4 M281.4,11.1h6.4c0.8,0,1.4,0.6,1.4,1.4v5.3c3-4.2,7.2-7.6,13.7-7.6c9.6,0,18.8,7.6,18.8,21v0.2
		c0,13.4-9.2,21-18.8,21c-6.7,0-10.9-3.4-13.7-7.1v17.1c0,0.8-0.6,1.4-1.4,1.4h-6.4c-0.8,0-1.4-0.6-1.4-1.4V12.5
		C280,11.8,280.6,11.1,281.4,11.1">
  </path>
  <path class="st1" d="M356.2,34.6c-2.4-0.9-5.7-1.6-9.3-1.6c-5.8,0-9.3,2.4-9.3,6.3v0.2c0,3.8,3.4,6,7.8,6c6.1,0,10.7-3.4,10.7-8.5
		 M355.9,50.1v-3.6c-2.8,3.3-7,5.8-13.1,5.8c-7.7,0-14.4-4.4-14.4-12.5v-0.2c0-9,7-13.2,16.4-13.2c4.9,0,8,0.7,11.2,1.7v-0.8
		c0-5.6-3.5-8.7-9.9-8.7c-4,0-7,0.8-10.2,2c-0.7,0.3-1.6-0.1-1.8-0.9l-1.6-4.8c-0.2-0.7,0.1-1.5,0.8-1.7c4-1.7,8.2-2.8,14.2-2.8
		c11.9,0,17.8,6.3,17.8,17.1v22.5c0,0.8-0.6,1.4-1.4,1.4h-6.4C356.6,51.5,355.9,50.9,355.9,50.1">
  </path>
  <path class="st1" d="M377.6,11.1h6.4c0.8,0,1.4,0.6,1.4,1.4v7.7c2.3-5.6,6.6-9.6,12.9-9.9c0.8,0,1.5,0.6,1.5,1.4v7
		c0,0.7-0.6,1.4-1.3,1.4c-8,0.5-13,5.8-13,16v14c0,0.8-0.6,1.4-1.4,1.4h-6.4c-0.8,0-1.4-0.6-1.4-1.4V12.5
		C376.1,11.8,376.8,11.1,377.6,11.1">
  </path>
 </g>
</svg>