<svg xmlns="http://www.w3.org/2000/svg" id="Layer_1" data-name="Layer 1" viewBox="0 0 1199.3 425"><defs><clipPath id="clip-path"><path d="M6.33 7.35h1186.65v410.29H6.33z" class="cls-1"/></clipPath><clipPath id="clip-path-2"><path d="M456.08 273.62q-27.09 0-27.1 28.7v14.23q0 28.8 27.1 28.82h61.06c4.44 0 6.69-2.4 6.72-7.19s-2.16-7.18-6.61-7.18h-61.06c-9.1 0-13.65-4.84-13.65-14.47v-14.21c0-9.57 4.51-14.42 13.54-14.6h61.06c4.36 0 6.56-2.37 6.56-7.11s-2.2-7.11-6.56-7.11zM666.75 288h61.08q6.66.12 6.71 7.22t-6.83 7.12h-61zM660 273.5c-4.53 0-6.78 2.39-6.78 7.17v57.39q0 7.2 6.7 7.19t6.83-7.19v-21.51H694l43.47 27.38c3.84 2.38 6.92 1.56 9.24-2.51s1.51-7.34-2.47-9.8l-26-15h9.37Q748 316.55 748 295t-20.39-21.5zm163.37.12q-27.09 0-27.08 28.7v14.23q0 28.8 27.08 28.82h61.08c4.43 0 6.68-2.4 6.71-7.19S889 331 884.56 331h-61.07c-9.12 0-13.65-4.84-13.65-14.47v-14.21c0-9.57 4.5-14.42 13.53-14.6h61.08c4.35 0 6.54-2.37 6.54-7.11s-2.19-7.11-6.54-7.11zm-724.63-.23c-4.51 0-6.78 2.38-6.78 7.16v57.63c0 4.79 2.27 7.19 6.78 7.19h81.62q6.75 0 6.76-7.19t-6.76-7.18h-74.84v-14.34h61.29c4.51 0 6.77-2.4 6.77-7.23s-2.26-7.22-6.77-7.22h-61.29v-14.35h74.84c4.5 0 6.76-2.43 6.76-7.25s-2.26-7.22-6.76-7.22zm105.58 7.16v57.63c0 4.79 2.24 7.19 6.76 7.19h80.79c4.5 0 6.77-2.4 6.77-7.19s-2.29-7.16-6.89-7.16h-73.9v-50.47c-.06-4.78-2.36-7.16-6.83-7.16s-6.7 2.38-6.7 7.16m119.09-7.16c-4.5 0-6.77 2.38-6.77 7.16v57.63c0 4.79 2.27 7.19 6.77 7.19H405c4.5 0 6.77-2.4 6.77-7.19S409.54 331 405 331h-74.8v-14.34h61.28c4.52 0 6.79-2.4 6.79-7.23s-2.27-7.22-6.79-7.22H330.2v-14.35H405c4.5 0 6.77-2.43 6.77-7.25s-2.27-7.22-6.77-7.22zm224.24 0q-6.78 0-6.77 7.1t6.65 7.23h34v50.58c0 4.79 2.27 7.19 6.84 7.19s6.81-2.4 6.81-7.19v-50.58h34.11q6.65-.11 6.65-7.23t-6.76-7.1zm217.57 7.16v57.63q0 7.19 6.77 7.19t6.78-7.31l.11-57.51c-.09-4.78-2.37-7.16-6.89-7.16s-6.77 2.38-6.77 7.16m166.32 7.31h47.74l3.5 14.35h-54.4zm-3-14.47c-4.53 0-7.37 2.38-8.57 7.16l-11.75 57.63q0 7.19 6 7.19t7.57-7.07l4.21-21.64h58.46L989.8 338q1.77 7.29 7.72 7.3c4 0 5.91-2.39 5.91-7.19l-12.52-57.39q-1.24-7.29-8-7.28zm92.13 7.16v57.63q0 7.19 6.78 7.19h80.68c4.5 0 6.77-2.4 6.77-7.19s-2.3-7.16-6.9-7.16h-73.77v-50.47q-.14-7.17-6.85-7.16t-6.71 7.16" class="cls-1"/></clipPath><linearGradient id="linear-gradient" x1="-71.98" x2="-68.71" y1="532.89" y2="532.89" gradientTransform="matrix(313.49 0 0 -313.49 22656.29 167368.65)" gradientUnits="userSpaceOnUse"><stop offset="0" stop-color="#009ee2"/><stop offset=".08" stop-color="#009ee2"/><stop offset=".15" stop-color="#38aeb8"/><stop offset=".22" stop-color="#77bf89"/><stop offset=".29" stop-color="#a8cd63"/><stop offset=".36" stop-color="#ccd748"/><stop offset=".41" stop-color="#e2dd38"/><stop offset=".44" stop-color="#eadf32"/><stop offset=".52" stop-color="#e5dd32"/><stop offset=".63" stop-color="#d6d833"/><stop offset=".74" stop-color="#bdcf34"/><stop offset=".86" stop-color="#9ac336"/><stop offset=".86" stop-color="#9ac336"/><stop offset="1" stop-color="#9ac336"/></linearGradient><style>.cls-1{fill:none}.cls-3{fill:#fff}.cls-5{fill:#009ee2}</style></defs><g clip-path="url(#clip-path)"><path d="M60.64 417.65c-30 0-54.31-25.75-54.31-57.53V64.88c0-31.78 24.31-57.53 54.31-57.53h1078c30 0 54.3 25.75 54.3 57.53v295.24c0 31.78-24.31 57.53-54.3 57.53z" class="cls-3"/><path fill="#161412" d="M60.64 400.53c-21.08 0-38.15-18.09-38.15-40.41V64.88c0-22.32 17.07-40.41 38.15-40.41h1078c21.06 0 38.16 18.09 38.16 40.41v295.24c0 22.32-17.1 40.41-38.16 40.41z"/><path d="m750.79 81.07 137.59-.24q13.57 0 13.46 14.28t-13.46 14.54l-137.59-.24c-9.5.48-14.23 5.49-14.14 15s4.79 14.3 14.14 14.3h110q41.63 0 41.75 43.59T861 225.88H723q-13.8 0-13.8-14.29t13.8-14.52h137.78q13.54-.25 13.69-14.77t-13.92-14.53H750.79q-41.64 0-41.64-43.36t41.64-43.34" class="cls-5"/><path d="m541.85 80.45 137.59-.24c9 0 13.54 5.38 13.46 14.91s-5.24 14.42-14.14 14.57l-137.58-.24c-9.51.48-13.56 5.45-13.48 15s4.33 14.14 13.69 14.14h110c27.77 0 42.16 14.67 42.23 43.73s-13.76 43.59-41.52 43.59H514q-13.78 0-13.79-14.29c0-9.51 4.08-14.47 13.29-14.63h137.82c9-.16 14.12-5.6 14.19-15.29S661 168 651.61 168H541.85c-27.76 0-41.63-14.7-41.63-43.59s13.87-44 41.63-44" class="cls-3"/><path d="m750.79 80.45 137.59-.24c9 0 13.54 5.38 13.47 14.91s-5.25 14.42-14.13 14.57l-137.59-.24c-9.52.48-13.57 5.45-13.49 15s4.34 14.14 13.68 14.14h110c27.77 0 42.16 14.67 42.24 43.73s-13.8 43.56-41.56 43.56H723q-13.8 0-13.79-14.29c0-9.51 4.08-14.47 13.29-14.63h137.76c9-.16 14.12-5.6 14.21-15.29S869.9 168 860.55 168H750.79c-27.76 0-41.63-14.7-41.63-43.59s13.87-44 41.63-44m212.3.04 137.58-.24c9 0 13.54 5.38 13.45 14.91s-5.23 14.42-14.13 14.57l-137.59-.24c-9.5.48-13.56 5.45-13.48 15s4.34 14.14 13.69 14.14h110c27.77 0 42.16 14.67 42.23 43.73s-13.77 43.59-41.53 43.59h-138q-13.79 0-13.79-14.29c0-9.51 4.1-14.47 13.29-14.63h137.8c9-.16 14.13-5.6 14.22-15.29s-4.66-13.7-14.01-13.7H963.09c-27.77 0-41.65-14.7-41.65-43.59s13.88-44 41.65-44" class="cls-5"/><path d="M288.61 211.59V94.88q0-14.52 13.82-14.54h166.34q13.82 0 13.8 14.65t-13.8 14.66H316.23v29.06h124.93q13.8 0 13.81 14.65T441.16 168H316.23v29.06h152.54q13.82 0 13.8 14.52t-13.8 14.53H302.43q-13.81 0-13.82-14.53m-19.22-103.87L194.15 161l.22 50.12q-.21 14.78-13.91 14.79c-9.14 0-13.69-4.86-13.69-14.53l-.25-50.14-75.9-53.51Q79.09 99.48 86.7 87.5t19.1-4.25l74.53 52.31 73.87-52.31q11.49-7.74 19.1 4.25t-3.91 20.21" class="cls-3"/></g><g clip-path="url(#clip-path-2)"><path fill="url(#linear-gradient)" d="M91.96 273.39h1022.88v72.93H91.96z"/></g></svg>