<?xml version="1.0" encoding="UTF-8" standalone="no"?>
<!-- Created with Inkscape (http://www.inkscape.org/) -->

<svg
   version="1.1"
   id="svg1"
   width="440"
   height="780"
   viewBox="0 0 440 779.99999"
   xmlns="http://www.w3.org/2000/svg"
   xmlns:svg="http://www.w3.org/2000/svg">
  <defs
     id="defs1" />
  <path
     d="m 387.94148,94.565603 -0.002,0.002 -0.002,0.002 c -0.0909,0.12008 -0.33077,2.26397 -0.80859,6.832027 -0.4673,4.46499 -1.74111,13.36128 -2.57031,17.93946 -5.4439,30.05671 -15.30119,59.45905 -31.67969,94.49414 -2.8223,6.03725 -12.00924,24.19093 -13.77734,27.22656 -0.7263,1.24716 -2.66642,5.04324 -6.72852,12.17188 -1.7066,2.995 -3.46375,6.09391 -3.90625,6.88671 -1.1542,2.06756 -3.03614,4.93178 -2.99414,4.80469 l 25.67383,-77.72656 -25.11914,9.99219 14.99023,-73.40039 c 0.038,-0.18722 -27.40497,81.27267 -28.1875,84.39062 l 25.30469,-8.50586 -13.39844,66.71485 -2.96484,4.95312 c -5.2311,8.74219 -15.01689,24.18925 -26.3086,40.56055 -0.83092,1.20472 -3.12202,4.49758 -5.09179,7.3164 -2.20999,2.98087 -4.12333,6.18469 -6.38086,9.12891 -0.10683,0.0881 -1.88863,2.5177 -3.96094,5.39844 -2.07231,2.88073 -4.75627,6.55622 -5.96484,8.16797 -2.94702,4.03485 -5.96962,8.00147 -8.99024,11.98242 -5.34904,7.13567 -11.10039,14.27853 -11.07226,14.07031 l 11.95898,-88.51562 -28.23047,21.02929 -0.33594,-106.07617 -14.11914,127.46094 29.82618,-24.51758 0.30859,71.63086 -3.01563,3.76953 c -2.89895,3.62355 -11.61392,14.49092 -14.92382,18.54297 -3.3099,4.05205 -6.99815,8.52028 -8.19727,9.92969 -1.19911,1.40941 -3.57202,4.22006 -5.27148,6.24609 -1.69946,2.02602 -3.40265,4.04394 -3.78516,4.48438 -0.38251,0.44044 -2.42247,2.81025 -4.5332,5.26562 -2.11074,2.45537 -4.71805,5.48223 -5.79492,6.72656 -1.07686,1.24433 -3.07544,3.55896 -4.44141,5.14453 -2.41047,2.798 -8.69895,9.8685 -15.51172,17.43946 -1.8327,2.03666 -3.84936,4.27967 -4.48047,4.98437 -1.45473,1.62439 -9.39149,10.23671 -12.37305,13.42578 -18.60561,19.90054 -33.11804,34.72772 -33.09375,34.30079 l 5.63282,-99.00391 -43.38672,30.17969 -17.927734,-88.1875 8.00196,110.05859 40.398424,-27.16797 6.58594,74.56055 c 0.0658,0.74505 -11.00118,11.95104 -28.51367,29.03125 -2.57392,2.51038 -4.14889,4.11119 -4.18164,4.23437 v 0.002 0.002 0.002 h 0.002 0.002 0.002 0.002 c 0.0364,-0.009 0.19719,-0.13638 0.49414,-0.39648 1.40777,-1.23307 3.05641,-2.6746 3.66407,-3.20313 2.00797,-1.74645 4.67735,-4.12849 7.58593,-6.76953 1.57831,-1.43313 3.33371,-2.99583 3.90039,-3.47265 0.56667,-0.47682 6.27262,-5.67444 8.5586,-7.81836 1.23528,-1.1664 3.82158,-3.56246 5.74609,-5.32422 1.92452,-1.76176 4.94952,-4.5918 6.72266,-6.28906 10.90102,-10.37262 21.6664,-20.88497 32.37109,-31.66797 13.75277,-13.91251 3.72024,-3.88486 17.78516,-18.18164 1.58771,-1.77515 8.58819,-9.26412 11.36523,-12.15821 1.05706,-1.10161 2.06602,-2.18726 2.24219,-2.41211 0.17618,-0.22484 2.48236,-2.7755 5.125,-5.66992 5.95843,-6.5261 11.63833,-12.90664 16.69726,-18.75586 2.13323,-2.46646 5.37691,-6.214 7.20704,-8.32812 1.83013,-2.11411 4.68702,-5.50133 6.34961,-7.52735 1.6626,-2.02603 3.10422,-3.75566 3.20312,-3.84375 0.30984,-0.27598 4.54418,-5.42274 8.16992,-9.92968 1.91335,-2.37838 3.51083,-4.52875 3.66992,-4.54493 l 92.57422,-9.41406 c 0.7751,-0.0788 0.75259,-0.18323 -0.32031,-0.84375 l -15.34766,-9.44922 56.53711,-9.375 -80.08007,8.40625 23.22265,8.58203 -75.80664,11.41016 c -0.0641,0.01 1.00798,-1.44677 2.33984,-3.11328 1.33187,-1.66652 3.2972,-4.18239 4.36719,-5.5918 1.07,-1.40941 2.02778,-2.63456 2.12891,-2.72265 0.24044,-0.20944 1.56801,-1.92867 4.82617,-6.24805 1.46141,-1.93741 3.06168,-4.01642 3.55664,-4.61914 0.49496,-0.60272 10.91204,-14.82647 15.66406,-21.34961 1.32132,-1.8154 3.8437,-5.39651 5.60547,-7.95899 1.76176,-2.56248 3.75126,-5.44871 4.41992,-6.4121 1.05079,-1.51395 2.19605,-2.43313 8.54883,-6.63086 l 38.21485,-25.25196 -3.17774,37.05078 c -0.017,0.20045 80.94666,-70.95496 78.35156,-69.20507 l -70.21484,47.3457 1.49219,-34.71094 -49.00391,45.77735 c -0.70303,0.65673 3.72137,-5.7607 11.71289,-18.57813 3.48354,-5.738 7.01528,-11.4317 10.48828,-17.21484 3.9195,-6.70986 7.85623,-13.41725 11.54883,-20.26368 0.8005,-1.49748 1.86228,-3.44333 2.35938,-4.32421 2.4213,-4.94078 4.91206,-9.68558 7.47656,-14.47071 5.7527,-11.71967 10.91126,-23.17269 12.22266,-26.20898 1.1381,-2.64265 2.50721,-5.81057 3.04101,-7.03906 0.7407,-1.70489 2.37673,-4.1511 7.26563,-10.04297 l 21.22851,-25.58399 4.5918,17.73828 20.32422,-35.45312 c 2.8957,-5.05104 -16.76333,21.68093 -19.95703,24.3125 -0.3336,-0.36166 -3.99423,-19.82813 -4.33204,-19.82813 -14.8472,23.19208 -26.12296,42.50176 -25.85546,41 0.079,-0.44044 0.42518,-1.52146 0.77148,-2.40234 5.0099,-12.74618 10.81892,-30.67606 13.85352,-42.75977 4.4065,-17.54701 7.3209,-37.43833 7.8164,-53.335927 0.0641,-2.05648 0.086,-3.21183 0.0332,-3.3086 l -0.002,-0.002 v -0.002 h -0.002 -0.002 -0.002 z m -103.08984,156.210927 17.99609,20.70899 -14.26953,0.9375 20.67773,16.1875 -12.76367,-14.83203 15.50781,-0.68555 z m -154.60547,30.50391 35.16211,29.41211 -20.65625,11.75977 44.43359,22.20898 -30.87305,-21.75977 18.38086,-11.24414 z m 64.28906,1.10352 -5.94922,94.86718 -28.48242,-9.42187 10.10547,95.23828 -0.47266,-76.9375 27.06445,8.0625 z m 108.52344,117.86914 -54.2461,5.49218 c -0.46879,0.0475 15.06314,12.65148 17.61524,14.59961 -11.38193,2.87096 -31.5942,8.01576 -45.3711,11.50782 -11.61104,2.93416 -16.26532,4.15854 -16.12304,4.37109 0.10321,0.10385 1.49205,-0.0595 3.86133,-0.39844 36.43619,-5.21239 -2.56397,0.47099 73.05664,-9.97265 -19.81626,-14.70546 -20.62256,-14.76637 -20.25586,-14.86133 z m 27.96875,26.27343 -74.09375,58.40625 64.85937,-37.37695 -4.82617,35.76758 52.05273,-44.12305 -44.8457,25.20313 z m -103.95703,52.82032 25.74804,38.48437 -120.00976,-5.58398 145.76758,25.91211 -30.03125,-40.88867 85.32617,3.93359 z"
     style="display:inline;fill:#f3e852"
     id="path6" />
  <path
     d="m 392.24495,9.6851026 c -0.0287,10e-4 -0.056,0.002 -0.084,0.006 -0.5743,0.083 -0.91241,0.8920104 -2.31641,5.5429704 -8.4427,27.96787 -21.59749,52.07313 -40.40039,74.0293 -5.2333,6.110886 -15.8257,16.870907 -22.2207,22.574207 -18.64607,16.62922 -40.66587,31.77205 -69.48633,47.78125 -16.97712,9.43045 -34.11145,18.08112 -71.27149,35.98438 -40.96162,19.73482 -65.60104,32.92033 -86.10937,46.08203 -27.526507,17.66578 -49.013147,36.98421 -64.056647,57.59375 -19.41932,26.60438 -29.9893203,56.24979 -32.4687503,92.24024 -0.5122,7.43493 -0.18387,29.00451 0.51562,35.19726 3.95329,34.99956 18.6756903,67.13838 44.4921903,96.60156 8.8273,10.07419 19.59826,20.60803 29.73047,28.36133 l 3.27148,2.50391 -3.76953,4.52539 c -8.56784,10.28254 -16.61652,19.55327 -20.30078,24.08594 -26.86849,33.05575 -36.64138,50.21603 -40.25195,70.67773 -1.72737,9.7894 -2.13573,21.60763 -0.98047,28.36523 2.95436,17.2812 15.01734,31.30378 35.39258,41.14258 13.99774,6.7592 31.59777,11.69431 52.052737,14.59571 9.98419,1.4163 24.61273,2.70312 30.71485,2.70312 1.75374,0 2.98562,0.14929 3.30273,0.40039 0.27808,0.2203 0.75946,1.18955 1.07031,2.15235 2.24417,6.9506 8.74287,13.57816 17.75,18.10156 7.84346,3.9391 19.91966,7.07394 31.40625,8.15234 2.02602,0.1902 4.18808,0.39413 4.80469,0.45313 v 0.006 c 2.13315,0.2001 20.09473,0.2044 22.05078,0 l 1.96289,-0.20704 0.16992,-16.72656 15.07032,-0.16015 c 13.53068,-0.1438 15.15527,-0.21539 15.9082,-0.70899 1.44871,-0.9496 1.56073,-3.71246 0.20117,-4.94336 -0.61379,-0.5556 -1.63294,-0.604 -15.91601,-0.7539 l -15.26368,-0.16016 -0.15039,-21.94141 h 14.90625 c 16.35706,0 16.32,0.005 17.10938,-1.90039 0.50991,-1.231 0.2011,-2.94993 -0.67188,-3.74023 -0.62929,-0.5697 -1.54673,-0.61473 -15.92968,-0.76563 l -15.26368,-0.16015 -0.16992,-16.76758 -1.99609,-0.17188 c -10.42313,-0.9007 -26.19778,-0.14128 -36.5918,1.76172 -20.01666,3.6649 -34.26843,12.21856 -38.74609,23.25586 -0.56622,1.3957 -0.93032,1.87794 -1.48047,1.96094 -1.28624,0.1937 -19.79848,-0.58427 -25.59961,-1.07617 -23.352447,-1.9801 -44.093197,-6.85599 -58.458987,-13.74219 -14.59462,-6.9958 -24.63945,-17.07289 -28.12305,-28.21289 -1.55417,-4.9699 -1.92603,-8.75674 -1.73047,-17.61914 0.1967,-8.9141 0.60935,-12.32249 2.3457,-19.36719 2.96999,-12.0497 7.9279,-22.47067 17.5293,-36.84765 8.25703,-12.36398 19.20535,-23.93332 34.92773,-45.33204 l 6.3711,-8.67187 2.17773,1.42383 c 25.842787,16.88778 58.560657,28.39892 92.664067,31.72851 35.93427,3.50833 73.84514,-1.92787 103.36719,-14.86133 C 375.54389,534.60222 427.38481,440.40429 435.67071,300.4803 439.99361,227.47915 431.4472,140.31297 412.5711,64.884603 404.72756,33.542053 395.88465,9.5522426 392.24493,9.6853826 Z m -4.30078,84.8789064 c 0,0 0.002,0 0.002,0 0,0 0.002,0 0.002,0 0,0 0.002,0 0.002,0 0,0 0.002,0 0.002,0 0,0 0,0.002 0,0.002 0,0 0.002,0.002 0.002,0.002 0.0527,0.0968 0.0309,1.25212 -0.0332,3.3086 -0.4955,15.897601 -3.4099,35.788921 -7.8164,53.335931 -3.0346,12.08371 -8.84362,30.01359 -13.85352,42.75977 -0.3463,0.88088 -0.69248,1.9619 -0.77148,2.40234 -0.2675,1.50176 11.00826,-17.80792 25.85546,-41 0.33781,0 3.99844,19.46647 4.33204,19.82813 3.1937,-2.63157 22.85273,-29.36354 19.95703,-24.3125 l -20.32422,35.45312 -4.5918,-17.73828 -21.22851,25.58399 c -4.8889,5.89187 -6.52493,8.33808 -7.26563,10.04297 -0.5338,1.22849 -1.90291,4.39641 -3.04101,7.03906 -1.3114,3.03629 -6.46996,14.48931 -12.22266,26.20898 -2.5645,4.78513 -5.05526,9.52993 -7.47656,14.47071 -0.4971,0.88088 -1.55888,2.82672 -2.35938,4.32421 -3.6926,6.84643 -7.62933,13.55382 -11.54883,20.26368 -3.473,5.78314 -7.00474,11.47684 -10.48828,17.21484 -7.99152,12.81743 -12.41592,19.23486 -11.71289,18.57813 l 49.00391,-45.77735 -1.49219,34.71094 70.21484,-47.3457 c 2.5951,-1.74989 -78.36856,69.40552 -78.35156,69.20507 l 3.17774,-37.05078 -38.21485,25.25196 c -6.35278,4.19773 -7.49804,5.11691 -8.54883,6.63086 -0.66866,0.96339 -2.65816,3.84962 -4.41992,6.4121 -1.76177,2.56248 -4.28415,6.14359 -5.60547,7.95899 -4.75202,6.52314 -15.1691,20.74689 -15.66406,21.34961 -0.49496,0.60272 -2.09523,2.68173 -3.55664,4.61914 -3.25816,4.31938 -4.58573,6.03861 -4.82617,6.24805 -0.10113,0.0881 -1.05891,1.31324 -2.12891,2.72265 -1.06999,1.40941 -3.03532,3.92528 -4.36719,5.5918 -1.33186,1.66651 -2.40394,3.12328 -2.33984,3.11328 l 75.80664,-11.41016 -23.22265,-8.58203 80.08007,-8.40625 -56.53711,9.375 15.34766,9.44922 c 1.0729,0.66052 1.09541,0.76495 0.32031,0.84375 l -92.57422,9.41406 c -0.15909,0.0162 -1.75657,2.16655 -3.66992,4.54493 -3.62574,4.50694 -7.86008,9.6537 -8.16992,9.92968 -0.0989,0.0881 -1.54052,1.81772 -3.20312,3.84375 -1.66259,2.02602 -4.51948,5.41324 -6.34961,7.52735 -1.83013,2.11412 -5.0738,5.86166 -7.20704,8.32812 -5.05893,5.84922 -10.73883,12.22976 -16.69726,18.75586 -2.64264,2.89442 -4.94882,5.44508 -5.125,5.66992 -0.17617,0.22485 -1.18513,1.3105 -2.24219,2.41211 -2.77704,2.89409 -9.77752,10.38306 -11.36523,12.15821 -14.06492,14.29678 -4.03239,4.26913 -17.78516,18.18164 -10.70469,10.783 -21.47007,21.29535 -32.37109,31.66797 -1.77314,1.69726 -4.79814,4.5273 -6.72266,6.28906 -1.92451,1.76176 -4.51081,4.15782 -5.74609,5.32422 -2.28598,2.14392 -7.99193,7.34154 -8.5586,7.81836 -0.56668,0.47682 -2.32208,2.03952 -3.90039,3.47265 -2.90858,2.64104 -5.57796,5.02308 -7.58593,6.76953 -0.60766,0.52853 -2.2563,1.97006 -3.66407,3.20313 -0.29695,0.2601 -0.45775,0.38741 -0.49414,0.39648 0,0 -0.002,0 -0.002,0 0,0 -0.002,0 -0.002,0 0,0 -0.002,0 -0.002,0 0,0 -0.002,0 -0.002,0 0,0 0,-0.002 0,-0.002 0,0 0,-0.002 0,-0.002 0,0 0,-0.002 0,-0.002 0.0328,-0.12318 1.60772,-1.72399 4.18164,-4.23437 17.51249,-17.08021 28.57947,-28.2862 28.51367,-29.03125 l -6.58594,-74.56055 -40.398437,27.16797 -8.00196,-110.05859 17.927747,88.1875 43.38672,-30.17969 -5.63282,99.00391 c -0.0243,0.42693 14.48814,-14.40025 33.09375,-34.30079 2.98156,-3.18907 10.91832,-11.80139 12.37305,-13.42578 0.63111,-0.7047 2.64777,-2.94771 4.48047,-4.98437 6.81277,-7.57096 13.10125,-14.64146 15.51172,-17.43946 1.36597,-1.58557 3.36455,-3.9002 4.44141,-5.14453 1.07687,-1.24433 3.68418,-4.27119 5.79492,-6.72656 2.11073,-2.45537 4.15069,-4.82518 4.5332,-5.26562 0.38251,-0.44044 2.0857,-2.45836 3.78516,-4.48438 1.69946,-2.02603 4.07237,-4.83668 5.27148,-6.24609 1.19912,-1.40941 4.88737,-5.87764 8.19727,-9.92969 3.3099,-4.05205 12.02487,-14.91942 14.92382,-18.54297 l 3.01563,-3.76953 -0.30859,-71.63086 -29.82618,24.51758 14.11914,-127.46094 0.33594,106.07617 28.23047,-21.02929 -11.95898,88.51562 c -0.0281,0.20822 5.72322,-6.93464 11.07226,-14.07031 3.02062,-3.98095 6.04322,-7.94757 8.99024,-11.98242 1.20857,-1.61175 3.89253,-5.28724 5.96484,-8.16797 2.07231,-2.88074 3.85411,-5.31034 3.96094,-5.39844 2.25753,-2.94422 4.17087,-6.14804 6.38086,-9.12891 1.96977,-2.81882 4.26087,-6.11168 5.09179,-7.3164 11.29171,-16.3713 21.0775,-31.81836 26.3086,-40.56055 l 2.96484,-4.95312 13.39844,-66.71485 -25.30469,8.50586 c 0.78253,-3.11795 28.2255,-84.57784 28.1875,-84.39062 l -14.99023,73.40039 25.11914,-9.99219 -25.67383,77.72656 c -0.042,0.12709 1.83994,-2.73714 2.99414,-4.80469 0.4425,-0.7928 2.19965,-3.89171 3.90625,-6.88671 4.0621,-7.12864 6.00222,-10.92472 6.72852,-12.17188 1.7681,-3.03563 10.95504,-21.18931 13.77734,-27.22656 16.3785,-35.03509 26.23579,-64.43743 31.67969,-94.49414 0.8292,-4.57818 2.10301,-13.47447 2.57031,-17.93946 0.47782,-4.568061 0.71771,-6.711951 0.80859,-6.832031 0,0 0.002,-0.002 0.002,-0.002 z m -103.08984,156.210931 27.14843,22.31641 -15.50781,0.68555 12.76367,14.83203 -20.67773,-16.1875 14.26953,-0.9375 z m -154.60547,30.50391 46.44726,30.37695 -18.38086,11.24414 30.87305,21.75977 -44.43359,-22.20898 20.65625,-11.75977 z m 64.28906,1.10352 2.26562,111.80859 -27.06445,-8.0625 0.47266,76.9375 -10.10547,-95.23828 28.48242,9.42187 z m 108.52344,117.86914 -41.46289,10.73828 c -0.3667,0.095 0.4396,0.15587 20.25586,14.86133 -75.62061,10.44364 -36.62045,4.76026 -73.05664,9.97265 -6.97166,0.99733 -5.43131,0.49846 12.26171,-3.97265 13.7769,-3.49206 33.98917,-8.63686 45.3711,-11.50782 -2.5521,-1.94813 -18.08403,-14.5521 -17.61524,-14.59961 z m 27.96875,26.27343 -6.85352,37.87696 44.8457,-25.20313 -52.05273,44.12305 4.82617,-35.76758 -64.85937,37.37695 z m -103.95703,52.82032 106.80078,21.85742 -85.32617,-3.93359 30.03125,40.88867 -145.76758,-25.91211 120.00976,5.58398 z"
     style="display:inline;fill:#8fc263"
     id="path5" />
</svg>
